<svg xmlns="http://www.w3.org/2000/svg" width="208" height="66" fill="none"  xmlns:v="https://vecta.io/nano"><g fill="#000"><path d="M24.166 41.079h-5.853c-.725 0-1.313-.399-1.313-.892s.588-.892 1.313-.892h5.853c.725 0 1.313.399 1.313.892s-.588.892-1.313.892z"/><path d="M15.67 41.079H9.804c-.735 0-1.33-.399-1.33-.892s.595-.892 1.33-.892h5.866c.734 0 1.33.399 1.33.892s-.595.892-1.33.892zM2.43 60a1.08 1.08 0 0 1-.237-.026c-.526-.119-.847-.603-.716-1.081l1.177-4.31c.131-.478.662-.77 1.189-.651s.847.603.716 1.081l-1.177 4.31c-.111.406-.512.678-.952.678zm29.14 0c-.44 0-.841-.271-.952-.678l-1.177-4.31c-.131-.478.19-.962.716-1.081s1.058.173 1.189.651l1.177 4.31c.131.478-.19.962-.716 1.081a1.08 1.08 0 0 1-.237.026zm.771-18.921h-4.126c-.542 0-.981-.399-.981-.892s.439-.892.981-.892h4.126c.542 0 .981.399.981.892s-.439.892-.981.892zm-26.577 0H1.659c-.542 0-.981-.399-.981-.892s.439-.892.981-.892h4.105c.542 0 .981.399.981.892s-.439.892-.981.892zM19.74.82v7.761l-.093.112c-.807-.331-1.703-.515-2.647-.515s-1.84.184-2.647.515l-.093-.112V.82c0-.453.404-.82.902-.82h3.675c.498 0 .902.367.902.82h0z"/><path d="M15.163 0h2.578c-.499 0-.902.367-.902.82v7.36c-.884.019-1.725.202-2.485.513l-.093-.113V.82c0-.454.403-.82.902-.82zm4.576 8.18v.401l-.093.113c-.429-.176-.884-.311-1.357-.397a7.05 7.05 0 0 1 1.289-.118l.161.002z"/><path d="M17 8.177a7.05 7.05 0 0 1 1.289.118c-.473.087-.928.221-1.357.397l-.093-.113V8.18L17 8.177zm.031 34.793h-.061c-1.129 0-2.045-.832-2.045-1.859v-1.849c0-1.027.915-1.859 2.045-1.859h.061c1.129 0 2.045.832 2.045 1.859v1.849c0 1.027-.916 1.859-2.045 1.859zM3.643 54.806l-.074-.017c-1.361-.307-2.191-1.56-1.853-2.797l10.213-37.4c.338-1.238 1.716-1.992 3.077-1.684l.074.017c1.361.307 2.191 1.56 1.853 2.797L6.72 53.122c-.338 1.237-1.715 1.992-3.077 1.684z"/><path d="M15.705 13.148c-.577.302-1.024.81-1.196 1.444l-10.213 37.4c-.282 1.034.25 2.078 1.227 2.573a2.75 2.75 0 0 1-1.878.24l-.075-.016c-1.361-.308-2.19-1.56-1.852-2.797l10.213-37.4c.338-1.238 1.715-1.992 3.076-1.685l.075.018a2.6 2.6 0 0 1 .624.224h0zm14.652 41.658l.074-.017c1.361-.307 2.191-1.56 1.853-2.797l-10.213-37.4c-.338-1.238-1.715-1.992-3.077-1.684l-.074.017c-1.361.307-2.191 1.56-1.853 2.797l10.213 37.4c.338 1.237 1.715 1.992 3.077 1.684z"/><path d="M31.056 54.566c-.192.097-.401.173-.625.224l-.075.016c-1.361.307-2.738-.448-3.076-1.685l-10.213-37.4c-.338-1.238.491-2.489 1.852-2.796l.075-.018c.664-.15 1.33-.047 1.879.241-.978.493-1.511 1.537-1.228 2.572l10.213 37.4c.173.635.62 1.143 1.198 1.445z"/><path d="M17 18.723c3.559 0 6.445-2.623 6.445-5.859S20.559 7.006 17 7.006s-6.444 2.623-6.444 5.859 2.885 5.859 6.445 5.859z"/></g><path d="M18.289 18.606c-.416.077-.847.117-1.289.117-3.559 0-6.444-2.623-6.444-5.859S13.441 7.005 17 7.005a6.95 6.95 0 0 1 1.289.118c-2.942.543-5.155 2.906-5.155 5.74s2.213 5.198 5.155 5.742z" fill="#dbecff"/><path d="M17 15.001c1.298 0 2.351-.957 2.351-2.137S18.298 10.727 17 10.727s-2.351.957-2.351 2.137 1.052 2.137 2.351 2.137zm37.632 31.755c.456 0 .684.576.684 1.728s-.216 2.184-.648 3.096-.96 1.62-1.584 2.124c-.6.504-1.284.912-2.052 1.224-2.568 1.128-4.968 1.104-7.2-.072-1.128-.6-1.992-1.308-2.592-2.124-.6-.84-1.08-1.836-1.44-2.988-.552-1.728-.828-3.54-.828-5.436s.18-3.672.54-5.328a20 20 0 0 1 1.656-4.716c.744-1.512 1.8-2.724 3.168-3.636s2.952-1.368 4.752-1.368a7.7 7.7 0 0 1 2.376.396c.84.24 1.524.552 2.052.936.528.36.996.924 1.404 1.692s.612 1.668.612 2.7c0 1.104-.264 2.1-.792 2.988-.24.408-.624.78-1.152 1.116-.528.312-1.152.468-1.872.468-1.104 0-1.884-.492-2.34-1.476-.192-.384-.288-.804-.288-1.26s.156-.72.468-.792c.336-.096.648-.36.936-.792s.432-.936.432-1.512a1.99 1.99 0 0 0-.36-1.188c-.456-.6-1.116-.9-1.98-.9s-1.656.396-2.376 1.188c-.696.792-1.224 1.788-1.584 2.988-.72 2.4-1.08 4.608-1.08 6.624s.276 3.636.828 4.86c.672 1.512 1.524 2.52 2.556 3.024.648.312 1.392.468 2.232.468 1.416 0 2.688-.636 3.816-1.908.48-.504.876-1.104 1.188-1.8.12-.216.276-.324.468-.324zm12.019-12.384c-1.896 2.376-3.264 4.752-4.104 7.128h.036l5.724.036c.504 0 .78-.024.828-.072a.45.45 0 0 0 .108-.18l-.972-6.012c-.24-1.08-.48-1.62-.72-1.62s-.54.24-.9.72zm-3.204 16.956l.792-.144c.24 0 .36.132.36.396 0 .84-.168 1.548-.504 2.124s-.756.984-1.26 1.224c-.816.408-1.512.612-2.088.612-1.104 0-1.932-.408-2.484-1.224-.552-.84-.828-2.088-.828-3.744 0-1.68.456-3.852 1.368-6.516h-2.088c-.264 0-.396-.132-.396-.396s.204-.684.612-1.26c.408-.6.84-.9 1.296-.9h1.62c1.704-3.792 3.708-7.068 6.012-9.828.6-.72 1.332-1.392 2.196-2.016.888-.624 1.572-.936 2.052-.936a1.16 1.16 0 0 1 1.08.648c.624 1.008 1.356 4.692 2.196 11.052.288 2.736.78 5.568 1.476 8.496.72 2.904 1.38 4.596 1.98 5.076.144.096.216.216.216.36 0 .36-.516.696-1.548 1.008-1.008.312-1.788.468-2.34.468-.528 0-.936-.072-1.224-.216-.288-.12-.468-.252-.54-.396-.432-.936-.864-3.168-1.296-6.696l-.216-1.692c-.096-1.128-.192-1.98-.288-2.556l-.252-.18-7.524-.036c-.288 1.224-.432 2.292-.432 3.204s.024 1.584.072 2.016c.072.408.276.852.612 1.332s.792.72 1.368.72zm22.041-19.656c-.432 0-.804.072-1.116.216s-.468.324-.468.54c-.288 1.008-.432 4.02-.432 9.036l-.036 8.388c.456.72 1.164 1.08 2.124 1.08 1.704 0 2.988-.936 3.852-2.808.864-1.896 1.296-4.26 1.296-7.092 0-2.856-.42-5.124-1.26-6.804-.84-1.704-2.16-2.556-3.96-2.556zm-6.876 23.724c-.36-.048-.54-.156-.54-.324l.108-.432c.6-1.296.9-5.964.9-14.004 0-3.84-.108-6.24-.324-7.2-.192-.96-.348-1.572-.468-1.836l-.18-.36c-.096-.096-.144-.228-.144-.396 0-.192.144-.348.432-.468 1.872-.744 4.332-1.116 7.38-1.116 6.408 0 9.612 4.08 9.612 12.24 0 3.192-.564 6.108-1.692 8.748-.456 1.008-.984 1.884-1.584 2.628-.6.72-1.392 1.332-2.376 1.836-.96.48-2.028.72-3.204.72l-.936-.108c-.36-.048-.912-.228-1.656-.54-.72-.312-1.212-.72-1.476-1.224-.888 1.224-2.172 1.836-3.852 1.836zm27.59-21.024c-1.896 2.376-3.264 4.752-4.104 7.128h.036l5.724.036c.504 0 .78-.024.828-.072a.45.45 0 0 0 .108-.18c-.408-2.952-.732-4.956-.972-6.012-.24-1.08-.48-1.62-.72-1.62s-.54.24-.9.72zm-3.204 16.956l.792-.144c.24 0 .36.132.36.396 0 .84-.168 1.548-.504 2.124s-.756.984-1.26 1.224c-.816.408-1.512.612-2.088.612-1.104 0-1.932-.408-2.484-1.224-.552-.84-.828-2.088-.828-3.744 0-1.68.456-3.852 1.368-6.516h-2.088c-.264 0-.396-.132-.396-.396s.204-.684.612-1.26c.408-.6.84-.9 1.296-.9h1.62c1.704-3.792 3.708-7.068 6.012-9.828.6-.72 1.332-1.392 2.196-2.016.888-.624 1.572-.936 2.052-.936a1.16 1.16 0 0 1 1.08.648c.624 1.008 1.356 4.692 2.196 11.052.288 2.736.78 5.568 1.476 8.496.72 2.904 1.38 4.596 1.98 5.076.144.096.216.216.216.36 0 .36-.516.696-1.548 1.008-1.008.312-1.788.468-2.34.468-.528 0-.936-.072-1.224-.216-.288-.12-.468-.252-.54-.396-.432-.936-.864-3.168-1.296-6.696l-.216-1.692c-.096-1.128-.192-1.98-.288-2.556l-.252-.18-7.524-.036c-.288 1.224-.432 2.292-.432 3.204s.024 1.584.072 2.016c.072.408.276.852.612 1.332s.792.72 1.368.72zm15.344-10.332l-.18-6.804c0-1.08-.12-1.932-.36-2.556s-.36-.96-.36-1.008c0-.528.804-.936 2.412-1.224 1.632-.288 2.868-.432 3.708-.432.864 0 1.332.204 1.404.612 1.512 6.744 2.784 11.424 3.816 14.04.12.288.24.432.36.432.144 0 .264-.108.36-.324 1.608-4.536 3.024-9.024 4.248-13.464.096-.288.336-.504.72-.648.384-.168 1.044-.324 1.98-.468.96-.144 1.908-.216 2.844-.216s1.404.192 1.404.576c0 .024-.036.216-.108.576-.072.336-.144.756-.216 1.26l-.252 1.836c-.216 1.656-.36 3.564-.432 5.724l-.072 6.444.072 3.78c0 1.728.108 2.964.324 3.708.24.72.36 1.14.36 1.26 0 .096-.084.216-.252.36-.744.6-1.872.9-3.384.9-.96 0-1.5-.324-1.62-.972-.072-.336-.108-.864-.108-1.584 0-.744.072-3 .216-6.768l.216-8.208c0-1.728-.096-2.592-.288-2.592-.024 0-.036.012-.036.036l-.108.036c-.072.024-.264.396-.576 1.116-.288.72-.876 2.496-1.764 5.328l-2.412 7.956-1.188 3.96c-.264.648-.768.972-1.512.972-.36 0-.648-.132-.864-.396-.768-3.552-2.136-8.628-4.104-15.228l-1.008-3.276c-.048-.12-.096-.18-.144-.18-.12 0-.204.084-.252.252-.096 1.56-.144 4.632-.144 9.216 0 4.56.168 7.44.504 8.64.024.048.036.12.036.216 0 .504-.396.876-1.188 1.116-.792.216-1.512.324-2.16.324-.624 0-.936-.144-.936-.432 0-.024.06-.216.18-.576.36-1.224.588-3 .684-5.328.12-2.328.18-4.992.18-7.992zm39.792 9.54c0 1.68-.54 2.928-1.62 3.744-1.056.816-2.544 1.224-4.464 1.224-3.072 0-5.34-1.02-6.804-3.06-1.44-2.04-2.16-4.704-2.16-7.992 0-.528.024-1.296.072-2.304h-2.016c-.192 0-.288-.072-.288-.216 0-.408.204-.9.612-1.476s.852-.864 1.332-.864h.684c.312-1.728.816-3.252 1.512-4.572.72-1.32 1.464-2.34 2.232-3.06.792-.72 1.656-1.296 2.592-1.728 1.488-.72 3.048-1.08 4.68-1.08s2.652.264 3.06.792c.192.264.288.756.288 1.476 0 .696-.084 1.044-.252 1.044-.024 0-.132-.048-.324-.144-.624-.288-1.404-.432-2.34-.432-2.04 0-3.636.72-4.788 2.16-1.128 1.44-1.884 3.288-2.268 5.544l7.416-.036c.24 0 .36.084.36.252 0 .384-.192.876-.576 1.476-.384.576-.816.864-1.296.864h-6.192c-.024.288-.036.924-.036 1.908 0 .96.168 1.98.504 3.06.36 1.056 1.008 1.956 1.944 2.7.96.744 2.196 1.116 3.708 1.116s2.784-.336 3.816-1.008c.12-.096.228-.144.324-.144.192 0 .288.252.288.756zm17.191 0c0 1.68-.54 2.928-1.62 3.744-1.056.816-2.544 1.224-4.464 1.224-3.072 0-5.34-1.02-6.804-3.06-1.44-2.04-2.16-4.704-2.16-7.992 0-.528.024-1.296.072-2.304h-2.016c-.192 0-.288-.072-.288-.216 0-.408.204-.9.612-1.476s.852-.864 1.332-.864h.684c.312-1.728.816-3.252 1.512-4.572.72-1.32 1.464-2.34 2.232-3.06.792-.72 1.656-1.296 2.592-1.728 1.488-.72 3.048-1.08 4.68-1.08s2.652.264 3.06.792c.192.264.288.756.288 1.476 0 .696-.084 1.044-.252 1.044-.024 0-.132-.048-.324-.144-.624-.288-1.404-.432-2.34-.432-2.04 0-3.636.72-4.788 2.16-1.128 1.44-1.884 3.288-2.268 5.544l7.416-.036c.24 0 .36.084.36.252 0 .384-.192.876-.576 1.476-.384.576-.816.864-1.296.864h-6.192c-.024.288-.036.924-.036 1.908 0 .96.168 1.98.504 3.06.36 1.056 1.008 1.956 1.944 2.7.96.744 2.196 1.116 3.708 1.116s2.784-.336 3.816-1.008c.12-.096.228-.144.324-.144.192 0 .288.252.288.756zm4.376-21.168l5.184.288c2.304 0 3.96-.276 4.968-.828.144-.096.264-.144.36-.144.12 0 .18.168.18.504s-.204.888-.612 1.656c-.6 1.176-1.464 1.764-2.592 1.764l-1.98-.036c-.192 0-.312.108-.36.324-.168 3.528-.252 7.344-.252 11.448 0 4.08.168 7.152.504 9.216v.18c0 .6-.576 1.08-1.728 1.44-1.128.36-2.196.54-3.204.54-.48 0-.72-.132-.72-.396 0-.072.036-.24.108-.504.264-.528.492-3.084.684-7.668.216-4.584.323-8.04.323-10.368l-.071-3.924c0-.144-.072-.228-.216-.252a9.3 9.3 0 0 0-1.728-.144c-1.296 0-2.256.264-2.881.792-.168.12-.324.18-.468.18-.168 0-.252-.096-.252-.288 0-.288.156-.684.468-1.188.288-.504.601-.936.937-1.296.816-.864 1.932-1.296 3.348-1.296zm21.964 5.688l.144-1.116c0-1.104-.432-1.812-1.296-2.124-.672-.216-1.188-.324-1.548-.324h-.036c-.72 0-1.344.12-1.872.36-.528.216-.912.492-1.152.828-.504.696-.792 1.428-.864 2.196 0 .912.408 1.704 1.224 2.376.816.648 1.8 1.224 2.952 1.728 1.176.48 2.34 1.008 3.492 1.584 1.176.576 2.172 1.404 2.988 2.484s1.224 2.376 1.224 3.888c0 2.952-.936 5.16-2.808 6.624a9.92 9.92 0 0 1-6.336 2.196c-2.352 0-4.308-.528-5.868-1.584-1.536-1.08-2.304-2.52-2.304-4.32v-.036c0-.888.132-1.656.396-2.304.288-.672.624-1.164 1.008-1.476.792-.648 1.512-.996 2.16-1.044l.432-.036c.672 0 1.284.168 1.836.504.552.312.828.756.828 1.332 0 .288-.156.528-.468.72s-.588.48-.828.864c-.216.384-.336.708-.36.972l-.072.396c0 1.464.672 2.436 2.016 2.916.48.168.864.252 1.152.252 1.32 0 2.376-.396 3.168-1.188.816-.792 1.224-1.8 1.224-3.024 0-1.464-.624-2.652-1.872-3.564-.936-.672-1.956-1.236-3.06-1.692-1.08-.456-1.812-.78-2.196-.972s-.792-.42-1.224-.684-.912-.636-1.44-1.116c-1.152-1.008-1.728-2.364-1.728-4.068 0-1.728.468-3.18 1.404-4.356 1.68-2.136 4.2-3.204 7.56-3.204 1.776 0 3.276.348 4.5 1.044 1.224.672 1.836 1.608 1.836 2.808 0 .864-.252 1.584-.756 2.16a2.32 2.32 0 0 1-1.872.864 2.89 2.89 0 0 1-1.08-.216c-.336-.144-.504-.36-.504-.648z" fill="#000"/></svg>