<svg xmlns="http://www.w3.org/2000/svg" xmlns:xlink="http://www.w3.org/1999/xlink" width="100" height="101" fill="none" xmlns:v="https://vecta.io/nano"><circle cx="50" cy="50" r="44" fill="#def0e2" stroke="#c8e1cc" stroke-width="12"/><g clip-path="url(#b)"><path d="M73 56.467v15.084c0 .713-.762 1.2-1.465.938-3.38-1.258-6.832-1.886-10.285-1.886-3.67 0-7.339.71-10.921 2.133-.264.105-.545.161-.829.161a2.25 2.25 0 0 1-.829-.161c-6.952-2.759-14.233-2.841-21.206-.246-.703.262-1.465-.225-1.465-.938V56.467c0-.513.322-.98.825-1.179 3.584-1.423 7.254-2.133 10.924-2.133 3.953 0 7.907.825 11.751 2.474 7.415-3.181 15.233-3.294 22.675-.341.502.199.825.666.825 1.179h0z" fill="url(#A)"/><path d="M71.535 70.423c-3.38-1.258-6.832-1.886-10.285-1.886-3.67 0-7.339.71-10.921 2.133-.264.105-.545.161-.829.161a2.25 2.25 0 0 1-.829-.161c-6.952-2.759-14.233-2.841-21.206-.246-.703.262-1.465-.225-1.465-.938v2.066c0 .713.762 1.2 1.465.938 6.973-2.595 14.254-2.513 21.206.246a2.25 2.25 0 0 0 .829.161c.284 0 .565-.057.829-.161 3.582-1.422 7.251-2.133 10.921-2.133 3.453 0 6.904.629 10.285 1.886.703.262 1.465-.225 1.465-.938v-2.066c0 .713-.762 1.2-1.465.938z" fill="url(#B)"/><use xlink:href="#c" fill="url(#C)"/><use xlink:href="#c" fill="url(#C)"/><path d="M71.652 55.088v12.49a1.01 1.01 0 0 1-1.381.938c-3.186-1.258-6.44-1.886-9.694-1.886-3.139 0-6.276.584-9.354 1.755-.551.209-1.133.323-1.722.323a4.85 4.85 0 0 1-1.724-.324c-6.267-2.383-12.788-2.339-19.046.132a1.01 1.01 0 0 1-1.381-.938v-12.49c0-.513.304-.98.777-1.179 3.378-1.423 6.839-2.133 10.298-2.133 3.726 0 7.452.825 11.076 2.474 6.99-3.181 14.359-3.294 21.374-.341.473.2.777.666.777 1.179h0z" fill="url(#D)"/><path d="M27.349 54.441v12.49a1.01 1.01 0 0 0 1.381.938c3.187-1.258 6.44-1.886 9.694-1.886 3.139 0 6.276.585 9.354 1.755.551.21 1.133.323 1.722.323s1.173-.114 1.724-.324c6.267-2.383 12.788-2.339 19.046.132a1.01 1.01 0 0 0 1.381-.938v-12.49c0-.513-.304-.98-.777-1.179-3.378-1.423-6.839-2.133-10.298-2.133-3.727 0-7.452.825-11.076 2.474-6.99-3.181-14.359-3.294-21.374-.341a1.28 1.28 0 0 0-.777 1.179h0z" fill="url(#E)"/><path d="M28.125 52.201c-.473.199-.777.666-.777 1.179v12.49a1.01 1.01 0 0 0 1.381.938c6.834-2.699 13.982-2.503 20.77.587V52.541c-6.989-3.181-14.358-3.295-21.375-.34h0z" fill="url(#F)"/><path d="M70.875 52.201c-7.016-2.954-14.385-2.841-21.375.34v14.854c6.789-3.09 13.937-3.286 20.77-.587a1.01 1.01 0 0 0 1.381-.938V53.38c0-.513-.304-.98-.777-1.179h0z" fill="url(#G)"/><path d="M29.523 54.195c-.442.186-.726.623-.726 1.102v10.672c0 .666.671 1.122 1.291.877 6.387-2.522 13.068-2.339 19.412.549V54.513c-6.532-2.973-13.419-3.08-19.977-.318h0z" fill="url(#H)"/><g fill="#bec3d2"><path d="M30.679 54.587c1.952-.692 3.925-1.122 5.905-1.291.184-.016.342.131.342.316v.753c0 .165-.126.301-.29.315-1.926.17-3.845.603-5.743 1.3-.206.076-.424-.078-.424-.297v-.796c0-.134.084-.255.211-.299h0zm11.149-.849v.755c0 .192-.169.34-.359.314a21.25 21.25 0 0 0-3.365-.205c-.178.003-.325-.138-.325-.316v-.749c0-.172.137-.314.309-.317a22.61 22.61 0 0 1 3.466.204c.156.021.273.156.273.314h0zm3.894.876v.786c0 .214-.209.368-.413.301a23 23 0 0 0-2.376-.638c-.147-.031-.252-.159-.252-.309v-.766c0-.199.182-.351.377-.311a24.17 24.17 0 0 1 2.443.633c.132.041.221.165.221.303h0zm-15.043 2.885l1.586-.503c.203-.057.404.094.404.305v.78c0 .141-.094.264-.229.304l-1.547.507c-.206.075-.424-.078-.424-.297v-.796c0-.134.084-.255.21-.299h0zm9.04-1.036v.749c0 .179-.149.324-.328.316l-1.24-.016c-1.417.024-2.836.191-4.245.498-.198.043-.384-.11-.384-.312v-.763c0-.149.104-.279.25-.31a22.91 22.91 0 0 1 4.356-.496l1.289.016c.169.007.302.148.302.317h0zm6.003 1.062v.786c0 .214-.209.368-.413.301-1.471-.48-2.96-.805-4.453-.971-.161-.018-.283-.152-.283-.314v-.754c0-.187.162-.335.348-.315 1.535.165 3.066.488 4.58.965.132.042.221.165.221.303h0zM30.679 60.41c1.944-.688 3.922-1.12 5.905-1.289.184-.016.341.131.341.316v.752c0 .165-.126.3-.291.315a22.37 22.37 0 0 0-5.743 1.298c-.206.075-.424-.078-.424-.297v-.795c0-.134.084-.255.211-.299h0zm15.043.026v.787c0 .214-.209.368-.413.301a21.86 21.86 0 0 0-7.157-1.1l-.049.001c-.177.003-.323-.139-.323-.316v-.749c0-.172.138-.314.31-.317h.039c2.469-.041 4.943.326 7.372 1.091.132.041.221.164.221.302h0zm-15.043 2.885l1.586-.502c.203-.057.404.094.404.305v.78c0 .141-.094.264-.229.303l-1.548.508c-.206.076-.424-.078-.424-.297v-.796c0-.134.084-.255.21-.299h0zm11.149-.85v.755c0 .193-.172.34-.363.313a21.29 21.29 0 0 0-3.313-.205 21.57 21.57 0 0 0-4.245.498c-.198.043-.384-.109-.384-.312v-.763c0-.149.104-.279.25-.31a22.86 22.86 0 0 1 4.356-.496 22.5 22.5 0 0 1 3.427.205c.156.021.273.156.273.314z"/></g><path d="M70.27 66.808a1.01 1.01 0 0 0 1.381-.938V53.38c0-.513-.304-.98-.777-1.179-7.016-2.954-14.385-2.841-21.375.34a28.44 28.44 0 0 0-3.939-1.458l-1.065 2.978c-.1.28.106.552.372.57l10.775 10.775c4.875-.959 9.828-.493 14.627 1.402h0z" fill="url(#I)"/><path d="M71.2 32.477l-4.573-4.573 1.594-1.594c.234-.234.599-.273.877-.095a12.57 12.57 0 0 1 3.79 3.79c.179.278.139.643-.095.877L71.2 32.477z" fill="url(#J)"/><path d="M71.2 32.477l1.594-1.594a.7.7 0 0 0 .098-.123.7.7 0 0 0-.086-.195c-.976-1.521-2.269-2.814-3.79-3.79-.278-.179-.643-.139-.877.095l-1.273 1.273 4.335 4.335z" fill="url(#K)"/><path d="M72.889 30.006l-.524-.752a.86.86 0 0 1-.193.297l-1.949 1.949.977.977 1.594-1.594c.234-.234.273-.599.095-.877h0z" fill="url(#L)"/><path d="M68.885 35.268l2.692-2.692c.105-.105.105-.275 0-.38l-4.67-4.67c-.105-.105-.275-.105-.38 0l-2.692 2.692 5.049 5.049z" fill="url(#M)"/><path d="M65.192 28.86v10.102l5.057-5.054-5.053-5.053-.004.004z" fill="url(#N)"/><path d="M70.087 33.794l-4.777-4.777c-.239-.239-.239-.627 0-.866s.627-.239.867 0l4.777 4.777c.239.239.239.627 0 .867s-.627.239-.867 0z" fill="url(#O)"/><path d="M47.002 47.052l-2.506 7.01c-.121.339.206.667.545.545l7.01-2.506c1.399-1.398-3.651-6.448-5.049-5.049h0z" fill="url(#P)"/><path d="M48.225 48.213l-3.688 6.162c-.006.01-.01.02-.015.03.094.174.304.279.521.202l7.01-2.506c.011-.011.02-.023.03-.034.416-1.634-2.491-4.947-3.857-3.855h0z" fill="url(#Q)"/><path d="M69.312 34.842l-17.26 17.26c-.067-.116-.151-.225-.249-.324-.618-.618-1.62-.618-2.237 0-.028.028.08-.086.08-.086a1.58 1.58 0 0 0-2.232-2.232l-.086.08c.618-.618.618-1.62 0-2.238a1.57 1.57 0 0 0-.324-.249l17.26-17.26 5.05 5.05z" fill="url(#R)"/><path d="M67.903 33.433L49.645 51.691a1.58 1.58 0 0 0-2.232-2.232l18.258-18.258 2.232 2.232z" fill="url(#S)"/><path d="M47.327 49.539c-.028.028.086-.08.086-.08a1.58 1.58 0 0 1 2.232 2.232l-.08.086c.618-.618 1.62-.618 2.237 0a1.57 1.57 0 0 1 .25.324l17.26-17.26-4.449-4.449L47.596 47.66c.329.601.24 1.37-.269 1.879z" fill="url(#T)"/><path d="M45.912 53.192c-.265-.265-.562-.478-.875-.64l-.54 1.509c-.121.339.206.667.546.546l1.509-.54c-.162-.314-.375-.61-.64-.875h0z" fill="url(#U)"/><path d="M63.465 30.586l.012 10.094 5.045-5.045-5.053-5.053-.004.004z" fill="url(#V)"/><path d="M68.36 35.521l-4.777-4.777c-.239-.239-.239-.627 0-.867s.627-.239.866 0l4.777 4.777c.239.239.239.627 0 .866s-.627.239-.867 0z" fill="url(#W)"/><path d="M28.856 46.672h-1.929c-.512 0-.927-.415-.927-.927s.415-.927.927-.927h1.929c.512 0 .927.415.927.927s-.415.927-.927.927z" fill="url(#X)"/><path d="M46.361 29.167v-1.929c0-.512-.415-.927-.927-.927s-.926.415-.926.927v1.929c0 .512.415.926.926.926s.927-.415.927-.926z" fill="url(#Y)"/><path d="M33.056 34.678l-1.364-1.364c-.362-.362-.362-.948 0-1.31s.948-.362 1.31 0l1.364 1.364c.362.362.362.949 0 1.31s-.949.362-1.31 0z" fill="url(#Z)"/><path d="M57.812 34.678l1.364-1.364c.362-.362.362-.948 0-1.31s-.949-.362-1.31 0l-1.364 1.364c-.362.362-.362.949 0 1.31s.949.362 1.31 0z" fill="url(#a)"/></g><defs><linearGradient id="A" x1="39.97" y1="54.178" x2="69.85" y2="84.831" xlink:href="#d"><stop stop-color="#ff7044"/><stop offset="1" stop-color="#f92814"/></linearGradient><linearGradient id="B" x1="48.557" y1="63.476" x2="50.569" y2="78.567" xlink:href="#d"><stop stop-color="#f92814" stop-opacity="0"/><stop offset="1" stop-color="#c1272d"/></linearGradient><linearGradient id="C" x1="48.035" y1="54.056" x2="50.108" y2="65.526" xlink:href="#d"><stop stop-color="#f9f7fc"/><stop offset="1" stop-color="#f0ddfc"/></linearGradient><linearGradient id="D" x1="50.406" y1="66.588" x2="51.996" y2="75.824" xlink:href="#d"><stop stop-color="#f0ddfc" stop-opacity="0"/><stop offset=".289" stop-color="#c8b7e0" stop-opacity=".289"/><stop offset=".592" stop-color="#a595c8" stop-opacity=".592"/><stop offset=".84" stop-color="#8f81b8" stop-opacity=".84"/><stop offset="1" stop-color="#8779b3"/></linearGradient><linearGradient id="E" x1="48.952" y1="66.672" x2="48.383" y2="72.884" xlink:href="#d"><stop stop-color="#f0ddfc" stop-opacity="0"/><stop offset=".289" stop-color="#c8b7e0" stop-opacity=".289"/><stop offset=".592" stop-color="#a595c8" stop-opacity=".592"/><stop offset=".84" stop-color="#8f81b8" stop-opacity=".84"/><stop offset="1" stop-color="#8779b3"/></linearGradient><linearGradient id="F" x1="36.207" y1="57.197" x2="44.194" y2="65.185" xlink:href="#d"><stop stop-color="#f9f7fc"/><stop offset="1" stop-color="#f0ddfc"/></linearGradient><linearGradient id="G" x1="56.559" y1="55.002" x2="64.141" y2="64.75" xlink:href="#d"><stop stop-color="#f9f7fc"/><stop offset="1" stop-color="#f0ddfc"/></linearGradient><linearGradient id="H" x1="38.521" y1="59.867" x2="31.174" y2="53.07" xlink:href="#d"><stop stop-color="#e9edf5" stop-opacity="0"/><stop offset="1" stop-color="#fff"/></linearGradient><linearGradient id="I" x1="62.967" y1="58.664" x2="50.127" y2="45.455" xlink:href="#d"><stop stop-color="#f0ddfc" stop-opacity="0"/><stop offset=".161" stop-color="#e8d5f6" stop-opacity=".161"/><stop offset=".417" stop-color="#d1bfe6" stop-opacity=".417"/><stop offset=".733" stop-color="#ac9ccd" stop-opacity=".733"/><stop offset="1" stop-color="#8779b3"/></linearGradient><linearGradient id="J" x1="68.557" y1="27.533" x2="71.933" y2="30.909" xlink:href="#d"><stop stop-color="#ff7044"/><stop offset="1" stop-color="#f92814"/></linearGradient><linearGradient id="K" x1="69.835" y1="30.008" x2="70.272" y2="25.083" xlink:href="#d"><stop stop-color="#ff7044" stop-opacity="0"/><stop offset="1" stop-color="#ffa425"/></linearGradient><linearGradient id="L" x1="73.067" y1="28.45" x2="71.196" y2="31.776" xlink:href="#d"><stop stop-color="#f92814" stop-opacity="0"/><stop offset="1" stop-color="#c1272d"/></linearGradient><linearGradient id="M" x1="66.146" y1="29.63" x2="69.874" y2="33.358" xlink:href="#d"><stop stop-color="#f9f7fc"/><stop offset="1" stop-color="#f0ddfc"/></linearGradient><linearGradient id="N" x1="66.68" y1="32.955" x2="69.132" y2="29.255" xlink:href="#d"><stop stop-color="#f0ddfc" stop-opacity="0"/><stop offset=".289" stop-color="#c8b7e0" stop-opacity=".289"/><stop offset=".592" stop-color="#a595c8" stop-opacity=".592"/><stop offset=".84" stop-color="#8f81b8" stop-opacity=".84"/><stop offset="1" stop-color="#8779b3"/></linearGradient><linearGradient id="O" x1="68.433" y1="30.642" x2="67.708" y2="31.432" xlink:href="#d"><stop stop-color="#f9f7fc"/><stop offset="1" stop-color="#f0ddfc"/></linearGradient><linearGradient id="P" x1="45.072" y1="48.981" x2="50.121" y2="54.03" xlink:href="#d"><stop stop-color="#ffdaaa"/><stop offset=".421" stop-color="#ffd8a8"/><stop offset=".652" stop-color="#fed1a0"/><stop offset=".836" stop-color="#fdc592"/><stop offset=".995" stop-color="#fcb47f"/><stop offset="1" stop-color="#fcb37e"/></linearGradient><linearGradient id="Q" x1="48.378" y1="52.669" x2="45.053" y2="48.097" xlink:href="#d"><stop stop-color="#ffdaaa" stop-opacity="0"/><stop offset=".251" stop-color="#ffe7c8" stop-opacity=".251"/><stop offset=".554" stop-color="#fff4e6" stop-opacity=".554"/><stop offset=".815" stop-color="#fffcf8" stop-opacity=".815"/><stop offset="1" stop-color="#fff"/></linearGradient><linearGradient id="R" x1="55.099" y1="38.954" x2="60.147" y2="44.003" xlink:href="#d"><stop stop-color="#ffda45"/><stop offset="1" stop-color="#ffa425"/></linearGradient><linearGradient id="S" x1="56.413" y1="40.181" x2="60.424" y2="44.192" xlink:href="#d"><stop stop-color="#ffda45"/><stop offset="1" stop-color="#ffa425"/></linearGradient><linearGradient id="T" x1="58.807" y1="43.02" x2="54.667" y2="36.027" xlink:href="#d"><stop stop-color="#ffda45" stop-opacity="0"/><stop offset="1" stop-color="#fcee21"/></linearGradient><linearGradient id="U" x1="45.112" y1="53.685" x2="46.4" y2="54.973" xlink:href="#d"><stop stop-color="#7e8595"/><stop offset="1" stop-color="#555a66"/></linearGradient><linearGradient id="V" x1="64.145" y1="38.214" x2="67.865" y2="27.968" xlink:href="#d"><stop stop-color="#ffda45" stop-opacity="0"/><stop offset="1" stop-color="#b53759"/></linearGradient><linearGradient id="W" x1="66.706" y1="32.369" x2="65.981" y2="33.159" xlink:href="#d"><stop stop-color="#f9f7fc"/><stop offset="1" stop-color="#f0ddfc"/></linearGradient><linearGradient id="X" x1="27.891" y1="45.53" x2="27.891" y2="47.436" xlink:href="#d"><stop stop-color="#92f37f"/><stop offset="1" stop-color="#4ab272"/></linearGradient><linearGradient id="Y" x1="45.219" y1="28.203" x2="47.125" y2="28.203" xlink:href="#d"><stop stop-color="#92f37f"/><stop offset="1" stop-color="#4ab272"/></linearGradient><linearGradient id="Z" x1="33.179" y1="33.184" x2="31.831" y2="34.532" xlink:href="#d"><stop stop-color="#92f37f"/><stop offset="1" stop-color="#43b06d"/></linearGradient><linearGradient id="a" x1="57.691" y1="33.184" x2="59.039" y2="34.532" xlink:href="#d"><stop stop-color="#92f37f"/><stop offset="1" stop-color="#4ab272"/></linearGradient><clipPath id="b"><path fill="#fff" transform="translate(26 26)" d="M0 0h47v47H0z"/></clipPath><path id="c" d="M71.652 55.928v12.49a1.01 1.01 0 0 1-1.381.938c-3.186-1.258-6.44-1.886-9.694-1.886-3.139 0-6.276.584-9.354 1.755-.551.209-1.133.323-1.722.323a4.85 4.85 0 0 1-1.724-.324c-6.267-2.383-12.788-2.339-19.046.132a1.01 1.01 0 0 1-1.381-.938v-12.49c0-.513.304-.98.777-1.179 3.378-1.423 6.839-2.133 10.298-2.133 3.726 0 7.452.825 11.076 2.474 6.99-3.181 14.359-3.294 21.374-.341.473.2.777.666.777 1.179h0z"/><linearGradient id="d" gradientUnits="userSpaceOnUse"/></defs></svg>