<svg xmlns="http://www.w3.org/2000/svg" xmlns:xlink="http://www.w3.org/1999/xlink" width="100" height="101" fill="none" xmlns:v="https://vecta.io/nano"><circle cx="50" cy="50" r="44" fill="#def0e2" stroke="#c8e1cc" stroke-width="12"/><g fill="#aac3d7"><use xlink:href="#B"/><use xlink:href="#B" x="-17.516"/><path d="M22.305 37.594h42.406V65.25a3.69 3.69 0 0 1-3.687 3.688H25.992a3.69 3.69 0 0 1-3.687-3.687V37.594z"/></g><path d="M22.305 37.594h37.797V65.25c0 .978-.389 1.916-1.08 2.608a3.69 3.69 0 0 1-2.607 1.08H25.992a3.69 3.69 0 0 1-3.687-3.687V37.594z" fill="#d7e6e6"/><path d="M25.992 30.219h35.031a3.69 3.69 0 0 1 3.687 3.687v3.688H22.305v-3.688a3.69 3.69 0 0 1 3.688-3.687h0z" fill="#3d886d"/><path d="M25.992 30.219h30.422a3.69 3.69 0 0 1 2.607 1.08c.692.692 1.08 1.63 1.08 2.607v3.688H22.305v-3.688a3.69 3.69 0 0 1 3.688-3.687h0z" fill="#409979"/><path d="M32.445 34.828a4.61 4.61 0 0 1-4.609-4.609 4.61 4.61 0 0 1 4.609-4.609.92.92 0 0 1 .922.922.92.92 0 0 1-.922.922c-.734 0-1.437.291-1.956.81s-.81 1.222-.81 1.956.291 1.437.81 1.956 1.222.81 1.956.81a.92.92 0 0 1 .922.922.92.92 0 0 1-.922.922z" fill="#d7e6e6"/><path d="M49.961 34.828a4.61 4.61 0 0 1-4.609-4.609 4.61 4.61 0 0 1 4.609-4.609.92.92 0 0 1 .922.922.92.92 0 0 1-.922.922c-.733 0-1.437.291-1.956.81s-.81 1.222-.81 1.956.291 1.437.81 1.956 1.222.81 1.956.81a.92.92 0 0 1 .922.922.92.92 0 0 1-.922.922z" fill="#dbd7e6"/><g fill="#409979"><path d="M39.55 42.473a.92.92 0 0 0-.652-.27.93.93 0 0 0-.353.07.92.92 0 0 0-.299.2l-1.192 1.192-1.192-1.192a.92.92 0 0 0-.652-.27.93.93 0 0 0-.353.07.92.92 0 0 0-.299.2c-.086.086-.154.187-.2.299a.93.93 0 0 0-.07.353.92.92 0 0 0 .07.353c.046.112.114.213.2.299l1.192 1.192-1.192 1.192a.92.92 0 1 0 1.304 1.304l1.192-1.192 1.192 1.192a.92.92 0 1 0 1.304-1.304l-1.192-1.192 1.192-1.192c.086-.086.154-.187.2-.299a.92.92 0 0 0 .07-.353.93.93 0 0 0-.07-.353c-.046-.112-.114-.213-.2-.299zm8.297 0a.92.92 0 0 0-.652-.27.93.93 0 0 0-.353.07.92.92 0 0 0-.299.2l-1.192 1.192-1.192-1.192a.92.92 0 1 0-1.304 1.304l1.192 1.192-1.192 1.192a.92.92 0 1 0 1.304 1.304l1.192-1.192 1.192 1.192a.92.92 0 1 0 1.304-1.304l-1.192-1.192 1.192-1.192a.92.92 0 0 0 0-1.304zm7.105 2.496l1.192-1.192a.92.92 0 0 0 .27-.652.93.93 0 0 0-.07-.353c-.046-.112-.114-.213-.2-.299a.92.92 0 0 0-.299-.2.93.93 0 0 0-.353-.07.92.92 0 0 0-.652.27l-1.192 1.192-1.192-1.192a.92.92 0 0 0-.299-.2.93.93 0 0 0-.353-.07.92.92 0 0 0-.652.27c-.086.086-.154.187-.2.299a.92.92 0 0 0 .2 1.005l1.192 1.192-1.192 1.192a.92.92 0 0 0 0 1.304.92.92 0 0 0 1.304 0l1.192-1.192 1.192 1.192a.92.92 0 0 0 1.304 0 .92.92 0 0 0 .27-.652.93.93 0 0 0-.07-.353.92.92 0 0 0-.2-.299l-1.192-1.192zM31.253 50.77a.92.92 0 0 0-1.304 0l-1.192 1.192-1.192-1.192a.92.92 0 0 0-.299-.2.93.93 0 0 0-.353-.07.92.92 0 0 0-.652.27c-.086.086-.154.187-.2.299a.92.92 0 0 0 0 .706c.046.112.114.213.2.299l1.192 1.192-1.192 1.192a.92.92 0 1 0 1.304 1.304l1.192-1.192 1.192 1.192a.92.92 0 1 0 1.304-1.304l-1.192-1.192 1.192-1.192a.92.92 0 0 0 .27-.652.93.93 0 0 0-.07-.353.92.92 0 0 0-.2-.299h0z"/><path d="M39.55 50.77a.92.92 0 0 0-1.304 0l-1.192 1.192-1.192-1.192a.92.92 0 1 0-1.304 1.304l1.192 1.192-1.192 1.192a.92.92 0 1 0 1.304 1.304l1.192-1.192 1.192 1.192a.92.92 0 1 0 1.304-1.304l-1.192-1.192 1.192-1.192c.086-.086.154-.187.2-.299a.92.92 0 0 0 .07-.353.93.93 0 0 0-.07-.353c-.046-.112-.114-.213-.2-.299h0zm8.297 0a.92.92 0 0 0-1.304 0l-1.192 1.192-1.192-1.192a.92.92 0 1 0-1.304 1.304l1.192 1.192-1.192 1.192a.92.92 0 1 0 1.304 1.304l1.192-1.192 1.192 1.192a.92.92 0 1 0 1.304-1.304l-1.192-1.192 1.192-1.192a.92.92 0 0 0 0-1.304h0zm8.297 0a.92.92 0 0 0-1.304 0l-1.192 1.192-1.192-1.192a.92.92 0 0 0-.299-.2.93.93 0 0 0-.353-.07.92.92 0 0 0-.922.922.92.92 0 0 0 .27.652l1.192 1.192-1.192 1.192a.92.92 0 1 0 1.304 1.304l1.192-1.192 1.192 1.192a.92.92 0 1 0 1.304-1.304l-1.192-1.192 1.192-1.192a.92.92 0 0 0 0-1.304h0zm-24.891 8.297a.92.92 0 0 0-1.304 0l-1.192 1.192-1.192-1.192a.92.92 0 0 0-1.304 0c-.086.086-.154.187-.2.299a.92.92 0 0 0 0 .706c.046.112.114.214.2.299l1.192 1.192-1.192 1.192a.92.92 0 1 0 1.304 1.304l1.192-1.192 1.192 1.192a.92.92 0 0 0 .652.27.93.93 0 0 0 .353-.07.92.92 0 0 0 .499-.499.93.93 0 0 0 .07-.353.92.92 0 0 0-.27-.652l-1.192-1.192 1.192-1.192a.92.92 0 0 0 .2-.299.93.93 0 0 0 .07-.353.92.92 0 0 0-.27-.652h0zm8.297 0a.92.92 0 0 0-1.304 0l-1.192 1.192-1.192-1.192a.92.92 0 1 0-1.304 1.304l1.192 1.192-1.192 1.192a.92.92 0 1 0 1.304 1.304l1.192-1.192 1.192 1.192a.92.92 0 0 0 1.304 0c.086-.086.154-.187.2-.299a.92.92 0 0 0 0-.706c-.046-.112-.114-.213-.2-.299l-1.192-1.192 1.192-1.192c.086-.086.154-.187.2-.299a.93.93 0 0 0 .07-.353.92.92 0 0 0-.07-.353c-.046-.112-.114-.213-.2-.299h0zm8.297 0a.92.92 0 0 0-1.304 0l-1.192 1.192-1.192-1.192a.92.92 0 1 0-1.304 1.304l1.192 1.192-1.192 1.192a.92.92 0 1 0 1.304 1.304l1.192-1.192 1.192 1.192a.92.92 0 0 0 .299.2.93.93 0 0 0 .353.07.92.92 0 0 0 .922-.922.92.92 0 0 0-.27-.652l-1.192-1.192 1.192-1.192a.92.92 0 0 0 0-1.304h0z"/></g><path d="M62.867 47.734H59.18a13.83 13.83 0 0 0-13.828 13.828A13.83 13.83 0 0 0 59.18 75.391h3.688a13.83 13.83 0 0 0 13.828-13.828 13.83 13.83 0 0 0-13.828-13.828z" fill="#f5871e"/><path d="M59.18 75.391a13.83 13.83 0 0 0 13.828-13.828A13.83 13.83 0 0 0 59.18 47.734a13.83 13.83 0 0 0-13.828 13.828A13.83 13.83 0 0 0 59.18 75.391z" fill="#fabe19"/><path d="M47.195 62.023a.46.46 0 0 1-.461-.461A12.46 12.46 0 0 1 59.18 49.117a.46.46 0 0 1 .461.461.46.46 0 0 1-.461.461c-3.055.003-5.984 1.218-8.144 3.379s-3.376 5.089-3.379 8.145a.46.46 0 0 1-.461.461z" fill="#ffdc37"/><path d="M59.18 71.703c5.6 0 10.141-4.54 10.141-10.141S64.78 51.422 59.18 51.422s-10.141 4.54-10.141 10.141 4.54 10.141 10.141 10.141z" fill="#d7e6f0"/><path d="M59.18 67.094a.92.92 0 0 0-.922.922v.922a.92.92 0 1 0 1.844 0v-.922a.92.92 0 0 0-.922-.922zm7.375-6.453h-.922a.92.92 0 1 0 0 1.844h.922a.92.92 0 1 0 0-1.844zm-6.453-1.686v-4.767a.92.92 0 1 0-1.844 0v4.767a2.77 2.77 0 0 0-1.686 1.686h-4.767a.92.92 0 1 0 0 1.844h4.767c.156.44.421.834.77 1.145s.771.527 1.227.631.93.089 1.379-.04.857-.371 1.188-.701a2.75 2.75 0 0 0 .701-1.188c.129-.449.144-.923.04-1.379s-.32-.878-.63-1.227-.704-.614-1.145-.77z" fill="#353744"/><path d="M59.18 62.484a.92.92 0 1 0 0-1.844.92.92 0 1 0 0 1.844z" fill="#faa51e"/><defs ><path id="B" d="M49.961 34.828a.92.92 0 0 1-.922-.922.92.92 0 0 1 .922-.922c.733 0 1.437-.291 1.956-.81s.81-1.222.81-1.956-.291-1.437-.81-1.956-1.222-.81-1.956-.81a.92.92 0 0 1-.922-.922.92.92 0 0 1 .922-.922 4.61 4.61 0 0 1 4.609 4.609 4.61 4.61 0 0 1-4.609 4.609z"/></defs></svg>