<svg width="66" height="60" viewBox="0 0 66 60" fill="none" xmlns="http://www.w3.org/2000/svg">
<path d="M40.1664 41.0794H34.3132C33.5879 41.0794 33 40.68 33 40.1873C33 39.6946 33.5879 39.2953 34.3132 39.2953H40.1664C40.8916 39.2953 41.4796 39.6947 41.4796 40.1873C41.4796 40.6801 40.8916 41.0794 40.1664 41.0794Z" fill="black"/>
<path d="M31.6701 41.0794H25.8044C25.0699 41.0794 24.4745 40.68 24.4745 40.1873C24.4745 39.6946 25.0699 39.2953 25.8044 39.2953H31.6701C32.4046 39.2953 33 39.6947 33 40.1873C33 40.6801 32.4046 41.0794 31.6701 41.0794Z" fill="black"/>
<path d="M18.4304 60C18.3521 60 18.2726 59.9914 18.1932 59.9735C17.6672 59.8548 17.3466 59.3709 17.4772 58.8928L18.6541 54.5828C18.7847 54.1044 19.3166 53.8132 19.843 53.9318C20.369 54.0505 20.6896 54.5344 20.559 55.0125L19.3821 59.3225C19.2711 59.7287 18.8706 60 18.4304 60Z" fill="black"/>
<path d="M47.5696 60C47.1293 60 46.7289 59.7287 46.618 59.3225L45.4411 55.0125C45.3105 54.5344 45.6311 54.0505 46.1571 53.9318C46.683 53.8132 47.2153 54.1044 47.346 54.5828L48.5229 58.8928C48.6535 59.3709 48.3329 59.8548 47.8069 59.9735C47.7275 59.9914 47.648 60 47.5696 60Z" fill="black"/>
<path d="M48.3409 41.0791H44.2148C43.6729 41.0791 43.2336 40.6798 43.2336 40.1871C43.2336 39.6944 43.6729 39.2951 44.2148 39.2951H48.3409C48.8828 39.2951 49.3221 39.6944 49.3221 40.1871C49.3221 40.6798 48.8828 41.0791 48.3409 41.0791Z" fill="black"/>
<path d="M21.7636 41.0791H17.6591C17.1172 41.0791 16.6779 40.6798 16.6779 40.1871C16.6779 39.6944 17.1172 39.2951 17.6591 39.2951H21.7636C22.3055 39.2951 22.7449 39.6944 22.7449 40.1871C22.7449 40.6798 22.3055 41.0791 21.7636 41.0791Z" fill="black"/>
<path d="M35.7398 0.820312V8.58082L35.6468 8.69262C34.8396 8.36191 33.9433 8.17758 33 8.17758C32.0567 8.17758 31.1604 8.36191 30.3532 8.69262L30.2602 8.58082V0.820312C30.2602 0.367266 30.6642 0 31.1626 0H34.8374C35.3358 0 35.7398 0.367266 35.7398 0.820312Z" fill="black"/>
<path d="M31.1631 0H33.7412C33.2423 0 32.8389 0.366797 32.8389 0.820312V8.17969C31.9546 8.19844 31.1141 8.38125 30.3536 8.69297L30.2607 8.58047V0.820312C30.2607 0.366797 30.6642 0 31.1631 0Z" fill="black"/>
<path d="M35.7393 8.17968V8.58046L35.6464 8.69296C35.2172 8.51718 34.7621 8.38242 34.2891 8.2957C34.7054 8.21835 35.136 8.17734 35.5781 8.17734C35.6323 8.17734 35.6851 8.17851 35.7393 8.17968Z" fill="black"/>
<path d="M33 8.17734C33.4421 8.17734 33.8727 8.21835 34.2891 8.2957C33.816 8.38242 33.3609 8.51718 32.9317 8.69296L32.8389 8.58046V8.17968C32.893 8.17851 32.9459 8.17734 33 8.17734Z" fill="black"/>
<path d="M33.0307 42.9704H32.9694C31.8401 42.9704 30.9246 42.1382 30.9246 41.1115V39.2627C30.9246 38.236 31.8401 37.4038 32.9694 37.4038H33.0307C34.16 37.4038 35.0755 38.236 35.0755 39.2627V41.1115C35.0755 42.1382 34.16 42.9704 33.0307 42.9704Z" fill="black"/>
<path d="M19.6434 54.806L19.5695 54.7894C18.2083 54.4821 17.3786 53.2298 17.7166 51.9923L27.9297 14.592C28.2677 13.3545 29.6452 12.6002 31.0065 12.9075L31.0803 12.9241C32.4416 13.2314 33.2712 14.4837 32.9332 15.7212L22.7201 53.1216C22.3823 54.3591 21.0048 55.1132 19.6434 54.806Z" fill="black"/>
<path d="M31.7045 13.1484C31.127 13.4508 30.681 13.9582 30.5082 14.5922L20.295 51.9926C20.0127 53.0262 20.5451 54.0703 21.5222 54.566C20.9743 54.8531 20.3066 54.9562 19.644 54.8062L19.5693 54.7898C18.208 54.4816 17.3791 53.2301 17.7169 51.9926L27.9301 14.5922C28.2678 13.3547 29.6446 12.6 31.0058 12.907L31.0806 12.9246C31.3036 12.975 31.5124 13.05 31.7045 13.1484Z" fill="black"/>
<path d="M46.3566 54.806L46.4305 54.7894C47.7917 54.4821 48.6214 53.2298 48.2834 51.9923L38.0703 14.592C37.7323 13.3545 36.3548 12.6002 34.9935 12.9075L34.9197 12.9241C33.5584 13.2314 32.7288 14.4837 33.0668 15.7212L43.2799 53.1216C43.6178 54.3591 44.9952 55.1132 46.3566 54.806Z" fill="black"/>
<path d="M47.0559 54.566C46.8639 54.6633 46.655 54.7394 46.4307 54.7898L46.356 54.8062C44.9947 55.1133 43.618 54.3586 43.2803 53.1211L33.067 15.7207C32.7293 14.4832 33.5582 13.2316 34.9194 12.9246L34.9942 12.907C35.658 12.757 36.3245 12.8601 36.8736 13.1484C35.8952 13.6418 35.3629 14.6859 35.6452 15.7207L45.8584 53.1211C46.0311 53.7562 46.4784 54.2637 47.0559 54.566Z" fill="black"/>
<path d="M33 18.7229C36.5592 18.7229 39.4445 16.0999 39.4445 12.8643C39.4445 9.6286 36.5592 7.00558 33 7.00558C29.4408 7.00558 26.5555 9.6286 26.5555 12.8643C26.5555 16.0999 29.4408 18.7229 33 18.7229Z" fill="black"/>
<path d="M34.2891 18.6059C33.8727 18.6832 33.4421 18.723 33 18.723C29.4409 18.723 26.556 16.1004 26.556 12.8637C26.556 9.62812 29.4409 7.00546 33 7.00546C33.4421 7.00546 33.8727 7.04531 34.2891 7.12382C31.3474 7.6664 29.1341 10.0301 29.1341 12.8637C29.1341 15.6984 31.3474 18.0621 34.2891 18.6059Z" fill="#DBECFF"/>
<path d="M33 15.0013C34.2983 15.0013 35.3507 14.0445 35.3507 12.8643C35.3507 11.684 34.2983 10.7272 33 10.7272C31.7017 10.7272 30.6493 11.684 30.6493 12.8643C30.6493 14.0445 31.7017 15.0013 33 15.0013Z" fill="black"/>
</svg>
