<svg xmlns="http://www.w3.org/2000/svg" width="100" height="101" fill="none"  xmlns:v="https://vecta.io/nano"><circle cx="50" cy="50" r="44" fill="#def0e2" stroke="#c8e1cc" stroke-width="12"/><g clip-path="url(#A)"><path d="M58.7 58.686c-2.851 0-5.645-.66-8.152-1.904l-3.923 1.579a4.67 4.67 0 0 1-4.966-1.024c-1.301-1.301-1.703-3.253-1.024-4.966l1.579-3.942a18.37 18.37 0 0 1-1.904-8.172c0-2.124.383-4.162 1.043-6.066H31.124A6.13 6.13 0 0 0 25 40.314v18.371a6.13 6.13 0 0 0 6.124 6.124v7.655c0 .593.345 1.139.89 1.387.201.096.421.144.641.144a1.54 1.54 0 0 0 .995-.364l10.286-8.822h14.745a6.13 6.13 0 0 0 6.124-6.124v-1.062c-1.914.67-3.961 1.062-6.105 1.062z" fill="#2196f3"/><path d="M58.681 25.005c-8.439 0-15.309 6.87-15.309 15.31a15.18 15.18 0 0 0 2.22 7.942l-2.105 5.263c-.23.574-.096 1.215.335 1.655a1.57 1.57 0 0 0 1.081.45c.191 0 .383-.038.574-.115l5.272-2.105a15.13 15.13 0 0 0 7.942 2.22c8.439 0 15.31-6.87 15.31-15.309s-6.88-15.31-15.319-15.31z" fill="#ffc107"/><g fill="#fafafa"><path d="M63.274 37.252h-9.186c-.842 0-1.531-.689-1.531-1.531s.689-1.531 1.531-1.531h9.186c.842 0 1.531.689 1.531 1.531s-.689 1.531-1.531 1.531zm-3.062 6.124h-6.124c-.842 0-1.531-.689-1.531-1.531s.689-1.531 1.531-1.531h6.124c.842 0 1.531.689 1.531 1.531s-.689 1.531-1.531 1.531z"/></g></g><defs><clipPath id="A"><path fill="#fff" transform="translate(25 25)" d="M0 0h49v49H0z"/></clipPath></defs></svg>