<svg xmlns="http://www.w3.org/2000/svg" width="100" height="101" fill="none"  xmlns:v="https://vecta.io/nano"><circle cx="50" cy="50" r="44" fill="#def0e2" stroke="#c8e1cc" stroke-width="12"/><g clip-path="url(#A)"><g fill-rule="evenodd"><path d="M23 32.864l21.981 3.051 21.903-3.051v-4.963a1.91 1.91 0 0 0-1.903-1.899H24.9c-1.045 0-1.9.855-1.9 1.899v4.963z" fill="#e6e6e6"/><path d="M53.119 32.864H23v38.129c0 1.047.855 1.902 1.9 1.902h40.081a1.91 1.91 0 0 0 1.903-1.902V32.864H53.119z" fill="#ff4c4f"/><path d="M62.9 32.864h3.984v-4.963a1.91 1.91 0 0 0-.796-1.544c-.314-.222-.696-.355-1.107-.355h-3.983c1.048 0 1.903.855 1.903 1.899v4.963z" fill="#c4cccf"/><path d="M66.088 32.864H62.9v38.129c0 1.047-.855 1.902-1.903 1.902h3.984c.411 0 .793-.133 1.107-.358.48-.346.796-.911.796-1.544V32.864h-.796z" fill="#e35356"/></g><path d="M61.071 30.025h-.021c-.445 0-.806-.361-.806-.805s.361-.805.806-.805h.021c.214 0 .419.085.57.236s.236.356.236.57-.085.419-.236.57-.356.236-.57.236h0z" fill="#8bc34a"/><path d="M57.65 30.025h-.021c-.445 0-.806-.361-.806-.805s.361-.805.806-.805h.021c.214 0 .419.085.57.236s.236.356.237.57-.085.419-.237.57-.356.236-.57.236h0z" fill="#ffd54f"/><path d="M54.229 30.04h-.021c-.445 0-.806-.361-.806-.806s.361-.805.806-.805h.021c.445 0 .806.361.806.805s-.361.806-.806.806z" fill="#f0417b"/><g fill="#dfdfdf"><path d="M46.655 30.04H29.2c-.445 0-.806-.361-.806-.805s.361-.805.806-.805h17.455c.214 0 .419.085.57.236s.236.356.236.57-.085.419-.236.57-.356.236-.57.236h0zM30.073 42.168h1.582a.64.64 0 0 1 .456.189c.057.057.103.123.137.197a.59.59 0 0 1 .052.249.59.59 0 0 1-.185.438c-.124.12-.277.18-.46.18h-2.27c-.201 0-.37-.067-.507-.202s-.207-.302-.207-.502V37.94c0-.189.069-.355.207-.498a.67.67 0 0 1 .499-.215h2.235a.59.59 0 0 1 .438.184c.058.058.104.127.135.203s.046.158.045.24a.67.67 0 0 1-.181.455.6.6 0 0 1-.438.189h-1.548v1.186h1.393a.63.63 0 0 1 .464.189.6.6 0 0 1 .189.438.6.6 0 0 1-.047.24.61.61 0 0 1-.138.202c-.123.123-.279.185-.469.185h-1.384v1.229zm5.971-.911l-1.359 1.899c-.154.223-.347.335-.576.335-.189 0-.355-.066-.498-.197a.62.62 0 0 1-.215-.473c-.001-.167.053-.331.155-.464l1.685-2.26-1.376-1.813a.71.71 0 0 1-.146-.447.66.66 0 0 1 .206-.481.68.68 0 0 1 .498-.206c.229 0 .43.12.602.361l1.023 1.461 1.023-1.461c.166-.241.367-.361.602-.361.184 0 .347.068.49.202a.64.64 0 0 1 .215.486.78.78 0 0 1-.154.447l-1.367 1.813 1.676 2.26c.102.133.156.297.155.464a.65.65 0 0 1-.206.472.79.79 0 0 1-.224.146.69.69 0 0 1-.275.051c-.218 0-.412-.112-.584-.335l-1.35-1.899zm5.147.997l-.232.782a.63.63 0 0 1-.671.481c-.195 0-.358-.066-.49-.198s-.198-.292-.198-.481a.94.94 0 0 1 .06-.343l1.711-4.571c.189-.515.527-.774 1.015-.774.481 0 .817.258 1.006.774l1.685 4.579c.046.126.069.264.069.412s-.069.289-.206.421a.71.71 0 0 1-.482.172c-.315 0-.527-.158-.636-.473l-.249-.782h-2.381zm1.195-3.66L41.587 41l1.565.008-.765-2.414zm5.908.833l-.49 3.411c-.063.442-.295.662-.696.662a.67.67 0 0 1-.507-.206c-.132-.138-.198-.309-.198-.516 0-.063.006-.109.017-.138l.799-4.742c.034-.206.14-.381.318-.524s.381-.215.61-.215c.464 0 .771.232.92.696l.972 3.273.989-3.273c.137-.464.444-.696.92-.696a.93.93 0 0 1 .598.211c.175.14.282.317.322.528l.8 4.742.017.138c0 .212-.066.385-.198.52s-.298.202-.499.202c-.401 0-.636-.22-.705-.662l-.498-3.411-1.032 3.514c-.063.212-.145.358-.245.438s-.257.12-.469.12c-.355 0-.593-.186-.714-.558l-1.032-3.514zm-1.959 7.885H29.52c-.214 0-.419-.085-.57-.236s-.236-.356-.236-.57.085-.419.236-.57.356-.236.57-.236h16.816c.445 0 .806.361.806.805s-.361.805-.806.805h0zm0 4.664H29.52c-.214 0-.419-.085-.57-.236s-.236-.356-.236-.57c0-.445.361-.805.806-.805h16.816c.445 0 .806.361.806.805s-.361.806-.806.806h0z"/></g><path fill-rule="evenodd" d="M30.6 55.492h28.684a1.08 1.08 0 0 1 1.078 1.076v10.455a1.08 1.08 0 0 1-1.078 1.077H30.6a1.08 1.08 0 0 1-1.08-1.077V56.569a1.08 1.08 0 0 1 1.08-1.076z" fill="#eceff1"/><path d="M44.981 60.556H32.559c-.445 0-.806-.36-.806-.805s.361-.806.806-.806h12.421c.106 0 .211.021.308.061s.187.1.261.175.134.164.175.261.061.203.061.308-.021.21-.061.308-.1.187-.175.261-.164.134-.261.174-.203.061-.308.061zm5.035 3.78H32.559c-.214 0-.419-.085-.57-.236s-.236-.356-.236-.57.085-.419.236-.57.356-.236.57-.236h17.456c.445 0 .806.361.806.805s-.361.806-.806.806z" fill="#35505c"/><g fill-rule="evenodd"><path d="M50.174 61.014l-.701 1.597c-.509 1.186.53 2.319 1.823 1.733l1.566-.775-.358-2.283-2.329-.272z" fill="#546e7a"/><path d="M56.723 61.659l-1.24-3.232-3.581-1.358-1.729 3.946 2.687 2.555 3.862-1.911z" fill="#ffd54f"/><path d="M54.72 59.751l-2.951 3.099 1.092.718 3.862-1.911-2.003-1.907z" fill="#e6a235"/><path d="M51.926 62.685l-1.16.704c-.855.293-1.116.189-1.391.142.169.754.977 1.239 1.921.813l1.565-.775-.935-.884z" fill="#35505c"/><path d="M67.934 40.243L51.903 57.068l4.821 4.59 17.506-18.372h.003l-1.107-3.499-3.717-1.091-1.474 1.547z" fill="#8bc34a"/><path d="M54.72 59.751l2.003 1.907 17.506-18.372h.003l-2.007-1.908L54.72 59.751z" fill="#689f38"/><path d="M74.972 37.684c-1.326-1.263-3.445-1.212-4.709.113l-.855.899 4.824 4.59.852-.896a3.34 3.34 0 0 0-.112-4.706h0z" fill="#f0417b"/><path d="M73.761 36.948a3.35 3.35 0 0 1-.488 3.313 2.78 2.78 0 0 1-.192.222l-.855.896 2.007 1.908.852-.896a3.34 3.34 0 0 0-.112-4.706 3.33 3.33 0 0 0-1.211-.737h0z" fill="#a3316e"/></g></g><defs><clipPath id="A"><path fill="#fff" transform="translate(23 23)" d="M0 0h53v53H0z"/></clipPath></defs></svg>