<svg id="Layer_1" enable-background="new 0 0 512 512" height="512" viewBox="0 0 512 512" width="512" xmlns="http://www.w3.org/2000/svg"><g><path d="m120 256c0 74.991 61.009 136 136 136s136-61.009 136-136-61.009-136-136-136-136 61.009-136 136zm136-121c66.72 0 121 54.28 121 121s-54.28 121-121 121-121-54.28-121-121 54.28-121 121-121z"/><path d="m256 255c28.949 0 52.5-23.551 52.5-52.5s-23.551-52.5-52.5-52.5-52.5 23.551-52.5 52.5 23.551 52.5 52.5 52.5zm0-90c20.678 0 37.5 16.822 37.5 37.5s-16.822 37.5-37.5 37.5-37.5-16.822-37.5-37.5 16.822-37.5 37.5-37.5z"/><path d="m167.218 313.92c19.678 30.106 52.867 48.08 88.782 48.08s69.104-17.974 88.782-48.08c.797-1.22 1.222-2.646 1.222-4.104v-2.316c0-20.678-16.822-37.5-37.5-37.5h-105.008c-20.678 0-37.5 16.822-37.5 37.5v2.316c0 1.458.424 2.884 1.222 4.104zm13.778-6.42c0-12.407 10.093-22.5 22.5-22.5h105.009c12.407 0 22.5 10.093 22.5 22.5-17.03 24.789-44.904 39.5-75.005 39.5s-57.975-14.711-75.004-39.5z"/><path d="m246.121 32.542c-1.518-1.418-3.556-2.137-5.628-2.003-54.391 3.689-105.634 27.009-144.289 65.664s-61.975 89.899-65.664 144.29c-.141 2.072.585 4.11 2.003 5.628s3.403 2.379 5.48 2.379h51.977v15h-51.978c-2.077 0-4.062.861-5.48 2.379s-2.144 3.556-2.003 5.628c3.689 54.391 27.009 105.634 65.664 144.289s89.898 61.975 144.289 65.664c2.067.138 4.11-.584 5.628-2.003s2.379-3.403 2.379-5.48v-51.977h15v51.978c0 2.077.861 4.062 2.379 5.48 1.394 1.302 3.226 2.02 5.12 2.02.169 0 .338-.006.508-.017 54.391-3.689 105.634-27.009 144.289-65.664s61.975-89.898 65.664-144.289c.141-2.072-.585-4.11-2.003-5.628s-3.403-2.379-5.48-2.379h-51.976v-15h51.978c2.077 0 4.062-.861 5.48-2.379s2.144-3.556 2.003-5.628c-3.689-54.391-27.009-105.634-65.664-144.289s-89.899-61.976-144.29-65.665c-2.069-.139-4.11.584-5.628 2.003-1.518 1.418-2.379 3.403-2.379 5.48v51.977h-15v-51.978c0-2.077-.861-4.061-2.379-5.48zm24.879 72.458c4.142 0 7.5-3.358 7.5-7.5v-51.298c98.251 10.451 176.847 89.047 187.298 187.298h-51.298c-4.142 0-7.5 3.358-7.5 7.5v30c0 4.142 3.358 7.5 7.5 7.5h51.298c-10.451 98.251-89.047 176.847-187.298 187.298v-51.298c0-4.142-3.358-7.5-7.5-7.5h-30c-4.142 0-7.5 3.358-7.5 7.5v51.298c-98.251-10.451-176.847-89.047-187.298-187.298h51.298c4.142 0 7.5-3.358 7.5-7.5v-30c0-4.142-3.358-7.5-7.5-7.5h-51.298c10.451-98.251 89.047-176.847 187.298-187.298v51.298c0 4.142 3.358 7.5 7.5 7.5z"/><path d="m437.02 74.98c-48.353-48.351-112.64-74.98-181.02-74.98-62.63 0-122.916 22.87-169.754 64.396-3.099 2.748-3.384 7.488-.636 10.587 2.748 3.1 7.488 3.385 10.587.636 44.092-39.09 100.844-60.619 159.803-60.619 132.888 0 241 108.112 241 241s-108.112 241-241 241-241-108.112-241-241c0-58.959 21.529-115.711 60.62-159.803 2.748-3.1 2.463-7.839-.636-10.587-3.1-2.749-7.84-2.463-10.587.636-41.527 46.838-64.397 107.124-64.397 169.754 0 68.38 26.629 132.667 74.98 181.02 48.353 48.351 112.64 74.98 181.02 74.98s132.667-26.629 181.02-74.98c48.351-48.353 74.98-112.64 74.98-181.02s-26.629-132.667-74.98-181.02z"/></g></svg>