<svg xmlns="http://www.w3.org/2000/svg" xmlns:xlink="http://www.w3.org/1999/xlink" viewBox="0 0 3125 2084" fill-rule="evenodd" stroke-linejoin="round" stroke-miterlimit="2" xmlns:v="https://vecta.io/nano"><style><![CDATA[.B{fill:#38363e}.C{fill:#fff}.D{fill:#f68f75}.E{fill:#00aa6e}.F{fill:#e96145}.G{fill:#bfc7dc}.H{fill:#008258}.I{fill:#f0575b}.J{fill:#57575b}.K{fill:#2353a5}.L{fill:#be3251}.M{fill:#d37836}.N{fill:#0e6cb6}.O{fill:#c6ccde}.P{fill:#f8a72e}.Q{fill:#c4cadd}.R{fill:#f9a03e}]]></style><g fill-rule="nonzero"><path d="M2617.073 617.117c-17.296 0-31.313-15.088-31.313-33.704s14.017-33.704 31.313-33.704 31.317 15.088 31.317 33.704-14.021 33.704-31.317 33.704z" fill="#d2d7e2"/><path d="M575.5 401.342c-3.083 0-6.396-.604-9.858-1.942-17.546-12.988-9.908-34.913 6.963-38.017a20.61 20.61 0 0 1 3.7-.338c8.304 0 16.067 5.067 19.013 13.054 4.783 12.975-4.8 27.242-19.817 27.242zm1956.081-78.4c-22.529 0-40.792-18.263-40.792-40.792s18.263-40.792 40.792-40.792 40.792 18.263 40.792 40.792-18.267 40.792-40.792 40.792z" class="O"/><path d="M656.559 381.563c-18.017 0-34.558-11.9-39.663-30.096-6.142-21.917 6.642-44.663 28.558-50.804a41.29 41.29 0 0 1 11.146-1.542c18.013 0 34.554 11.9 39.658 30.096 6.142 21.917-6.642 44.663-28.558 50.804-3.717 1.046-7.463 1.542-11.142 1.542z" fill="#ccd0de"/><path d="M2454.727 244.821a25.1 25.1 0 0 1-25.092-25.096c0-13.858 11.233-25.092 25.092-25.092s25.096 11.233 25.096 25.092a25.1 25.1 0 0 1-25.096 25.096zM1223.68 1520.447c-39.754 0-79.929-.667-120.213-1.958-711.967-22.85-842.055-455.034-726.759-727.93h1.113c-1.421 78.933 18.308 155.196 48.838 214.213 36.875 71.304 168.171 200.388 367.834 320.234v32.638c0 27.175 22.033 49.208 49.208 49.208h102.042c87.996 42.738 185.121 81.85 289.867 113.575l-11.929.021z" class="O"/><path d="M1235.609 1520.426c-104.746-31.725-201.871-70.838-289.867-113.575h1046.109c-215.896 78.946-478.205 112.65-756.242 113.575zm-441.117-195.421c-199.663-119.846-330.959-248.929-367.834-320.234-30.529-59.017-50.258-135.279-48.838-214.213h197.613l9.113-21.213H386.321c39.683-81.879 102.1-147.008 177.225-178.45 83.088-34.771 159.246-49.25 230.946-51.5v785.609z" class="Q"/><path d="M2546.152 653.888c-32.317-38.942-73.817-69.617-124.383-88.863a540.5 540.5 0 0 0-18.938-6.808V430.446c0-23.771-16.867-43.608-39.292-48.196a12.43 12.43 0 0 0-1.2-.233l-.592-.1a15.9 15.9 0 0 0-1.238-.196c-.638-.083-1.267-.171-1.904-.221-.379-.05-.763-.088-1.138-.113h-.063c-.529-.046-1.054-.071-1.596-.096a42.2 42.2 0 0 0-2.183-.05h-577.688c81.704-100.25 167.625-192.7 320.963-192.7 6.008 0 12.171.146 18.392.433l12.363.683c225.267 14.392 407.609 245.809 418.496 464.23z" class="O"/><path d="M2402.831 1122.197v-563.98a540.5 540.5 0 0 1 18.938 6.808c50.567 19.246 92.067 49.921 124.383 88.863a414.35 414.35 0 0 1 .513 20.446c.008 68.138-7.054 131.396-20.563 190.05-18.4 3.604-38.5 12.917-54.675 32.55l-.013.013c-1.088.929-22.067 23.158-26.913 69.846-2.475 23.875 4.925 51.304 16.675 70.792-15.633 28.838-33.267 56.213-52.75 82.113l-5.596 2.5z" class="Q"/><path d="M2393.394 1753.776c0 21.813-342.784 39.492-765.626 39.492s-765.626-17.679-765.626-39.492 342.779-39.496 765.626-39.496 765.626 17.683 765.626 39.496z" class="G"/><g fill="#c1cbd2"><path d="M2125.71 1753.568H1109.697v-44c0-36.642 29.704-66.346 66.346-66.346h883.322c36.642 0 66.346 29.704 66.346 66.346v44z"/><path d="M1430.693 1406.789h368.288v236.434h-368.288z"/></g><path d="M1430.693 1479.389l368.288-29.483.054-43.117-368.288.442-.054 72.158z" class="G"/><path d="M2402.831 430.446v927.197c0 27.175-22.033 49.208-49.204 49.208H843.701c-27.175 0-49.208-22.033-49.208-49.208V430.446c0-27.171 22.033-49.204 49.208-49.204h1509.926a42.2 42.2 0 0 1 2.183.05l1.596.096h.063c.375.025.758.063 1.138.113.638.05 1.267.138 1.904.221a15.9 15.9 0 0 1 1.238.196l.592.1a12.43 12.43 0 0 1 1.2.233c22.425 4.588 39.292 24.425 39.292 48.196z" class="C"/><path d="M1648.655 1340.259c0 18.783-15.229 34.017-34.013 34.017s-34.017-15.233-34.017-34.017 15.229-34.017 34.017-34.017 34.013 15.233 34.013 34.017z" class="G"/><path d="M2339.039 1203.309a13.38 13.38 0 0 1-13.383 13.388H871.672a13.38 13.38 0 0 1-13.388-13.388V458.421a13.38 13.38 0 0 1 13.388-13.388h1453.984a13.38 13.38 0 0 1 13.383 13.388v744.888zm24.5-821.059a12.43 12.43 0 0 0-1.2-.233l-.592-.1a15.9 15.9 0 0 0-1.238-.196l-1.904-.221-1.138-.113h-.063l-1.596-.096a42.2 42.2 0 0 0-2.183-.05H843.701c-27.175 0-49.208 22.033-49.208 49.204v858.63h1608.339v-858.63c0-23.771-16.867-43.608-39.292-48.196z" class="B"/><path d="M2339.039 458.421v744.888a13.38 13.38 0 0 1-13.383 13.388H871.672a13.38 13.38 0 0 1-13.388-13.388V458.421a13.38 13.38 0 0 1 13.388-13.388h1453.984a13.38 13.38 0 0 1 13.383 13.388z" class="G"/><path d="M2339.039 458.421v70.292H858.284v-70.292a13.38 13.38 0 0 1 13.388-13.388h1453.984a13.38 13.38 0 0 1 13.383 13.388z" class="C"/><path d="M2224.348 485.75a11.37 11.37 0 1 1-22.742 0c0-6.275 5.092-11.371 11.371-11.371s11.371 5.096 11.371 11.371z" class="I"/><path d="M2261.198 485.75a11.37 11.37 0 0 1-11.367 11.371c-6.279 0-11.375-5.088-11.375-11.371a11.38 11.38 0 0 1 11.375-11.371c6.275 0 11.367 5.096 11.367 11.371z" class="E"/><path d="M2155.435 497.784H997.73c-5.583 0-10.146-4.567-10.146-10.146v-3.771c0-5.579 4.563-10.142 10.146-10.142h1157.705c5.579 0 10.146 4.563 10.146 10.142v3.771a10.18 10.18 0 0 1-10.146 10.146z" fill="#c0cfe1"/><path d="M911.751 485.75v11.138c0 1.571-1.704 2.554-3.063 1.767L889.4 487.522c-1.363-.788-1.363-2.75 0-3.538l19.288-11.133c1.358-.788 3.063.196 3.063 1.767v11.133zm16.941 0v11.138c0 1.571 1.704 2.554 3.063 1.767l19.288-11.133a2.05 2.05 0 0 0 0-3.538l-19.288-11.133c-1.358-.788-3.063.196-3.063 1.767v11.133z" fill="#0a050b"/><g class="B"><path d="M2276.61 495.338l-.683-.683c-1.067-1.067-1.067-2.792 0-3.858l15.446-15.446c1.067-1.067 2.792-1.067 3.858 0l.683.683c1.067 1.067 1.067 2.792 0 3.858l-15.446 15.446c-1.067 1.067-2.792 1.067-3.858 0z"/><path d="M2295.231 495.338l.683-.683c1.067-1.067 1.067-2.792 0-3.858l-15.446-15.446c-1.067-1.067-2.792-1.067-3.858 0l-.683.683c-1.067 1.067-1.067 2.792 0 3.858l15.446 15.446c1.067 1.067 2.792 1.067 3.858 0z"/></g><path d="M2140.931 1186.726H1052.426c-14.779 0-26.758-11.983-26.758-26.763V572.442c0-14.779 11.979-26.758 26.758-26.758h1088.505c14.779 0 26.758 11.979 26.758 26.758v587.521c0 14.779-11.979 26.763-26.758 26.763z" class="C"/><g class="G"><path d="M1340.705 1017.717h-264.367a12.56 12.56 0 0 1-12.554-12.558V867.772a12.56 12.56 0 0 1 12.554-12.558h264.367a12.56 12.56 0 0 1 12.558 12.558v137.388a12.56 12.56 0 0 1-12.558 12.558zm770.755-271.358h-264.367a12.56 12.56 0 0 1-12.554-12.558V596.409a12.56 12.56 0 0 1 12.554-12.558h264.367a12.56 12.56 0 0 1 12.554 12.558v137.392a12.56 12.56 0 0 1-12.554 12.558zm-764.846-10.571h-276.609c-3.671 0-6.65-2.979-6.65-6.654v-.608c0-3.671 2.979-6.65 6.65-6.65h276.609a6.65 6.65 0 0 1 6.65 6.65v.608a6.65 6.65 0 0 1-6.65 6.654zm0-58.854h-276.609c-3.671 0-6.65-2.979-6.65-6.65v-.608a6.65 6.65 0 0 1 6.65-6.65h276.609a6.65 6.65 0 0 1 6.65 6.65v.608a6.65 6.65 0 0 1-6.65 6.65zm0 117.704h-276.609a6.65 6.65 0 0 1-6.65-6.65v-.608c0-3.671 2.979-6.65 6.65-6.65h276.609a6.65 6.65 0 0 1 6.65 6.65v.608a6.65 6.65 0 0 1-6.65 6.65zm770.754 79.038h-276.184a6.65 6.65 0 0 1-6.646-6.65v-.608c0-3.671 2.979-6.65 6.646-6.65h276.184a6.65 6.65 0 0 1 6.646 6.65v.608c0 3.675-2.975 6.65-6.646 6.65z"/><use xlink:href="#B"/><use xlink:href="#B" y="117.704"/></g><path d="M1025.667 1087.172h1142.022v93.629c0 3.263-2.658 5.921-5.929 5.921H1031.601c-3.275 0-5.933-2.658-5.933-5.921v-93.629z" class="B"/><path d="M2085.81 1124.076v-8.442h10.563v-7.508h-14.317c-2.075 0-3.754 1.679-3.754 3.754v12.196h7.508zm0 15.017h-7.508v12.838c0 2.075 1.679 3.758 3.754 3.758h14.317v-7.513h-10.563v-9.083zm32.542-15.017h7.513v-12.196c0-2.075-1.683-3.754-3.758-3.754h-13.763v7.508h10.008v8.442zm0 15.017v9.083h-10.008v7.513h13.763a3.76 3.76 0 0 0 3.758-3.758v-12.838h-7.513z" class="C"/><path d="M1025.668 1068.455h1142.022v18.721H1025.668z" class="G"/><path d="M1108.634 565.23h12.883v28.225h17.25v9.988h-30.133V565.23zm33.679 0h12.883v38.213h-12.883zm59.942 0l-16.163 38.213h-12.663l-16.163-38.213h13.867l9.117 22.329 9.338-22.329h12.667zm33.021 28.495v9.717h-31.771V565.23h31.063v9.717h-18.4v4.479h16.163v9.279h-16.163v5.021h19.108z" class="B"/><path d="M1087.418 584.03a15.71 15.71 0 0 1-15.713 15.713c-8.675 0-15.708-7.033-15.708-15.713s7.033-15.717 15.708-15.717c8.683 0 15.713 7.038 15.713 15.717zm931.463 420.958c0 7.621-6.183 13.8-13.804 13.8s-13.8-6.179-13.8-13.8 6.179-13.804 13.8-13.804a13.81 13.81 0 0 1 13.804 13.804zm12 34.925h-51.604s5.863-16.396 25.413-16.396l.388.013.392-.013c19.55 0 25.413 16.396 25.413 16.396z" class="I"/><path d="M2078.481 996.634v8.654l-13.908 33.133h-15.404l13.25-30.863h-8.054v6.088h-11.642v-17.013h35.758zm36.646 30.863v10.925h-33.492v-8.658l15.104-13.967c2.871-2.688 3.283-4.3 3.283-5.733 0-2.029-1.371-3.283-4.054-3.283-2.513 0-4.896 1.375-6.154 3.879l-10.625-5.308c3.046-5.733 9.075-9.671 18.088-9.671 9.913 0 16.896 5.133 16.896 13.071 0 4.121-1.075 7.821-7.163 13.313l-5.967 5.433h14.083z" class="B"/><path d="M1907.231 699.721s10.283 33.1 36.075 35.688c20.833 2.083 37.121-19.917 42.629-28.454 1.313-2.042 2.004-3.313 2.004-3.313s1.521-.05 3.754-.396c5.246-.804 14.433-3.183 17.188-10.15 3.929-9.929-15.913-13.571-15.913-13.571s8.513-10.042 5.196-16.017c-3.267-5.871-16.488-5.35-16.488-5.35s12.771-11.075 6.958-18.371c-8.738-10.971-21.429 4.208-22.483 5.096.767-1.179 33.508-50.929 23.075-52.925-9.104-1.746-39.204 38.413-47.246 49.417l-1.996 2.746s-.625-.35-1.708-.867c-5.138-2.488-20.738-8.896-28.863.063-9.813 10.825-2.183 56.404-2.183 56.404z" class="D"/><g class="F"><path d="M1970.814 685.596c-3.921 3.121-7.163 7.063-7.921 10.675-.479 2.333.075 4.388 1.613 5.933 1.063 1.063 2.725 1.9 4.729 2.542 4.988 1.625 12.013 2.088 16.696 2.208 1.321-2.046 2.004-3.313 2.004-3.313s1.529-.046 3.767-.396c-.317-.192-.696-.288-1.083-.275-7.446.167-20.358-.65-23.283-3.592-.375-.388-.788-1.004-.525-2.3.829-3.971 7.25-9.979 13.192-12.354.954-.375 1.467-1.392 1.192-2.375a1.98 1.98 0 0 0-2.233-1.454c-4.883.771-18.463 1.817-22.721-2.458-.621-.625-.542-1.021-.488-1.229.192-.938 1.192-2.033 2.617-3.158 2.913-2.288 7.633-4.683 11.113-6.042.404-.163.721-.421.933-.758a1.96 1.96 0 0 0 .204-1.829c-.4-1.029-1.558-1.538-2.596-1.138-1.554.608-7.021 2.85-11.196 5.913-1.521 1.125-2.875 2.35-3.796 3.65-.592.825-1.013 1.675-1.204 2.546-.25 1.238-.188 3.083 1.575 4.867 3.771 3.775 11.342 4.475 17.413 4.338z"/><path d="M1951.447 656.559c.596.567.792 1.433.475 2.188-1.021 2.404-1.542 4.671-1.3 6.308.204 1.296.792 1.738 1.292 1.971.804.375 2.008.504 3.475.446 3.638-.146 8.883-1.45 13.583-2.946-.208.333-.529.596-.929.758-3.479 1.354-8.2 3.75-11.108 6.038-.479.05-.95.079-1.4.096-1.458.054-2.808-.029-3.942-.296-.504-.125-.954-.275-1.371-.475-1.979-.925-3.204-2.663-3.546-5.008-.363-2.475.292-5.475 1.558-8.475.538-1.275 2.163-1.604 3.167-.65l.046.046z"/><path d="M1915.71 663.226c.421.283 6.95 4.558 14.213 6.913 4.025 1.308 8.283 2.025 11.846 1.142 2.938-.729 5.158-2.425 6.6-5.046 5.1-9.308-1.813-19.571-6.388-24.858l-1.996 2.746s-.625-.35-1.708-.867c3.917 4.338 10.721 13.513 6.583 21.05-.883 1.629-2.208 2.638-4.046 3.092-6.888 1.708-18.867-4.838-22.9-7.5-.917-.617-2.163-.367-2.771.563-.608.913-.35 2.154.567 2.767zm20.462 53.666c.658.208 1.404.079 1.954-.417a2 2 0 0 0 .154-2.821c-3.971-4.433-5.679-9.279-5.088-14.408 1.525-13.15 17.267-24.292 17.425-24.4.904-.633 1.125-1.879.492-2.788a2 2 0 0 0-2.788-.492c-.708.496-17.375 12.304-19.104 27.217-.725 6.317 1.321 12.217 6.083 17.538l.871.571z"/></g><path d="M1686.989 552.834l20.292 51.35 9.25 25.692 9.363 25.513 9.554 25.163 9.875 24.454c3.3 7.954 6.704 15.763 10.079 22.7 1.671 3.438 3.354 6.671 4.775 9.188l.958 1.658.388.667.121.296.208.725.075.854c.121.321.608.763 1.679 1.233 2.125.942 6.7 1.638 12.463 1.363 5.775-.254 12.613-1.417 19.738-3.233a215.98 215.98 0 0 0 22.233-7.071c15.171-5.763 30.713-13.046 46.046-21.192 15.371-8.108 26.663-14.663 41.604-24.021 4.771 22.171 20.471 40.083 43.183 48.621-14.55 13.25-29.783 25.558-45.85 37.267-16.125 11.617-33.025 22.638-51.65 32.342-9.333 4.842-19.058 9.463-29.583 13.404s-21.767 7.417-34.429 9.6c-6.329 1.071-13.029 1.846-20.192 1.95-7.154.104-14.783-.392-22.788-1.929-7.992-1.55-16.371-4.163-24.463-8.183-8.096-3.975-15.804-9.338-22.367-15.504-3.288-3.075-6.313-6.338-9.038-9.688l-1.967-2.5-1.617-2.175c-.554-.75-1-1.4-1.492-2.096l-1.417-2.042c-3.592-5.308-6.525-10.146-9.275-14.875-5.446-9.417-10.096-18.367-14.571-27.283-4.425-8.921-8.529-17.763-12.554-26.575l-11.596-26.408-10.946-26.404-10.388-26.471-9.9-26.596-4.779-13.371-2.325-6.733-2.325-6.883 93.625-32.804z" class="E"/><g class="H"><path d="M1742.235 766.401a2.57 2.57 0 0 0 2.054-1.025c.096-.129 9.858-13.075 18.388-19.171a2.56 2.56 0 0 0 .596-3.571c-.821-1.154-2.425-1.421-3.571-.596-9.179 6.554-19.092 19.708-19.513 20.263-.85 1.133-.617 2.738.513 3.588a2.54 2.54 0 0 0 1.533.513z"/><path d="M1759.647 768.963l.558-.067a2.56 2.56 0 0 0 1.946-3.05c-.025-.108-2.388-11.017-.038-19.229a2.56 2.56 0 0 0-1.758-3.167c-1.358-.388-2.775.4-3.167 1.758-2.708 9.479-.146 21.25-.038 21.746.267 1.196 1.325 2.008 2.496 2.008z"/></g><path d="M1735.872 1042.563c-47.404 27.296-162.033 41.358-236.8 11.654-27.433-10.892-32.238-17.588-30.163-66.838l.254-5.488.733-11.579.438-5.542a676.62 676.62 0 0 1 1.946-20.092l.604-5.296c1.717-14.429 4.438-27.388 6.963-37.404l1.342-5.138c2.65-9.829 4.8-15.733 4.8-15.733 12.058 1.938 24.475 3.083 36.958 3.583l5.296.179c64.663 1.708 130.463-12.938 160.958-20.863l5.113-1.358 12.4-3.517s2.796 4.896 6.725 12.971l2.271 4.788c6.208 13.321 14.133 32.667 18.638 52.829l.171.742 1.354 6.304c3.092 14.633 5.913 29.983 7.829 44.658v.013l.7 5.613c3.738 32.2 4.3 48.125-8.529 55.513z" class="B"/><g class="J"><path d="M1735.872 936.767l-.35-.179c-9.642-5.246-18.129-13.192-25.429-23.733a105.12 105.12 0 0 1-2.904-4.454h-.013c-7.35-11.904-13.358-26.729-17.975-44.392l5.113-1.358c4.546 17.4 10.45 31.904 17.667 43.413a82.29 82.29 0 0 0 2.946 4.45c5.721 8.146 12.204 14.567 19.421 19.208l.171.742 1.354 6.304zm-207.629-51.895c-2.096 18.571-6.229 34.296-12.342 47.083a80.56 80.56 0 0 1-2.529 4.896c-4.992 9.05-11.117 16.421-18.342 22.079-8.85 6.929-17.842 10.058-25.133 11.383l.438-5.542c6.388-1.338 14.058-4.208 21.525-10.088 6.233-4.896 11.571-11.2 16.033-18.879a85.5 85.5 0 0 0 2.617-4.867c6.154-12.363 10.308-27.813 12.438-46.246l5.296.179z"/><path d="M1715.71 876.892a411.45 411.45 0 0 1-11.783 4.979l-4.988 1.983c-24.404 9.525-56.371 19.325-90.871 22.875l-3.971.379c-31.3 2.863-63.158 1.546-89.404-.908l-5.554-.55c-11.079-1.133-21.017-2.438-29.292-3.671l1.342-5.138c8.492 1.25 18.713 2.588 30.117 3.733l5.467.517c26.763 2.429 59.196 3.633 90.758.371 33.658-3.475 64.888-12.979 88.833-22.271h.013l4.946-1.971c4.321-1.738 8.371-3.467 12.117-5.117l2.271 4.788z"/></g><path d="M1789.347 1267.809c-6.921-106.913-22.638-206.033-45.646-286.371l-127.125 59.196c3.938 97.313 23.513 164.717 46 227.175h126.771z" class="B"/><path d="M1683.135 1267.809c-36.892-105.221-43.354-191.3-43.425-192.4a2.65 2.65 0 0 0-2.829-2.446c-1.463.092-2.563 1.367-2.463 2.821.079 1.096 6.525 86.871 43.117 192.025h5.6z" class="J"/><path d="M1591.31 1267.809c7.842-75.946 16.892-169.229 18.033-205.358L1468.91 987.38s-24.738 85.433-8.517 280.429h130.917z" class="B"/><g class="J"><path d="M1578.443 1267.809l23.554-194.496c.2-1.642-.975-3.15-2.629-3.35s-3.15.979-3.346 2.629l-23.642 195.217h6.063zm43.112-222.6a2.66 2.66 0 0 0 2.929 2.321l.021-.004c1.45-.175 2.488-1.496 2.313-2.95l-3.379-30.104-.558-5.338-8.488-94.058-1.025-13.329-5.321.021 1.038 13.425.429 5.4 8.542 93.421 3.5 31.196z"/><path d="M1608.326 1011.959c.883.267 4.838 1.4 9.729 2.054 1.713.233 3.529.404 5.383.458 1.688.05 3.388.004 5.054-.179 3.188-.358 6.183-1.229 8.517-2.933 2.913-2.117 4.492-5.333 4.554-9.283.208-10.421-2.804-52.783-5.071-82.721l-.396-5.383-1-12.846-5.304.225 1.413 18.363 5.063 82.263c-.038 2.329-.796 3.95-2.383 5.108-2.529 1.842-6.725 2.271-11.004 2.05-1.825-.096-3.658-.308-5.383-.571-3.158-.488-5.954-1.175-7.654-1.679a2.65 2.65 0 0 0-3.296 1.779 2.65 2.65 0 0 0 1.779 3.296z"/></g><path d="M1448.326 595.946l202.658-5.221c-6.283-8.804-5.704-92.783-8.513-110.129-2.896-17.896-.663-53.388 2.017-82.371 5.154-55.675-40.029-103.371-95.875-100.633l-2.538.142c-85.192 5.429-91.463 78.421-83.529 122.617 7.229 40.25 12.304 149.942-14.221 175.596z" class="B"/><path d="M1492.31 859.155l16.342 68.525c40.825-3.258 89.125-9.167 125.5-27.971 0 0 48.467 16.3 73.038 8.692l-17.988-49.246H1492.31z" class="C"/><path d="M1732.189 909.88c-47.071-.313-75.338-6.417-101.017-27.442-48.15 50.042-167.113 51.954-167.113 51.954 11.913-38.433 15.788-106.363 15.788-106.363-.95-7.063-1.446-14.396-2.192-21.833-.746-7.429-1.738-14.958-3.671-22.383-11.738-33.888-25.471-58.183-37.683-93.192l-2.413-6.8-1.617-4.429c-4.017-10.95-8.325-21.867-12.85-32.383-19.696-45.892-22.871-97.617 24.5-113.4l10.138-3.296c22.408-7.083 41.079-11.738 46.283-12.988l1.425-.346 108.908 9.025c13.9 1.554 28.625 1.154 37.938 3.208 8.183 1.804 13.142 1.358 21.475 3.821 19.6 5.8 19.046 32.146 25.138 64.896l.3 1.708.125.55a247.93 247.93 0 0 0 3.775 16.521c1.613 6.092 3.4 12.104 5.283 17.971 11.463 35.967 25.288 52.475 22.933 75.108-2.146 20.496-23.054 48.45-28.604 54.413-1.283 1.371-2.042 2.104-2.042 2.104l.046.317a65.41 65.41 0 0 0 .292 2.579c.421 3.454 1.025 7.558 1.792 12.2 1.717 17.313 4.158 32.992 6.933 46.963 1.5 7.529 3.096 14.567 4.75 21.088 9.921 39.471 21.379 60.429 21.379 60.429z" class="E"/><g class="H"><path d="M1710.81 849.451c-13.442 7.138-24.329 11.879-24.329 11.879l-10.042-18.896c9.621-3.446 19.925-8.583 29.621-14.071 2.192 5.863 4.242 11.804 4.75 21.088zm-217-17.734s45.258 19.204 78.738 22.45l-5.113 20.788s-54.863-9.063-76.85-24.696l3.225-18.542zm211.304-70.533a2.54 2.54 0 0 0 1.854-.8c1.229-1.288 29.958-31.942 19.946-59.921-2.783-7.771-6.021-15.621-9.45-23.933-10.4-25.233-22.196-53.829-25.221-90.925-.117-1.413-1.358-2.467-2.763-2.346a2.56 2.56 0 0 0-2.342 2.763c3.092 37.892 15.046 66.883 25.592 92.458 3.404 8.258 6.621 16.054 9.358 23.708 8.95 25.004-18.554 54.379-18.833 54.671a2.56 2.56 0 0 0 .092 3.617c.496.475 1.133.708 1.767.708zM1621.56 651.88c0 3.083-2.5 5.583-5.579 5.583a5.582 5.582 0 1 1 0-11.163c3.079 0 5.579 2.5 5.579 5.579zm8.3 49.446c0 3.083-2.5 5.583-5.583 5.583a5.58 5.58 0 0 1-5.579-5.583c0-3.083 2.5-5.583 5.579-5.583a5.59 5.59 0 0 1 5.583 5.583z"/><use xlink:href="#C"/><path d="M1637.001 803.284a5.58 5.58 0 0 1-11.163 0 5.58 5.58 0 0 1 5.579-5.583c3.083 0 5.583 2.5 5.583 5.583z"/><use xlink:href="#C" x="1.896" y="105.471"/><path d="M1589.793 525.109s21.608-1.954 36.742 2.067l-1.642 56.733-12.908 2.775 10.875 10.7-13.042 38.067s-17.817-63.346-20.025-110.342z"/><path d="M1501.768 516.975l-39.517 10.808 46.4 61.675 34.788-2.775-12.2 26.604 78.579 22.163s-91.004-86.425-98.288-117.667l-9.763-.808z"/></g><path d="M1508.651 521.596s22.696 48.329 101.167 113.854c0 0-4.204-51.542-19.992-106.792 0 0-46.179 16.083-81.175-7.063z" class="C"/><path d="M1620.768 675.913c-25.846 0-78.579-37.017-80.813-38.592-.958-.675-1.188-2.004-.513-2.958s2-1.188 2.958-.513c.538.379 53.863 37.817 78.367 37.817 23.446 0 28.642-25.608 28.692-25.867.221-1.154 1.329-1.913 2.483-1.688a2.13 2.13 0 0 1 1.688 2.488c-.058.292-5.95 29.313-32.863 29.313z" class="H"/><path d="M1589.793 525.109l1.063 13.396c1.983 24.958-15.771 32.042-41.617 18.817-20.417-10.45-37.75-26.063-40.588-35.725l81.142 3.513z" class="D"/><path d="M1552.776 780.067a2.3 2.3 0 0 0 1.996 1.146c.392 0 .783-.092 1.138-.3.379-.217 37.713-21.254 83.296-12.354 23.154 4.521 42.842 4.063 58.129.646l-.333-2.904s.763-.733 2.029-2.096c-14.946 3.796-34.946 4.529-58.942-.15-47.317-9.233-84.892 11.975-86.463 12.879-1.1.633-1.479 2.029-.85 3.133z" class="H"/><path d="M1632.43 358.475s11.475 45.038 4.121 52.892-18.208-9.008-18.208-9.008 5.35-42.071 14.088-43.883z" class="B"/><path d="M1619.78 418.105s11.858-14.008 18.563 0 1.546 42.371-16.5 37.729l-2.063-37.729z" class="F"/><path d="M1609.38 452.967c-6.6 3.075-11.183 9.767-11.183 17.513 0 10.65 8.667 19.317 19.321 19.317s19.313-8.667 19.313-19.317c0-7.654-4.467-14.275-10.933-17.4a19.08 19.08 0 0 0-7.238-1.883c-.463-1.192-.863-2.408-1.371-3.579l.229-.008a22.6 22.6 0 0 1 8.925 1.821c8.188 3.479 13.942 11.608 13.942 21.05 0 12.608-10.258 22.867-22.867 22.867s-22.875-10.258-22.875-22.867c0-8.492 4.658-15.913 11.55-19.858l3.188 2.346z" class="C"/><path d="M1589.826 490.017v38.642s-20.371 33.363-81.175-7.063c11.517-12.863 11.867-37.708 7.213-52.529 0 0 4.45 3.004 11.821 6.283l4.842 2.104c15.2 6.379 38.063 14.054 57.3 12.563z" class="D"/><path d="M1589.826 490.017v18.088c-16.529-3.679-45.513-12.696-62.142-32.754l4.842 2.104c15.2 6.379 38.063 14.054 57.3 12.563z" class="B"/><path d="M1622.86 477.38c-32.467 33.579-104.521-6.5-106.838-7.8l-.054-.038c-.671-3.004-1.267-5.992-1.804-8.938-4.592-24.979-4.875-48.179-2.338-70.225-1.213-23.246 12.625-44.896 34.492-52.867 22.663-8.254 42.979 1.704 55.196 5.471 18.429 5.683 30.021 29.504 30.125 63.442.133 41.654-.725 62.613-8.779 70.954z" class="D"/><g class="B"><path d="M1627.785 367.696c-7.5 1.033-15.213 1.85-23.117 2.467l-4.346-20.746-1.4 21.163c-14.575.983-29.721 1.371-45.246 1.392l-1.929-21.854-4.254 21.842-34.921-.604c-9.404-43.529 37.783-62.5 77.479-53.454 39.696 9.058 37.733 49.796 37.733 49.796z"/><path d="M1542.693 358.471s-14.629 19.5-6.617 37.604 2.438 35.867-1.396 49.096c0 0-8.288-29.15-27.821-34.596s-9.438-58.896 35.833-52.104z"/></g><path d="M1595.01 459.046c4.288.65 7.754-.496 7.967-.571.729-.246 1.113-1.038.867-1.758s-1.033-1.108-1.758-.863c-.067.021-6.783 2.204-12.383-1.883-.617-.45-1.483-.317-1.938.304s-.321 1.483.3 1.938c2.308 1.683 4.738 2.5 6.946 2.833z" class="F"/><path d="M1615.643 437.338s-22.571 7.883-39.542-3.308c0 0 5.958 15.271 20.579 16.717s18.963-13.408 18.963-13.408z" class="C"/><path d="M1579.68 375.563s6.738.667 4.371 6.842-15.883-.633-25.554 10.746c0 0-4.117-14.813 21.183-17.588zm30.53 0s-6.738.667-4.371 6.842 15.883-.633 25.554 10.746c0 0 4.113-14.813-21.183-17.588z" class="B"/><path d="M1561.555 427.025c-7.988 0-14.463-2.55-14.463-5.692s6.475-5.688 14.463-5.688 14.458 2.546 14.458 5.688-6.475 5.692-14.458 5.692z" fill="#ef6a4d"/><path d="M1634.922 426.859l-3.479.167c-7.983 0-14.454-2.55-14.454-5.696 0-3.138 6.471-5.688 14.454-5.688a34.8 34.8 0 0 1 3.138.138l.342 11.079z" class="F"/><path d="M1577.664 406.425c0 4.317-1.954 7.817-4.375 7.817-2.413 0-4.371-3.5-4.371-7.817s1.958-7.817 4.371-7.817c2.421 0 4.375 3.5 4.375 7.817zm42.708 0c0 4.317-1.954 7.817-4.371 7.817s-4.371-3.5-4.371-7.817 1.954-7.817 4.371-7.817 4.371 3.5 4.371 7.817zm-16.75 16.463c2.067 0 3.467-.346 3.583-.375a1.78 1.78 0 0 0 1.125-.883 1.79 1.79 0 0 0 .113-1.425l-6.571-18.825c-.325-.925-1.333-1.417-2.263-1.092s-1.417 1.338-1.092 2.263l5.85 16.763c-1.779.092-4.546-.1-7.275-1.567a1.78 1.78 0 0 0-2.404.721 1.78 1.78 0 0 0 .721 2.408c3.004 1.613 5.992 2.013 8.213 2.013zm-73.554 29.175c-.204.483-5.879 13.65-14.046 17.517l-.013.004-.042-.042a240.83 240.83 0 0 1-1.804-8.938c.304-.05 8.546-1.488 15.904-8.542z" class="B"/><path d="M1522.16 422.084s-17.258-23.183-29.904-4.967c-10.421 15.017 9.2 54.988 30.304 40.388l-.4-35.421z" class="D"/><path d="M1504.276 457.763a19.47 19.47 0 0 0-11.183 17.6c0 10.65 8.671 19.317 19.321 19.317s19.317-8.667 19.317-19.317c0-7.654-4.471-14.275-10.933-17.4a19.18 19.18 0 0 0-7.242-1.883c-.463-1.192-.858-2.408-1.371-3.579l.229-.008a22.69 22.69 0 0 1 8.929 1.817c8.183 3.483 13.938 11.613 13.938 21.054 0 12.608-10.258 22.871-22.867 22.871s-22.871-10.263-22.871-22.871c0-8.492 4.792-16.058 11.683-20.004.988.883 1.992 1.725 3.05 2.404z" class="C"/><g class="B"><path d="M1519.801 450.871l.196-.013a1.77 1.77 0 0 0 1.571-1.954c-2.154-19.721-18.75-26.55-19.454-26.829-.913-.367-1.946.079-2.308.992s.083 1.942.992 2.304c.65.263 15.321 6.383 17.242 23.917.1.913.867 1.583 1.763 1.583z"/><path d="M1503.23 440.105a1.77 1.77 0 0 0 1.117-.396c1.546-1.254 6.225-4.329 9.288-3.542.954.238 1.921-.333 2.163-1.283a1.78 1.78 0 0 0-1.279-2.163c-5.338-1.367-11.704 3.654-12.413 4.229a1.78 1.78 0 0 0-.258 2.5c.35.433.867.654 1.383.654z"/></g><path d="M1385.33 789.067s5.671 12.229-.875 38.975-17.513 43.504-17.513 43.504-27.421-41.629 18.388-82.479z" class="H"/><path d="M1264.347 763.505l.283 4.021.583 3.942.354 1.938.446 1.888c1.183 5.088 2.988 9.613 4.988 13.783 1.021 1.992 2.108 4.033 3.229 5.783l1.721 2.667 1.763 2.458c4.763 6.458 9.779 11.275 14.679 15.421 4.917 4.125 9.783 7.492 14.55 10.546 2.379 1.533 4.754 2.929 7.113 4.292s4.683 2.642 7.008 3.883c4.675 2.433 9.258 4.696 13.846 6.783 9.163 4.188 18.258 7.733 27.325 10.958 9.058 3.213 18.108 6.071 27.133 8.692 9.029 2.663 18.054 5.083 27.088 7.296 9.042 2.229 18.1 4.229 27.192 6.146 3.313.683 7.813 1.125 12.571 1.488 7.263.558 15.129.946 20.283 1.817 1.242-7.492-5.092-13.546-3.838-21.038l4.513-26.283-3.633-7.825a552.78 552.78 0 0 1-16.529-4.229l-.5-.138a511.72 511.72 0 0 1-23.913-7.154c-8.058-2.596-16.038-5.367-23.896-8.313a414.02 414.02 0 0 1-22.971-9.496c-7.438-3.367-14.663-6.921-21.379-10.704-3.346-1.888-6.621-3.808-9.629-5.85-1.496-1.008-2.979-2.013-4.371-3.046a80.05 80.05 0 0 1-3.958-3.138c-1.933-1.6-3.658-3.25-5.063-4.804a27.94 27.94 0 0 1-1.158-1.317l-.058-.071 1.288-1.775 2.313-3.167 3.7-4.996 7.696-10.071 7.958-10.096 16.317-20.225 4.129-5.058 4.183-5.042 5.858-7.079 2.496-3.021 8.4-10.1 8.483-10.067 16.996-20.138 34.238-40.408c14.342-16.929 12.25-42.279-4.671-56.621-16.779-14.225-41.85-12.263-56.263 4.238l-8.933 10.258-8.758 10.238-8.679 10.3-8.638 10.35-17.083 20.863-8.446 10.533-1.117 1.413-7.283 9.188-8.35 10.679-4.15 5.367-1.858 2.45-2.267 2.975-16.392 21.871-8.067 11.213-8.004 11.479c-1.333 1.879-2.658 3.892-3.988 5.896l-4.954 7.488-.25.371-.125.192-.196.308-.821 1.342-1.617 2.704c-.263.438-.525.946-.775 1.442l-.767 1.483c-.504 1-1.013 1.967-1.483 3.017l-1.35 3.271-.642 1.646-.6 1.75-1.092 3.546c-.338 1.217-.604 2.496-.883 3.746-.267 1.271-.533 2.513-.7 3.854l-.475 3.942c-.117 1.329-.158 2.683-.2 4.029l-.021 2.008c-.004.675.046 1.346.071 2.021z" class="D"/><g fill="#0a050b"><path d="M1440.064 813.005s-6.517-6.346-14.517-4.692c0 0-18.896 32.054-9.092 59.542 0 0 4.392 3.963 13.583 3.192 0 0-9.158-33.058 10.025-58.042z"/><path d="M1403.359 840.98c.592 10.533 9.608 18.596 20.142 18.008s18.6-9.608 18.008-20.142-9.608-18.6-20.142-18.008-18.596 9.604-18.008 20.142z"/></g><path d="M1423.234 854.176c7.867-.438 13.904-7.196 13.467-15.058s-7.2-13.908-15.063-13.467-13.904 7.196-13.467 15.058 7.196 13.908 15.063 13.467z" class="C"/><path d="M1456.164 874.497c7.263.558 15.129.95 20.283 1.821 1.242-7.492-5.092-13.546-3.842-21.038l4.513-26.283-3.633-7.825c-5.496-1.317-11.017-2.733-16.525-4.229l-.5-.138c-2.238 12.45-5.758 38.55-.296 57.692z" class="F"/><path d="M1473.964 575.838c3.867 12.513.913 26.146-7.667 36.05-16.1 18.588-46.842 54.492-63.888 77.046l-53.933 71.033s21.667 19.046 36.854 29.1c0 0-37.167 31.413-18.388 82.479 0 0-66.775-36.696-100.579-71.963-24.683-25.75-17.838-57.888 4.713-88.621 11.379-15.508 99.154-115.538 130.325-150.521 11.504-12.917 29.658-18.096 46.013-12.454 10.446 3.608 21.479 11.429 26.55 27.85z" class="E"/><path d="M1457.701 826.313s2.621-15.271 6.575-29.958c3.296-12.25 9.963-16.038 9.963-16.038 1.442 8.333 3.483 13.354 3.767 28.538 0 0 3.696-3.438 10.446-2.079s30.017 6.3 30.317 11.675c.683 12.283-28.471 6.446-28.471 6.446s31.2 5.879 30.413 14.488c-.638 6.963-28.896 8.288-28.896 8.288s27.233.25 23.967 10.025c-3.475 10.388-28.733 3.846-28.733 3.846s18.196 8.733 16.438 12.4c-2.529 5.279-13.313 6.763-30.746 2.513-17.846-4.35-15.038-50.142-15.038-50.142z" class="D"/><g class="H"><path d="M1425.534 666.451a2.41 2.41 0 0 1-1.921-.538c-1.017-.858-1.146-2.379-.292-3.396l40.329-47.871c.858-1.017 2.375-1.146 3.392-.288s1.15 2.375.292 3.396l-40.325 47.867c-.392.467-.921.746-1.475.829z"/><path d="M1469.376 630.967l-15.246 2.338c-1.317.204-2.546-.7-2.746-2.013s.7-2.546 2.017-2.75l15.242-2.338a2.41 2.41 0 0 1 2.746 2.017c.2 1.317-.7 2.546-2.013 2.746zm-164.112 139.371l.967.604c.421.079.863-.013 1.229-.288 11.496-8.546 31.958-9.454 42.092-9.325-.413-.45-.796-.892-1.154-1.317l-.063-.071 1.292-1.775-2.992-.017c-6.35-6.096-23.433-12.004-24.175-12.263-.821-.279-1.713.15-1.992.975s.15 1.708.975 1.988c.154.058 13.163 4.558 20.317 9.425-11.154.488-26.4 2.6-36.171 9.863-.7.517-.846 1.5-.325 2.2z"/></g><path d="M1193.426 1899.643c0 17.883-237.592 32.383-530.671 32.383s-530.675-14.5-530.675-32.383 237.592-32.383 530.675-32.383 530.671 14.496 530.671 32.383z" class="G"/><path d="M740.213 887.651l.658 3.163.492 2.529.879 4.792 1.496 9.208c.896 6.071 1.629 12.038 2.288 17.996 1.292 11.908 2.233 23.729 2.8 35.538a630.83 630.83 0 0 1 .583 35.383 674.41 674.41 0 0 1-1.463 35.308c-.825 11.758-2.038 23.488-3.517 35.2l-2.55 17.517-1.438 8.742-1.608 8.721c-.517 2.908-1.154 5.8-1.754 8.696l-1.854 8.679-4.158 17.275-2.242 8.6-3.329 11.771-.646 2.188c-.608 2.033-1.258 3.792-1.946 5.596-.671 1.679-1.392 3.392-2.1 4.879-.729 1.583-1.442 2.942-2.192 4.367l-1.1 1.979a69.89 69.89 0 0 1-1.108 1.892l-1.113 1.817-1.104 1.692c-.75 1.154-1.463 2.146-2.204 3.208-2.925 4.079-5.775 7.5-8.571 10.617-2.788 3.108-5.517 5.879-8.204 8.463-5.371 5.146-10.579 9.55-15.725 13.65-10.271 8.146-20.308 15.038-30.338 21.463-20.017 12.8-39.875 23.838-59.883 34.204-19.967 10.375-40.038 19.963-60.221 29.129l-30.413 13.346-15.313 6.458-7.729 3.142-7.967 3.188-34.921-78.917 6.775-3.467 6.963-3.613 13.971-7.279 27.763-14.938c18.421-10.063 36.604-20.404 54.317-31.008 8.85-5.308 17.538-10.746 26.046-16.213 8.496-5.475 16.779-11.054 24.621-16.729 7.817-5.663 15.271-11.429 21.633-17.008 3.163-2.775 6.042-5.521 8.325-7.967 2.263-2.404 3.95-4.658 4.296-5.408l.042-.15-.017-.008-.079.079-.108.133-.133.204-.417.733c-.129.271-.363.729-.525 1.154-.238.538-.404 1.038-.654 1.771l-.154.521.008-.058.05-.221.204-.888.404-1.775 1.633-7.092c.533-2.371.983-4.763 1.483-7.138 1.025-4.746 1.825-9.554 2.704-14.333.446-2.392.775-4.808 1.167-7.208l1.088-7.225c1.404-9.642 2.488-19.346 3.396-29.067.829-9.733 1.388-19.496 1.792-29.271.338-9.779.417-19.571.25-29.35a522.36 522.36 0 0 0-1.2-29.271c-.633-9.721-1.513-19.396-2.688-28.913-.588-4.746-1.233-9.475-1.975-14.058l-1.096-6.758-.575-3.158-.442-2.242 108.646-24.258z" class="D"/><path d="M624.1 914.559l-19.846 150.425c29.617 16.592 57.721 28.471 83.525 33.167L624.1 914.559z" class="L"/><g class="F"><path d="M666.213 1147.063c-.425 0-.858-.1-1.258-.321-15.413-8.396-36.621-15.425-36.833-15.496-1.383-.454-2.138-1.946-1.679-3.329s1.942-2.142 3.333-1.683c.888.296 21.875 7.25 37.7 15.875a2.64 2.64 0 0 1 1.058 3.579c-.479.879-1.383 1.375-2.321 1.375z"/><path d="M630.409 1131.888c-1.325 0-2.467-1.004-2.617-2.35a2.64 2.64 0 0 1 2.333-2.917c10.942-1.221 25.317-1.292 25.921-1.296h.013a2.65 2.65 0 0 1 2.642 2.629c.004 1.458-1.175 2.646-2.629 2.65-.146.004-14.704.079-25.367 1.267l-.296.017z"/></g><path d="M345.109 1749.414l-27.35 44.683-52.117-23.067 23.654-48.013 55.813 26.396z" class="D"/><path d="M100.592 1796.418l197.121 87.25c2.646-2.013 5.117-5.438 7.442-9.796 8.608-16.129 15.075-45.092 19.896-63.025l1.613-5.8c.879-2.963 1.688-5.396 2.446-7.108 6.063-13.696-7.1-16.713-7.1-16.713-28.604 10.733-38.208-28.6-55.654-24.817 0 0-7.479 1.558-29.363 8.708-21.875 7.158-52.613 4.667-79.467 4.121-34.663-.721-48.363 7.817-53.704 15.517-4.229 6.1-3.229 11.663-3.229 11.663z" class="R"/><g class="M"><path d="M100.592 1796.418l197.121 87.25c2.646-2.013 5.117-5.438 7.442-9.796l-201.333-89.117c-4.229 6.1-3.229 11.663-3.229 11.663z"/><path d="M277.604 1874.772l5.85 2.588c-2.883-9.263-3.821-21.925 3.379-36.25 9.571-19.058 27.071-27.017 38.217-30.263l1.613-5.8c-11.713 2.817-32.946 10.929-44.421 33.75-6.871 13.683-6.9 26.146-4.638 35.975z"/></g><path d="M235.188 1778.231a3.56 3.56 0 0 0 4.242-1.075c1.2-1.546.921-3.779-.633-4.979l-10.958-8.508c-1.546-1.208-3.779-.925-4.983.625a3.55 3.55 0 0 0 .625 4.983l10.963 8.508.746.446zm16.771-4.834c1.458.642 3.221.238 4.242-1.075 1.204-1.55.925-3.779-.625-4.988l-10.963-8.508c-1.546-1.204-3.783-.917-4.988.633a3.55 3.55 0 0 0 .629 4.983l10.963 8.504.742.45zm-32.255 6.542a3.56 3.56 0 0 0 4.242-1.075c1.2-1.55.921-3.779-.629-4.983l-10.963-8.508a3.55 3.55 0 0 0-4.983.629c-1.204 1.546-.921 3.779.629 4.979l10.958 8.508.746.45zm-15.362 1.429c1.458.646 3.221.242 4.242-1.075 1.204-1.546.925-3.779-.629-4.983l-10.958-8.504c-1.55-1.208-3.783-.925-4.983.625a3.55 3.55 0 0 0 .629 4.983l10.958 8.508.742.446zm-16.242.417c1.458.65 3.221.246 4.242-1.071a3.55 3.55 0 0 0-.629-4.983l-10.958-8.508a3.552 3.552 0 1 0-4.354 5.613l10.958 8.508.742.442zm-16.962-1.017a3.55 3.55 0 0 0 4.242-1.071c1.204-1.55.925-3.783-.629-4.983l-10.958-8.508c-1.55-1.204-3.779-.925-4.988.625a3.56 3.56 0 0 0 .629 4.988l10.963 8.508.742.442z" class="C"/><path d="M467.505 1318.293c18.292-18.004 162.625-58.258 258.45-31.504 10.979 21.133 24.938 74.679-9.392 124.2-125.967 20.588-196.263 62.958-196.263 62.958s-44.667 103.217-71.204 141.104c-26.542 37.879-87.408 158.179-87.408 158.179l-91.692-39.183s147.708-366.734 197.508-415.754z" class="B"/><g class="J"><path d="M371.5 1750.531l-1.013-.204-89.742-37.304a2.64 2.64 0 0 1-1.425-3.45c.558-1.346 2.1-1.979 3.45-1.425l89.742 37.308a2.63 2.63 0 0 1 1.425 3.45c-.421 1.017-1.404 1.625-2.438 1.625z"/><path d="M356.417 1742.989l-.971-.188a2.64 2.64 0 0 1-1.483-3.425c.188-.467 18.967-47.317 62.763-113.783 43.508-66.017 89-177.613 89.454-178.733.55-1.346 2.088-1.996 3.438-1.45s2 2.088 1.454 3.438c-.458 1.125-46.142 113.196-89.938 179.65-43.5 66.021-62.079 112.363-62.263 112.821-.413 1.038-1.404 1.671-2.454 1.671z"/></g><path d="M576.559 1757.285l-6.921 51.938h-56.996l2.2-53.483 61.717 1.546z" class="D"/><path d="M371.992 1899.243h215.571c1.604-2.917 2.475-7.05 2.833-11.975 1.35-18.233-4.463-47.338-7.313-65.683-.346-2.146-.642-4.146-.871-5.954-.4-3.067-.646-5.621-.646-7.496 0-14.971-13.254-12.404-13.254-12.404-21.813 21.388-46.513-10.688-60.933-.167 0 0-6.213 4.45-23.329 19.85-17.104 15.396-46.217 25.558-71 35.929-31.988 13.371-41.058 26.725-42.829 35.925-1.4 7.292 1.771 11.975 1.771 11.975z" class="R"/><g class="M"><path d="M371.992 1899.243h215.571c1.604-2.917 2.475-7.05 2.833-11.975H370.221c-1.4 7.292 1.771 11.975 1.771 11.975z"/><path d="M565.567 1899.243h6.404c-6.392-7.304-12.371-18.508-11.588-34.517 1.042-21.304 13.821-35.663 22.7-43.142-.346-2.146-.642-4.146-.871-5.954-9.575 7.313-25.704 23.329-26.963 48.838-.742 15.296 4.275 26.7 10.317 34.775z"/></g><path d="M487.705 1828.126c1.596 0 3.046-1.075 3.446-2.692.471-1.904-.688-3.833-2.592-4.304l-13.467-3.342a3.55 3.55 0 0 0-4.304 2.588c-.471 1.904.688 3.833 2.592 4.304l13.467 3.342.858.104zm13.383-11.208c1.592 0 3.042-1.079 3.446-2.7a3.55 3.55 0 0 0-2.596-4.3l-13.463-3.346c-1.904-.475-3.829.692-4.304 2.596s.688 3.829 2.592 4.304l13.467 3.342.858.104zm-26.846 19.038a3.55 3.55 0 0 0 3.442-2.696c.475-1.904-.688-3.829-2.592-4.3l-13.467-3.346c-1.9-.475-3.829.688-4.304 2.592s.692 3.833 2.596 4.304l13.463 3.342.863.104zm-13.467 7.525a3.55 3.55 0 0 0 .85-7l-13.463-3.346a3.55 3.55 0 0 0-4.304 2.596c-.475 1.904.688 3.829 2.592 4.304l13.467 3.342.858.104zm-14.683 6.962a3.56 3.56 0 0 0 3.446-2.7c.471-1.904-.688-3.833-2.592-4.304l-13.467-3.342a3.55 3.55 0 0 0-4.304 2.588c-.475 1.908.688 3.833 2.592 4.308l13.467 3.342.858.108zm-15.925 5.933c1.596 0 3.046-1.083 3.446-2.7.475-1.904-.688-3.829-2.592-4.3l-13.467-3.346a3.55 3.55 0 0 0-4.304 2.592c-.471 1.904.688 3.833 2.592 4.304l13.467 3.342.858.108z" class="C"/><path d="M1008.442 1327.676l-.304 2.508-1.283.983c-33.463 25.675-72.5 42.746-112.383 52.45l-4.2.992a349.7 349.7 0 0 1-20.567 4.096c-9.296 1.546-18.596 2.738-27.808 3.529a350.83 350.83 0 0 1-24.288 1.3c-34.483.625-67.213-3.867-94.875-12.683l-3.154-1.033c-7.321-2.446-14.258-5.204-20.754-8.254-1.004-.458-1.996-.921-2.958-1.413-4.042-1.971-7.917-4.092-11.596-6.308.563-13.3.742-29.208.608-46.225l-.033-4.242c-.229-23.671-.971-49.188-1.892-72.55-.063-1.104-.104-2.192-.121-3.3l-1.779-37.346-1.346-22.867-.338-4.813-.238-3.721v-.013l-1.096-13.225-1.954-20.142-2.621-21.642-3.221-21.721-3.779-21.508c-4.638-24.263-9.85-45.083-15.054-63.063l-1.088-3.646c-2.108-7.154-4.208-13.8-6.267-20.033l-1.346-4.067c-11.567-34.379-21.167-55.125-21.325-69.05-.333-28.954 20.829-38.254 42.904-49.921l3.113-1.65c3.721-2.008 7.45-4.117 11.063-6.417 1.525-.95 3.042-1.95 4.513-3.017 1.025-.721 2.017-1.454 2.979-2.163 8.767-6.738 16.429-15.221 21.404-27.204l83.475-17.592s8.004 4.108 21.363 7.713c1.267.342 2.55.675 3.917.992l4.913 1.063c1.054.221 2.15.421 3.271.608.833.158 1.713.313 2.6.438 7.992 1.254 17.254 2.05 27.704 1.838l3.183-.092 2.267-.096c7.083-.354 13.846.546 20.321 2.633h.008c1.242.388 2.475.825 3.688 1.329 27.121 10.842 48.438 43.246 62.263 93.021l12.471 44.804 3.25 11.763 8.229 30.275.846 3.183.013.025.45 1.671 1.513 5.817c9.233 35.642 16.967 69.963 21.908 104.588 1.025 7.2 1.942 14.417 2.725 21.667l.617 5.913.133 1.213.242 2.308.117 1.179 5.013 54.521c3.888 46.671 7.333 102.188 4.588 126.596z" class="I"/><g class="L"><path d="M754.459 869.413c33.354-7.029 51.342-48.725 52.104-50.533.513-1.213-.054-2.613-1.267-3.125s-2.608.05-3.125 1.267c-.183.425-18.475 42.871-50.608 48.079-31.621 5.146-44.217-18.138-44.738-19.129-.608-1.163-2.033-1.625-3.217-1.008-1.163.608-1.621 2.042-1.017 3.208.142.275 14.625 27.35 49.738 21.642.713-.117 1.429-.254 2.129-.4zm33.808 443.496c31.342-6.604 63.717-22.692 96.075-47.988 44.404-34.713 73.579-74.967 73.867-75.371a2.38 2.38 0 0 0-.546-3.325c-1.067-.775-2.563-.525-3.325.542-.288.396-29.129 40.175-73.021 74.467-40.267 31.45-101.838 64.608-166.517 43.942-1.254-.4-2.596.292-2.996 1.55-.404 1.25.288 2.596 1.546 2.992 23.871 7.629 49.046 8.642 74.917 3.192zm-18.754-23.916l.042-.008c48.8-11.108 75.017-84.779 76.113-87.913a2.38 2.38 0 0 0-1.467-3.033c-1.238-.438-2.6.217-3.038 1.463-.258.742-26.45 74.308-72.667 84.833-1.288.292-2.088 1.567-1.8 2.85.292 1.271 1.546 2.071 2.817 1.808zm-90.133-116.496c6.05-4.15 11.75-9.35 16.233-15.204 10.875-14.188 12.338-28.679 4.108-40.829l-4.6-6.717c-16.783-24.496-18.538-27.05-17.067-67.338.467-12.675-3.117-22.65-10.608-29.6-5.05-4.688-11.217-7.421-17.121-8.988l1.092 3.65c4.904 1.521 9.829 3.913 13.875 7.675 6.783 6.304 10.013 15.442 9.588 27.15-1.517 41.325.667 44.5 17.629 69.254l4.567 6.708c9.992 14.713 1.792 29.558-3.996 37.096-3.863 5.042-8.733 9.625-13.946 13.404v.017l.246 3.721zm319.462-25.938c-6.488 3.771-12.796 6.175-18.804 7.438-16.213 3.417-30.233-1.483-39.279-10.571-10.788-10.875-14.988-29.563-2.121-44.229 12.433-14.196 7.083-21.758.325-31.342-6.654-9.429-14.95-21.163-6.329-41.771 4.95-11.888 12.588-19.996 22.667-24.071 5.046-2.054 10.175-2.892 14.979-3.017l.846 3.183c-4.708.054-9.754.796-14.654 2.792-9.254 3.75-16.296 11.283-20.913 22.342-7.942 18.983-.846 29.013 6.004 38.717 6.971 9.863 13.55 19.2-.533 35.267-10.371 11.838-9.567 28.233 1.988 39.883 11.679 11.763 32.454 15.817 55.467 1.892l.242 2.308.117 1.179zm-200.258-40.683c22.313-21.613 15.017-38.813 7.308-57.013-7.313-17.283-14.875-35.15-1.788-60.663l.821-1.596c2.5-4.704 6.296-8.163 10.783-10.083 4.004-1.717 8.533-2.204 13.183-1.254 9.825 2.021 16.696 9.788 17.521 19.796.938 11.242 4.254 23.554 9.946 36.842 4.508 10.525 10.492 21.629 17.929 33.304 10.613 16.667 12.592 34.133 5.896 51.946-9.808 26.063-37.45 48.004-58.5 54.15-14.563 4.242-30.433-1.796-37.738-14.375-8.588-14.767-3.108-33.838 14.638-51.054zm-17.396 52.65c8.042 13.821 25.438 20.467 41.388 15.821 2.425-.713 4.946-1.617 7.504-2.713 20.45-8.758 44.058-29.367 53.088-53.367 6.963-18.517 4.821-37.454-6.2-54.758-16.325-25.604-25.792-49.367-27.383-68.717-.942-11.446-8.813-20.338-20.042-22.642-11.275-2.3-22.042 2.779-27.417 12.971l-.858 1.629c-13.746 26.838-5.542 46.242 1.704 63.363 7.596 17.904 14.138 33.383-6.596 53.475-18.871 18.3-24.563 38.833-15.188 54.938zM642.713 979.73l1.342 4.058c11.113 4.45 21.363 4.275 29.563 2.546 4.154-.875 7.783-2.163 10.733-3.433 20.363-8.792 34.2-27.65 33.858-39.067-.125-4.296-2.279-7.417-6.063-8.796-21.9-7.983-30.85-22.463-34.167-55.338-.904-8.925-4.458-15.846-10.567-20.608l-3.117 1.65.788.567c5.613 4.196 8.892 10.492 9.725 18.7 3.471 34.358 12.958 49.538 36.246 58.021 2.592.946 3.888 2.867 3.971 5.888.304 10.388-13.292 28.008-31.938 36.067-8.688 3.746-23.617 7.463-40.375-.254zm118.525-64.383c4.421-8.779 12.538-15.071 21.671-16.996a27.88 27.88 0 0 1 3.246-.492c8.654-.817 14.792 2.246 18.213 9.067 4.15 8.292-.575 12.633-7.108 18.642-7.238 6.679-16.25 14.963-11.775 31.346 3.379 12.417.204 22.725-8.5 27.529-6.546 3.642-14.638 2.954-18.808-1.575-14.6-15.842-5.871-49.825 3.063-67.521zm-5.408 69.671c3.921 4.263 10.271 5.846 16.542 4.529 2.083-.442 4.163-1.221 6.142-2.304 10.088-5.588 13.842-17.233 10.025-31.171-3.95-14.508 3.592-21.446 10.875-28.163 6.396-5.883 13.013-11.971 7.792-22.392-4.013-8.013-11.4-11.754-21.346-10.829-11.692 1.113-21.946 8.283-27.458 19.225-9.325 18.458-18.263 54.096-2.571 71.104z"/><path d="M712.238 1055.713a36.02 36.02 0 0 1 9.179-19.617c4.866-5.3 11.246-9.079 18.392-10.588a33.74 33.74 0 0 1 3.938-.583c9.142-.804 14.867 2.05 17.479 8.763 3.629 9.267-3.075 16.317-10.179 23.792-8.833 9.292-18.85 19.838-7.942 35.658 7.213 10.475 9.021 18.983 4.95 23.329-4.546 4.892-15.429 3.758-26.488-2.754-10.167-5.979-13.479-26.575-9.329-58zm-3.292 42.071c1.775 8.421 5.163 15.242 11.008 18.679 8.754 5.142 17.346 7.129 23.663 5.8 2.742-.579 5.054-1.779 6.779-3.621 5.154-5.538 3.463-15.504-4.683-27.325-9.438-13.692-1.15-22.413 7.629-31.654 7.475-7.863 15.204-15.992 10.863-27.121-3.129-7.988-10.3-11.708-20.75-10.775-17.546 1.571-32.013 15.654-34.375 33.525-1.829 13.854-2.771 29.963-.133 42.492zm-25.987 143.042c12.788-4.629 17.079 1.779 23.313 11.063 5.567 8.304 12.488 18.625 28.046 22.288 5.283 1.242 10.379 1.208 15.158.2 12.538-2.642 22.771-11.996 27.692-22.504 6.629-14.125 3.704-28.233-7.654-36.804-4.946-3.725-7.558-7.254-8.025-10.775-.667-5.017 3.092-9.854 7.083-14.967 5.538-7.117 11.821-15.183 7.017-25.479-3.779-8.146-10.908-12.983-20.071-13.65-15.25-1.108-32.333 9.2-43.546 26.254-9.571 14.579-21.7 20.954-30.917 23.725l.179 3.246c9.888-2.829 23.083-9.529 33.379-25.217 8.508-12.929 20.446-21.75 32.133-24.213 2.879-.604 5.738-.833 8.546-.629 7.954.583 14.138 4.771 17.425 11.817 3.975 8.538-1.192 15.171-6.654 22.188-4.225 5.408-8.571 11.004-7.738 17.329.588 4.425 3.625 8.646 9.271 12.917 12.054 9.092 11.367 22.958 6.704 32.908-6.258 13.333-21.746 24.667-39.254 20.558-14.342-3.367-20.608-12.721-26.142-20.946-6.213-9.275-11.646-17.392-26.075-12.613l.129 3.304zm165.133-39.133c-.071-1.192-.813-15.042 6.871-22.917 3.971-4.054 9.6-5.892 16.725-5.458 17.467 1.05 25.383-5.108 33.758-11.633 5.463-4.238 11.1-8.625 19.942-11.563 11.125-3.658 19.529 3.229 22.638 11.188 3.508 8.933 1.279 21.267-11.833 27.213-12.663 5.754-22.317 4.379-30.817 3.146-4.908-.704-9.429-1.346-13.758-.433-3.608.758-7.083 2.617-10.5 6.475-8.025 9.096-18.729 14.067-26.017 12.108-3.704-1.004-6.133-3.808-7.008-8.125zm-3.138.533c1.083 5.538 4.4 9.325 9.317 10.663 2.633.708 5.563.713 8.642.063 6.879-1.45 14.408-6.125 20.6-13.133 6.325-7.167 12.658-6.263 21.408-5 8.492 1.217 19.071 2.742 32.583-3.383 15.008-6.821 17.517-21 13.496-31.288-3.654-9.308-13.525-17.367-26.621-13.029-9.358 3.092-15.471 7.858-20.892 12.054-8.238 6.421-15.346 11.946-31.604 10.967-8.1-.488-14.567 1.675-19.204 6.438-9.008 9.225-7.804 24.817-7.75 25.475l.025.175zm139.488 76.658c-10.933 18.071-6.317 38.208 4.492 47.242 5.208 4.346 11.375 6.017 17.917 5.05.438-.321.854-.65 1.288-.992l.313-2.517c-6.396 1.558-12.413.246-17.479-3.988-9.767-8.167-13.863-26.542-3.808-43.142 10.2-16.842 2.167-22.038-6.342-27.558-7.813-5.067-15.904-10.3-14.683-25.408.604-7.458 3.617-13.454 8.983-17.821 4.675-3.813 10.617-6.008 16.467-7.242 4.342-.913 8.613-1.296 12.275-1.433l-.267-3.192c-9.05.317-21.654 2.192-30.488 9.396-6.063 4.938-9.471 11.667-10.146 20.033-1.375 17.008 8.333 23.288 16.129 28.342 8.396 5.442 13.946 9.038 5.35 23.229zm-264.854 100.925l3.163 1.042c.117-4.921 1.304-15.471 8.579-22.533 6.067-5.896 15.15-8.213 26.979-6.921 15.708 1.746 22.833 8.258 29.104 14.025 10.55 9.671 17.858 14.254 45.367-3.729 10.471-6.854 20.163-10.829 28.625-12.613 13.679-2.883 24.188-.058 29.688 5.604 6.767 6.979 6.421 17.992-.813 29.929l4.208-.996c6.538-12.254 6.225-23.608-1.1-31.154-9.796-10.075-33.475-12.317-62.342 6.554-26.796 17.525-32.317 12.454-41.479 4.063-6.304-5.792-14.163-12.992-30.9-14.842-12.842-1.404-22.788 1.221-29.571 7.821-7.688 7.483-9.267 18.042-9.508 23.75zm186.709-65.8c10.913-7.45 9.346-12.096 5.896-19.054-2.354-4.771-5.292-10.7-3.979-20.663.696-5.263 2.996-9.242 6.829-11.854 9.371-6.367 25.071-2.975 26.708-2.588 11.421 5.292 15.75 16.442 14.933 38.388-.554 14.729-5.863 33.575-28.054 39.863-11.029 3.104-23.754-3.3-27.304-10.888-2.275-4.867-.558-9.438 4.971-13.204zm-7.858 14.542c3.996 8.554 17.167 15.592 29.458 13.004a18.84 18.84 0 0 0 1.588-.404c18.758-5.3 29.55-20.496 30.379-42.783.642-17.233-.958-34.171-16.933-41.483l-.279-.088c-.733-.188-18.396-4.475-29.396 3.013-4.621 3.133-7.375 7.871-8.188 14.058-1.45 10.933 1.863 17.629 4.271 22.5 2.988 6.004 4.346 8.738-4.829 15.013-6.796 4.633-9 10.9-6.071 17.171zm-202.568 41.592l2.946 1.413c6.675-7.808 9.425-16.283 8.121-25.175-2.083-14.433-14.146-26.483-22.083-33.004l.033 4.254c7.438 6.525 17.163 17.117 18.908 29.2 1.167 8.075-1.413 15.804-7.65 22.996l-.275.317z"/></g><path d="M634.496 676.784s-47.304-9.988-48.396-28.033c-1.013-16.675 18.671-14.904 18.671-14.904s-22.975-37.65-9.792-45.058 29.771 13.7 29.771 13.7-12.05-44.65 4.046-41.446 18.163 27.746 18.163 27.746 53.458-19.042 83.85-9.904c20.692 6.221 25.575 26.146 25.575 26.146s12.304-7.342 21.046-2.813c8.713 4.508.75 19.846.75 19.846s13.483 10.388 9.354 26.867c-4.125 16.488-15.921 49.079-15.921 49.079l-137.117-21.225z" class="B"/><path d="M701.242 808.046l4.579 21.733a68.99 68.99 0 0 0 8.825 3.767c42.508 14.713 77.304-21.917 77.304-21.917l-15.875-75.346-74.833 71.763z" class="D"/><path d="M701.242 808.046l4.579 21.733a68.99 68.99 0 0 0 8.825 3.767c29.45-19.488 45.729-58.125 45.729-58.125l-50.213 24.067-8.921 8.558zm-41.833-175.97s-51.467 16.008-20.933 66.942c0 0 25.171-52.842 20.933-66.942z" class="B"/><path d="M653.792 717.467s-15.413-11.979-19.317 4.071 7.679 44.433 25.446 35.646l-6.129-39.717z" class="F"/><path d="M651.401 771.376s9.4 44.942 56.113 34.992c46.425-9.871 70.388-53.013 71.679-55.05l.042-.054-13.275-85.608s-4.008-48.417-50.646-47.575c-34.075.617-63.642 12.525-75.538 32.875-4.379 7.508-6.358 16.163-5.279 25.829l16.904 94.592z" class="D"/><path d="M746.705 698.009s-6.883 27.604-22.092 26.321-32.1.442-43.821 9.233c0 0-23.554-3.513-34.679 8.208-7.458 7.858 10.075 66.442 42.629 68.55 32.546 2.113 71.667-17.4 75.55-48.492s-1.95-55.621-1.95-55.621l-15.638-8.2z" class="B"/><path d="M671.205 746.721s26.283-2.696 39.179-10.063c0 0 5.767 25.671-16.463 27.875-17.85 1.771-22.717-17.813-22.717-17.813z" class="C"/><path d="M705.134 717.076c.692 3.275 7.983 4.504 16.296 2.754s14.488-5.821 13.8-9.092-7.988-4.504-16.296-2.754-14.488 5.821-13.8 9.092zm-60.096 18.67a37.93 37.93 0 0 0 3.663-.592c8.304-1.75 14.479-5.821 13.792-9.092s-7.988-4.504-16.288-2.754a36.08 36.08 0 0 0-3.242.833l2.075 11.604z" class="F"/><path d="M701.83 698.971c.946 4.492 3.75 7.704 6.267 7.175s3.783-4.604 2.838-9.096-3.754-7.704-6.267-7.175-3.783 4.604-2.838 9.096zm-44.446 9.367c.946 4.492 3.75 7.704 6.263 7.171 2.513-.525 3.783-4.6 2.838-9.092s-3.754-7.704-6.267-7.175-3.783 4.6-2.833 9.096zm27.617 17.8a1.89 1.89 0 0 0 1.458-2.238 1.89 1.89 0 0 0-2.238-1.458c-6.8 1.429-10.725-1.479-12.117-2.821l8.308-33.783a1.88 1.88 0 0 0-1.388-2.279c-1.013-.25-2.033.375-2.279 1.388l-8.55 34.742c-.138.554-.021 1.138.321 1.592.221.296 5.529 7.163 16.483 4.858zm34.979-52.525c-2.029-4.525-7.858-12.6-23.167-10.079-1.867.308-3.275 1.879-3.392 3.771-.146 2.371 1.767 4.388 4.146 4.313 4.175-.129 10.475.833 15.192 6.7 1.475 1.829 4.238 1.933 5.933.308l.396-.379c1.254-1.196 1.596-3.05.892-4.633zm-77.725 16.375c.029-4.954 2.104-14.696 17.129-18.567 1.833-.475 3.754.396 4.621 2.079 1.092 2.113.158 4.729-2.05 5.621-3.871 1.567-9.246 4.992-11.196 12.258-.613 2.271-3.096 3.479-5.308 2.679l-.513-.188a4.09 4.09 0 0 1-2.683-3.883zm118.471 46.183c.317.45 9.121 12.925 18.471 15.146l.033-.054-1.479-9.55s-7.646.296-17.025-5.542z" class="B"/><path d="M762.38 703.234s12.879-27.913 30.033-11.725c14.138 13.338 2.217 58.379-22.192 48.95l-7.842-37.225z" class="D"/><g class="B"><path d="M771.146 732.676a1.89 1.89 0 0 0 1.488-2.033c-1.85-18.683 12.108-28.271 12.7-28.675.867-.575 1.1-1.75.521-2.617s-1.746-1.104-2.613-.521c-.675.446-16.446 11.192-14.367 32.183.104 1.038 1.029 1.796 2.067 1.696l.204-.033z"/><path d="M786.034 717.838a1.88 1.88 0 0 0 1.292-.988 1.89 1.89 0 0 0-.813-2.542c-.867-.446-8.592-4.271-13.846-1.679-.938.463-1.321 1.592-.858 2.529s1.596 1.321 2.529.858c3.017-1.488 8.692.75 10.442 1.65a1.9 1.9 0 0 0 1.254.171zM639.78 650.955c.663 1.508 1.621 2.729 2.892 3.596 11.088 7.613 31.833-.292 50.425-10.625 18.596-10.325 35.6 1.158 35.6 1.158-1.513 20.204 17.538 17.8 16.588 33.063-.954 15.279 4.596 33.996 4.596 33.996l11.346-4c1.088-7.304 5.633-12.871 8.842-15.992l-4.113-26.496s-4.004-48.417-50.646-47.575c-34.071.617-63.638 12.525-75.529 32.875zm348.108 637.284s44.488 175.546-186.208 175.546c-123.221 0-181.783-11.896-181.783-11.896s-2.967 108.808-8.696 154.704-26.046 160.267-26.046 160.267l-97.05 7.517s-15.504-398.321 43.975-435 144.996-37.771 291.829-51.863c0 0 131.829-22.313 163.979.725z"/></g><g class="J"><path d="M571.871 1735.047l-.617-.071c-1.421-.342-2.296-1.767-1.954-3.188 13.404-56.025 18.733-136.296 23.013-200.792 4.225-63.583 6.733-97.029 13.354-102.879 7.275-6.433 28.879-4.133 64.679-.329 44.358 4.717 111.392 11.846 183.667 3.558 35.896-4.117 63.417-18.179 81.796-41.792 32.967-42.358 25.4-101.817 25.321-102.413-.196-1.442.817-2.775 2.263-2.967a2.63 2.63 0 0 1 2.967 2.258c.342 2.521 7.967 62.192-26.358 106.329-19.283 24.796-48.013 39.542-85.383 43.829-72.858 8.35-140.242 1.188-184.829-3.554-30.783-3.271-55.092-5.858-60.629-.963-1.25 1.1-3.733 6.563-6.304 30.696-1.9 17.813-3.463 41.338-5.271 68.575-4.296 64.692-9.642 145.208-23.15 201.675a2.64 2.64 0 0 1-2.563 2.025z"/><path d="M489.163 1742.964a2.64 2.64 0 0 1-2.633-2.479c-.088-1.454 1.021-2.704 2.475-2.796l99.246-5.979c1.475-.1 2.704 1.021 2.792 2.471a2.64 2.64 0 0 1-2.475 2.796l-99.404 5.988z"/></g><g fill="#1f69d9"><path d="M756.142 1338.484H465.43a1.2 1.2 0 0 1-1.196-1.196v-35.804a1.2 1.2 0 0 1 1.196-1.196h290.713a1.2 1.2 0 0 1 1.196 1.196v35.804a1.2 1.2 0 0 1-1.196 1.196z"/><path d="M433.642 1338.484a24.36 24.36 0 0 1-23.533-18.071l-54.817-205.279c-3.35-12.546 6.108-24.858 19.092-24.858h131.233c8.854 0 16.629 5.892 19.025 14.417l65.671 233.792H433.642z"/></g><path d="M524.65 1104.697l65.125 231.863h14.996l-65.125-231.863c-2.413-8.529-10.175-14.429-19.029-14.429h-15c8.858 0 16.621 5.9 19.033 14.429zm-37.075 113.008c2.983 12.896-5.05 23.346-17.938 23.346-12.896 0-25.763-10.45-28.746-23.346-2.983-12.888 5.05-23.338 17.942-23.338s25.758 10.45 28.742 23.338z" class="G"/><g class="D"><path d="M666.584 1254.839s-59.488 4.1-78.508 22.283l11.563 41.171s35.579-14.542 45.433-13.133 15.738 17.596 48.692 7.742l-27.179-58.063z"/><path d="M666.896 1252.139l6.708-2.733 6.967-2.925 13.95-6.063c9.283-4.125 18.517-8.392 27.663-12.788 18.283-8.796 36.238-18.108 53.558-28.013 17.296-9.908 34.021-20.425 49.304-31.671 3.804-2.817 7.533-5.663 11.129-8.558 3.583-2.9 7.05-5.833 10.367-8.796 6.554-5.933 12.558-12.017 17.233-17.921 2.329-2.921 4.413-5.867 5.954-8.467 1.388-2.371 2.692-5.013 3.867-7.95 2.338-5.879 4.175-12.85 5.421-20.471 2.463-15.342 2.554-33.038.954-51.171-1.583-18.171-4.771-36.9-9.013-55.558a530.29 530.29 0 0 0-7.154-27.892l-4.125-13.725-2.183-6.688-1.1-3.225-.542-1.533-.375-1.017-.058-.117c-12.546-26.175-1.496-57.567 24.679-70.117s57.571-1.496 70.117 24.679a52.97 52.97 0 0 1 2.988 7.729l2.008 6.913.329 1.175.604 2.242 1.129 4.329 2.079 8.488 3.721 16.808c2.313 11.192 4.329 22.413 6.033 33.746 3.396 22.667 5.65 45.717 5.946 69.546.15 11.904-.229 24.021-1.342 36.392-1.138 12.363-3.029 24.996-6.158 37.908-3.183 12.904-7.608 26.138-14.225 39.288-3.313 6.567-7.217 13.088-11.763 19.388-4.4 6.067-8.904 11.333-13.538 16.279-9.254 9.846-18.808 17.988-28.429 25.454-9.638 7.396-19.367 14.008-29.154 20.146-19.583 12.246-39.392 22.65-59.342 32.192-19.958 9.517-40.067 18.092-60.325 26.05-10.133 3.967-20.304 7.779-30.542 11.442l-15.425 5.375-7.792 2.604-8.117 2.617c-17.638 5.688-36.542-4-42.229-21.633-5.417-16.792 3.1-34.729 19.146-41.325l1.075-.433z"/></g><g class="F"><path d="M910.33 1139.151l-.6-.092c-20.292-6.088-42.95-5.146-43.179-5.138-1.154.046-2.121-.838-2.175-1.988s.838-2.121 1.983-2.175c.954-.042 23.579-.988 44.571 5.308 1.1.329 1.725 1.496 1.396 2.592a2.09 2.09 0 0 1-1.996 1.492z"/><path d="M871.68 1133.859a2.06 2.06 0 0 1-1.575-.721 2.08 2.08 0 0 1 .213-2.938c7.567-6.554 17.083-9.413 17.483-9.533a2.08 2.08 0 1 1 1.183 3.996c-.088.025-9.075 2.738-15.942 8.688-.392.342-.879.508-1.363.508z"/></g><path d="M984.501 1006.48l-118.042 32.375-2.958-13.583-.667-3.25-6.917-31.917-.708-3.208-13.042-60.208c-3.542-13.917-5.875-31.333-3.917-45.542 2.875-21.042 21.333-48.333 55.375-50.167 6.083-.333 11.792.583 17.125 2.542 1.083.333 2.167.792 3.208 1.25 10.292 4.667 19.208 13.25 26.875 24.292.625.875 1.208 1.75 1.75 2.667 14.583 22.167 24.542 53.167 31.208 82.167.292 1.125.542 2.25.792 3.375 3.083 13.792 5.417 27.083 7.167 38.583.292 1.792.542 3.542.75 5.25.833 5.708 1.5 10.875 2 15.375z" class="I"/><g class="L"><path d="M981.751 985.855c-5.125-4.667-12.042-7.917-22.708-6-12.667 2.25-22.625-1.833-26.625-10.958-3.042-6.833-1.625-14.833 3.25-18.583 9.75-7.5 24.708-6.875 38.917-3.042l-.792-3.375c-14.583-3.708-29.833-3.958-40.083 3.875-4.583 3.542-6.708 9.708-5.958 16.083.25 2.125.833 4.25 1.708 6.333 4.667 10.542 15.958 15.333 30.167 12.792 11.458-2.083 17.792 2.375 22.875 8.125a131.52 131.52 0 0 0-.75-5.25zm-45.042-94.292c-8.833-12.792-2.208-21.25 5.875-29.833a36.71 36.71 0 0 0-1.75-2.667c-8.542 8.958-17.167 19.25-6.75 34.333 7.208 10.458 9 18.958 4.958 23.333-4.542 4.875-15.458 3.75-26.5-2.75-10.167-6-13.458-26.583-9.333-58 1-7.542 4.333-14.333 9.167-19.625.5-.542 1.042-1.083 1.583-1.583-1.042-.458-2.125-.917-3.208-1.25a39.11 39.11 0 0 0-10.708 22c-1.792 13.875-2.75 30-.125 42.5 1.792 8.417 5.167 15.25 11 18.708 8.75 5.125 17.375 7.125 23.667 5.792 2.75-.583 5.083-1.792 6.792-3.625 5.167-5.542 3.458-15.5-4.667-27.333zm-80.717 95.729c-7.075-42.104-16.033-81.546-16.129-81.971-.192-.842-1.033-1.375-1.875-1.179a1.57 1.57 0 0 0-1.179 1.875c.096.421 8.996 39.617 16.05 81.529.467 1.658 3.133 1.746 3.133-.254z"/><path d="M844.584 936.463l-.842-.246-16.263-10.417a1.57 1.57 0 0 1-.471-2.163 1.56 1.56 0 0 1 2.163-.475l16.258 10.417c.729.467.942 1.438.475 2.163-.3.467-.804.721-1.321.721z"/></g><path d="M739.271 940.972c-5.5 0-10.546-2-15.046-5.963-25.692-22.638-25.588-104.867-25.567-108.358a2.99 2.99 0 0 1 2.988-2.975h.017a2.99 2.99 0 0 1 2.971 3.004c0 .825-.117 82.996 23.546 103.846 4.042 3.558 8.438 4.967 13.429 4.308 31.608-4.167 46.004-96.204 48.888-131.317.138-1.646 1.575-2.871 3.225-2.738a2.99 2.99 0 0 1 2.733 3.225c-.025.325-2.746 32.763-10.463 65.438-10.604 44.908-25.275 68.904-43.604 71.321a24.07 24.07 0 0 1-3.117.208z" class="C"/><path d="M978.117 1709.218H666.546c-7.288 0-13.2-5.913-13.2-13.2s5.913-13.196 13.2-13.196h311.571c7.288 0 13.2 5.908 13.2 13.196s-5.913 13.2-13.2 13.2z" class="K"/><g class="N"><path d="M637.88 1910.764c-.583 0-1.175-.033-1.767-.117a13.2 13.2 0 0 1-11.333-14.833l56.754-423.767c.879-6.55 6.471-11.446 13.083-11.446h254.2c6.621 0 12.221 4.908 13.088 11.475l55.871 423.767c.95 7.225-4.133 13.854-11.358 14.808s-13.858-4.133-14.813-11.363l-54.358-412.292H706.167l-55.225 412.321c-.888 6.629-6.554 11.446-13.063 11.446z"/><path d="M768.242 1473.801h165.096c52.304 0 108.313-28.625 116.342-80.308 10.742-69.108 13.396-136.042 10.4-197.463-3.392-69.463-30.375-133.942-84.983-177.008 0 0 23.575 267.913 2.304 341.934-28.417 98.9-209.159 112.846-209.159 112.846zM263 922.076v79.254c0 10.475 8.5 18.975 18.975 18.975H425.88l43.446 15.588c4.463 1.604 8.733-2.783 7.021-7.196l-16.433-42.442v-64.179c0-10.475-8.5-18.979-18.988-18.979h-158.95c-10.475 0-18.975 8.504-18.975 18.979z"/></g><path d="M388.017 963.955c0 7.583 6.142 13.729 13.725 13.729a13.73 13.73 0 0 0 13.729-13.729 13.73 13.73 0 0 0-13.729-13.725 13.73 13.73 0 0 0-13.725 13.725zm-43.454 0a13.73 13.73 0 0 0 13.725 13.729c7.583 0 13.725-6.146 13.725-13.729s-6.142-13.725-13.725-13.725a13.73 13.73 0 0 0-13.725 13.725zm-43.454 0a13.73 13.73 0 0 0 13.725 13.729 13.73 13.73 0 0 0 13.729-13.729 13.73 13.73 0 0 0-13.729-13.725 13.73 13.73 0 0 0-13.725 13.725z" class="K"/><path d="M2797.056 610.6c0 61.208-50.246 110.829-112.225 110.829s-112.225-49.621-112.225-110.829 50.246-110.829 112.225-110.829 112.225 49.621 112.225 110.829z" class="G"/><path d="M2797.056 596.171c0 61.208-50.246 110.829-112.225 110.829s-112.225-49.621-112.225-110.829 50.246-110.825 112.225-110.825 112.225 49.617 112.225 110.825z" class="E"/><path d="M2684.831 686.271c-50.304 0-91.229-40.417-91.229-90.1s40.925-90.1 91.229-90.1 91.233 40.421 91.233 90.1-40.929 90.1-91.233 90.1z" class="C"/><path d="M2776.065 596.175l-.283 7.117c-3.688-46.367-43.075-82.988-90.95-82.988s-87.258 36.621-90.95 82.988a91.19 91.19 0 0 1-.279-7.117c0-49.688 40.921-90.1 91.229-90.1s91.233 40.413 91.233 90.1z" class="G"/><path d="M2684.835 605.546c-.708 0-1.392-.321-1.833-.908l-44.758-59.508a2.23 2.23 0 0 1 .475-3.15c1.008-.746 2.442-.538 3.192.463l43.671 58.063 49.633-21.508a2.29 2.29 0 0 1 3.004 1.158c.508 1.138-.017 2.467-1.171 2.971l-51.296 22.229-.917.192z" class="B"/><use xlink:href="#D" class="N"/><path d="M395.409 664.476H377.08c-2.683 0-4.863-2.175-4.863-4.858v-2.042c0-2.683 2.179-4.863 4.863-4.863h18.329c2.683 0 4.858 2.179 4.858 4.863v2.042a4.86 4.86 0 0 1-4.858 4.858zM366.1 586.559h40.288v6.638H366.1zm0 13.875h40.288v6.638H366.1zm0 102.4h40.288v6.633H366.1zm0 13.875h40.288v6.633H366.1z" class="K"/><path d="M324.571 744.505h-37.804a1.24 1.24 0 0 1-1.242-1.238V573.925a1.24 1.24 0 0 1 1.242-1.242h37.804a1.24 1.24 0 0 1 1.242 1.242v169.342a1.24 1.24 0 0 1-1.242 1.238z" class="E"/><path d="M314.834 664.476h-18.329a4.86 4.86 0 0 1-4.858-4.858v-2.042c0-2.683 2.175-4.863 4.858-4.863h18.329c2.683 0 4.863 2.179 4.863 4.863v2.042c0 2.683-2.179 4.858-4.863 4.858zm-29.309-77.917h40.288v6.638h-40.288zm0 13.875h40.288v6.638h-40.288zm0 102.4h40.288v6.633h-40.288zm0 13.875h40.288v6.633h-40.288z" class="H"/><use xlink:href="#D" x="-40.287" class="I"/><path d="M355.121 664.476h-18.329c-2.683 0-4.863-2.175-4.863-4.858v-2.042c0-2.683 2.179-4.863 4.863-4.863h18.329c2.683 0 4.863 2.179 4.863 4.863v2.042c0 2.683-2.179 4.858-4.863 4.858zm-29.308-77.917H366.1v6.638h-40.288zm0 13.875H366.1v6.638h-40.288zm0 102.4H366.1v6.633h-40.288zm0 13.875H366.1v6.633h-40.288z" class="L"/><path d="M471.813 738.438l-37.325 6.021a1.24 1.24 0 0 1-1.417-1.029l-26.958-167.183c-.104-.675.354-1.313 1.029-1.421l37.325-6.021c.679-.104 1.313.354 1.421 1.029l26.954 167.183a1.24 1.24 0 0 1-1.029 1.421z" class="R"/><path d="M453.196 660.38l-25.563 4.121a1.08 1.08 0 0 1-1.238-.896l-1.529-9.479a1.08 1.08 0 0 1 .896-1.238l25.563-4.125c.588-.096 1.142.308 1.238.896l1.529 9.479c.096.592-.308 1.146-.896 1.242zm-4.237-71.521l-39.775 6.413-1.058-6.55 39.775-6.413 1.058 6.55zm2.204 13.7l-39.771 6.408-1.058-6.55 39.775-6.413 1.054 6.554zm16.3 101.092l-39.775 6.413-1.054-6.55 39.775-6.413 1.054 6.55zm2.208 13.695l-39.775 6.413-1.054-6.55 39.771-6.413 1.058 6.55z" class="M"/><path d="M376.709 790.559H210.542l-7.996-21.213h176.167c-.408 6.167-.688 12.333-.838 18.475l-1.167 2.738z" class="O"/><path d="M377.875 787.821c.15-6.142.429-12.308.838-18.475h7.608a458.37 458.37 0 0 0-8.446 18.475z" class="Q"/><g fill="#c0c8db"><path d="M377.821 790.559h-1.113l1.167-2.738-.054 2.738z"/><path d="M575.434 790.559H377.821l.054-2.738a458.37 458.37 0 0 1 8.446-18.475h198.225l-9.113 21.213z"/></g><g class="B"><path d="M202.546 744.138h382v25.208h-382z"/><path d="M241.471 769.346l10.213 21.404h24.067l6.854-21.404h-41.133zm304.15 0l-10.213 21.404h-24.071l-6.85-21.404h41.133z"/></g><path d="M2922.298 1899.643c0 17.883-246.329 32.383-550.192 32.383s-550.192-14.5-550.192-32.383 246.329-32.383 550.192-32.383 550.192 14.496 550.192 32.383z" class="G"/><path d="M2587.79 1914.777c-171.896-6.033-349.688-29.479-441.717-346.229-27.354-94.158-9.563-165.467 20.463-219.196 7.425-13.271 15.588-25.471 24.004-36.679l.008-.008c3.171-4.221 6.375-8.308 9.6-12.25 67.158-82.358 179.804-111.904 279.646-75.5 55.996 20.408 127.829 50.592 191.875 89.838 128.683 78.858 158.867 168.771 200.908 323.013 3.613 13.242 7.217 28.096 9.954 43.863 1.475 8.438 2.692 17.121 3.521 25.975 9.317 98.621-28.725 216.654-298.263 207.175z" class="B"/><path d="M2886.052 1707.601a202.57 202.57 0 0 1-24.671 47.871c-32.513 46.575-100.196 102.846-238.054 106.483l-17.967.233c-52.671 0-99.125-6.35-141.571-19.321-44.396-13.558-83.167-34.021-118.508-62.542-59.058-47.65-107.733-117.358-157.792-226.013-19.779-42.917-30.025-86.421-30.479-129.283a282.05 282.05 0 0 1 9.525-75.679c7.425-13.271 15.592-25.471 24.004-36.679a281.41 281.41 0 0 0-6.163 15.45c-18.013 49.388-30.408 127.946 12.796 221.721 87.867 190.717 189.763 307.634 425.875 301.45 133.404-3.508 198.488-57.363 229.579-101.929 16.238-23.267 25.429-46.804 29.904-67.738 1.475 8.438 2.692 17.125 3.521 25.975z" class="J"/><path d="M2640.156 1123.059s107.925 146.429 132.55 219.354-35.138 124.75-35.138 124.75l-55.483 20.817s-57.033-257.538-41.929-364.921z" class="K"/><path d="M2630.644 1533.205c-47.175 15.642-162.404 56.633-212.479 40.033-2.108-.704-4.1-1.5-5.975-2.421-5.454-2.646-9.842-6.242-12.908-10.9-19.629-29.896-39.096-155.238-30.35-228.934 1.092-9.2 1.621-19.204 1.804-29.692.258-15.45-.254-31.983-.913-48.629-2.467-62.588-12.329-105.804 14.442-121.004 24.033-13.654 54.442-24.329 73.829-28.963 12.013-2.879 31.671-8.888 45.446-8.613l59.683 10.846s51.504 8.592 63.392 17.367c11.883 8.763 17.958 47.383 39.429 82.763s26.133 70.858 5.629 109.696c-17.842 33.779-14.696 20.967-17.033 76.392-2.871 67.904 68.104 111.538-23.996 142.058z" class="C"/><path d="M2473.489 1275.209l-1.275-60.2s30.3-7.838 75.879-7.838c21.013 0 45.267 1.667 71.308 6.529l1.992 57.05s-30.642-3.408-67.525-3.408c-26.596 0-56.433 1.771-80.379 7.867zm73.026-108.387c-.867 0-1.754-.021-2.663-.071-35.338-1.821-67.729-33.013-69.092-34.338-.958-.933-.975-2.463-.046-3.425.475-.483 1.104-.729 1.733-.729a2.43 2.43 0 0 1 1.692.688c.321.313 32.463 31.246 65.958 32.971a48.83 48.83 0 0 0 2.438.063c29.867 0 33.538-30.242 33.688-31.563a2.42 2.42 0 0 1 2.4-2.154 2.65 2.65 0 0 1 .267.013 2.42 2.42 0 0 1 2.146 2.663c-.042.367-4.275 35.883-38.521 35.883zm-98.659 286.071a2.5 2.5 0 0 1-1.504-.5l-.654-.713a2.52 2.52 0 0 1 .854-3.463c45.954-27.813 90.042-37.629 118.933-40.963 11.879-1.371 22.158-1.804 30.392-1.804 13.513 0 21.513 1.163 22.038 1.242 1.379.208 2.325 1.488 2.117 2.863-.183 1.25-1.258 2.15-2.483 2.15a2.31 2.31 0 0 1-.375-.029c-.129-.017-8.058-1.163-21.446-1.163-8.121 0-18.246.421-29.854 1.771-28.35 3.292-71.608 12.946-116.713 40.246a2.52 2.52 0 0 1-1.304.363z" fill="#c9d0e1"/><path d="M2506.419 1555.901c-42.471-13.446-80.867-40.542-107.096-64.683l-5.996-5.671c-13.583-13.192-23.163-6.408-27.317-14.017-15.871-29.054-6.863-143.013 0-184.863 6.858-41.842-22.017-118.517-6.475-145.933 15.529-27.425 69.071-36.983 69.071-36.983s-7.575-8.833 6.8-18.942c14.383-10.104 52.638-5.917 52.638-5.917 1.813 181.125 27.475 349.371 18.375 477.009z" class="N"/><path d="M2464.673 1503.98c-1.146 0-2.154-.838-2.333-2.008-19.325-125.638-.217-361.946-.021-364.321.104-1.304 1.246-2.267 2.55-2.167 1.304.108 2.275 1.254 2.171 2.554-.196 2.371-19.263 238.129-.021 363.213.196 1.296-.688 2.504-1.983 2.704l-.363.025z" class="C"/><path d="M2503.535 1522.83a2.37 2.37 0 0 1-2.329-1.958c-25.271-144.313-27.283-393.284-27.304-395.779-.008-1.308 1.046-2.379 2.35-2.383h.017c1.304 0 2.363 1.046 2.371 2.35.017 2.496 2.029 251.075 27.233 394.996.225 1.288-.642 2.513-1.925 2.742l-.413.033zm-41.941-399.192l-.613-.079c-20.008-5.333-32.263-17.142-32.771-17.642-.933-.913-.95-2.413-.042-3.346a2.37 2.37 0 0 1 3.35-.042c.113.113 11.921 11.458 30.679 16.454a2.37 2.37 0 0 1 1.683 2.896c-.288 1.058-1.242 1.758-2.288 1.758z" class="K"/><path d="M2690.365 1476.83s-15.142 50.971-71.475 75.246c-6.979-138.158-22.854-295.942-43.3-463.792 0 0 21.529-3.783 30.513 8.525 3.871 5.3 4.704 14.283 4.704 14.283s11 2.129 23.058 7.746c12.054 5.608 10.671 13.325 13.554 32.9 2.875 19.567 33.108 49.875 42.946 90.921 9.85 41.033-16.242 67.213-24.383 101.646s24.383 132.525 24.383 132.525z" class="N"/><path d="M2642.01 1498.21a2.37 2.37 0 0 1-2.371-2.3c-5.442-187.963-39.775-355.909-40.121-357.584-.263-1.283.558-2.533 1.842-2.796 1.275-.271 2.529.554 2.796 1.838.35 1.675 34.758 170.013 40.221 358.404.038 1.304-.992 2.396-2.3 2.438h-.067z" class="C"/><path d="M2590.152 1128.847c-1.133 0-2.133-.813-2.329-1.967-.221-1.292.646-2.513 1.933-2.733.163-.029 15.313-2.771 18.792-13.767.396-1.246 1.725-1.938 2.975-1.546s1.938 1.725 1.542 2.971c-4.358 13.775-21.771 16.883-22.513 17.008l-.4.033zm46.338 369.363c-1.183 0-2.204-.883-2.346-2.088l-43.263-362.259c-.154-1.296.775-2.475 2.071-2.633a2.37 2.37 0 0 1 2.633 2.071l43.258 362.254c.158 1.296-.771 2.479-2.067 2.638l-.288.017z" class="K"/><path d="M2496.539 1597.71c7.183 5.163 18.558 10.529 35.575 15.942 96.658 30.758 185.283-18.888 185.283-18.888 5.363-26.471 2.05-56.554-6.871-67.563 2.804-3.913.95-8.588.95-8.588l88.954-92.346c-50.583 41.925-113.158 55.642-161.871 85.079h-.025l-35.908 21.146c-14.108 7.925-32.121 8.7-49.775 6.271-34.404-4.758-67.404-21.708-67.404-21.708s-110.779-50.213-131.554-48.533c-16.15 1.292 70.758 92.033 142.646 129.188z" class="E"/><path d="M2667.752 1675.101s-28.513-8.192-37.271-17.45l-19.813 46.65 67.45 21.05s.938-40.979-10.367-50.25z" class="D"/><path d="M2830.54 1809.914l-87.196-193.542c-3.267-.258-7.329.625-11.896 2.296-16.917 6.167-40.696 23.154-56.017 33.138l-4.992 3.192c-2.592 1.596-4.788 2.846-6.471 3.604-13.442 6.058-6.358 13.313-6.358 13.313 25.067 12.538 9.8 49.692 25.079 58.388 0 0 6.513 3.771 27.258 12.913 20.746 9.129 41.642 31.158 60.975 49.208 24.942 23.317 40.604 26.054 49.583 23.925 7.108-1.692 10.033-6.433 10.033-6.433z" class="P"/><g class="M"><path d="M2830.54 1809.914l-87.196-193.542c-3.267-.258-7.329.625-11.896 2.296l89.058 197.679c7.108-1.692 10.033-6.433 10.033-6.433z"/><path d="M2752.24 1636.118l-2.592-5.75c-3.971 8.692-11.608 18.588-26.304 24.367-19.542 7.683-37.604 2.013-47.913-2.929l-4.992 3.192c10.438 5.633 31.338 13.638 54.75 4.45 14.033-5.521 22.246-14.638 27.05-23.329z"/></g><path d="M2719.89 1734.789c-.646-1.433-2.204-2.296-3.817-2.004-1.9.35-3.163 2.171-2.817 4.071l2.446 13.442c.342 1.9 2.167 3.158 4.071 2.813a3.49 3.49 0 0 0 2.813-4.063l-2.442-13.446-.254-.813zm-15.48-7.479c-.646-1.433-2.2-2.296-3.817-2-1.9.346-3.163 2.163-2.817 4.063l2.446 13.446a3.5 3.5 0 0 0 4.071 2.817c1.9-.35 3.163-2.167 2.813-4.071l-2.446-13.442-.25-.813zm27.951 16.404a3.5 3.5 0 0 0-3.817-2.004c-1.896.346-3.158 2.171-2.813 4.071l2.446 13.438c.342 1.904 2.167 3.163 4.067 2.817a3.5 3.5 0 0 0 2.817-4.067l-2.446-13.442-.254-.813zm12.204 9.042c-.642-1.425-2.2-2.292-3.817-2a3.5 3.5 0 0 0-2.813 4.071l2.446 13.442a3.5 3.5 0 0 0 4.067 2.817 3.5 3.5 0 0 0 2.813-4.071l-2.446-13.442-.25-.817zm12.187 10.37c-.646-1.429-2.204-2.296-3.813-2.004-1.9.346-3.163 2.171-2.817 4.071l2.446 13.442a3.5 3.5 0 0 0 4.067 2.817 3.5 3.5 0 0 0 2.813-4.067l-2.446-13.446-.25-.813zm11.771 11.896c-.646-1.433-2.2-2.296-3.817-2a3.5 3.5 0 0 0-2.817 4.067l2.446 13.442c.342 1.904 2.167 3.163 4.071 2.817s3.158-2.167 2.813-4.067l-2.446-13.442-.25-.817z" class="C"/><path d="M2353.894 1468.522s-70.113-37.838-110.725-8.592c-74.263 53.483 51.75 156.371 195.9 206.617s190.954 43.388 190.954 43.388 31.317-8.617 20.204-59.375c0 0-83.092-31.592-126.325-64.683s-72.704-73.642-170.008-117.354z" class="E"/><g class="H"><path d="M2644.623 1665.322c-30.233-7.267-91.842-35.525-164.8-75.592-54.571-29.967-117.5-68.263-126.738-81.546-4.988-7.171-6.246-13.042-3.738-17.438 3.754-6.588 14.567-7.267 19.492-7.221 1.275.013 2.267 1.092 2.179 2.358-.088 1.146-1.038 2.038-2.196 2.029-4.846-.033-13.271.796-15.671 5.004-1.988 3.496.825 8.871 3.533 12.767 7.446 10.713 60.121 44.442 125.246 80.204 56.079 30.796 128.538 66.713 163.717 75.171l-1.025 4.263z"/><path d="M2638.931 1643.818c-3.404 26.679-10.321 50.933-25.392 69.529 0 0 12.9 9.296 24.688 2.625 9.008-5.088 26.371-46.758 19.754-69.008-7.533-4.113-14.033-5.546-19.05-3.146z"/></g><path d="M2455.994 1669.826s28.663-5.533 36.775-15.354l22.888 45.221-65.892 25.508s-4.429-45.371 6.229-55.375z" class="D"/><path d="M2303.331 1819.76l74.075-198.938c3.238-.479 7.35.138 12.025 1.5 17.288 5.021 42.146 20.383 58.1 29.317 1.858 1.058 3.604 2.017 5.196 2.85 2.692 1.421 4.963 2.525 6.692 3.167 13.825 5.15 8.067 9.033 8.067 9.033-27.233 12.783-7.288 54.063-21.954 63.754 0 0-6.242 4.204-26.333 14.708-20.083 10.496-39.471 33.871-57.55 53.175-23.329 24.925-38.775 28.708-47.875 27.179-7.204-1.217-10.442-5.746-10.442-5.746z" class="P"/><g class="M"><path d="M2303.331 1819.76l74.075-198.938c3.238-.479 7.35.138 12.025 1.5l-75.658 203.183c-7.204-1.217-10.442-5.746-10.442-5.746z"/><path d="M2369.848 1641.118l2.204-5.904c4.538 8.404 12.825 17.767 27.871 22.55 20.013 6.358 37.654-.5 47.608-6.125 1.858 1.058 3.604 2.017 5.196 2.85-10.038 6.321-30.358 15.704-54.333 8.1-14.367-4.571-23.175-13.121-28.546-21.471z"/></g><path d="M2408.714 1737.41c.55-1.475 2.05-2.438 3.675-2.254 1.921.221 3.3 1.954 3.083 3.875l-1.546 13.571a3.49 3.49 0 0 1-3.867 3.083 3.5 3.5 0 0 1-3.083-3.871l1.546-13.575.192-.829zm14.946-8.496c.55-1.475 2.046-2.438 3.675-2.254a3.5 3.5 0 0 1 3.079 3.871l-1.542 13.575c-.213 1.917-1.946 3.3-3.867 3.083a3.5 3.5 0 0 1-3.083-3.871l1.542-13.579.196-.825zm-26.791 18.233a3.5 3.5 0 0 1 6.754 1.617l-1.542 13.575a3.5 3.5 0 0 1-3.871 3.083c-1.921-.217-3.3-1.95-3.079-3.871l1.542-13.575.196-.829zm-11.571 9.842c.546-1.471 2.046-2.438 3.671-2.254 1.921.217 3.3 1.954 3.079 3.871l-1.542 13.579a3.49 3.49 0 0 1-3.867 3.079c-1.917-.221-3.3-1.954-3.083-3.871l1.542-13.579.2-.825zm-11.471 11.158a3.51 3.51 0 0 1 3.675-2.254 3.5 3.5 0 0 1 3.079 3.871l-1.542 13.575c-.217 1.921-1.946 3.3-3.867 3.083a3.5 3.5 0 0 1-3.083-3.871l1.546-13.575.192-.829zm-10.946 12.654c.546-1.471 2.046-2.438 3.675-2.25a3.5 3.5 0 0 1 3.079 3.871l-1.546 13.571a3.49 3.49 0 0 1-3.867 3.083c-1.917-.217-3.296-1.95-3.083-3.871l1.546-13.575.196-.829z" class="C"/><path d="M2771.894 1437.784s66.342-44.108 109.467-18.713c78.858 46.446-37.188 160.463-176.121 223.717s-186.167 60.721-186.167 60.721-31.979-5.708-25.571-57.271c0 0 79.846-39.079 119.867-75.996 40.013-36.925 65.642-80.004 158.525-132.458z" class="E"/><g class="H"><path d="M2650.548 1666.58l-23.454 7.571c-31.083 9.788-66.571 20.029-98.713 27.921l-.113 4.596c29.021-7.075 63.079-16.667 100.142-28.338l22.021-7.104.117-4.646zm-150.108-6.158c29.442-10.008 88.196-43.796 157.175-90.388 51.588-34.842 110.742-78.754 118.721-92.825 4.308-7.608 5.021-13.563 2.121-17.713-4.342-6.217-15.171-5.896-20.075-5.396a2.19 2.19 0 0 0-1.946 2.542c.188 1.138 1.221 1.938 2.367 1.825 4.821-.483 13.292-.429 16.063 3.542 2.304 3.296-.004 8.908-2.342 13.038-6.433 11.35-55.792 49.767-117.363 91.354-53.021 35.813-121.875 78.225-156.133 89.871l1.413 4.15z"/><path d="M2504.135 1638.489c5.838 26.254 14.95 49.771 31.663 66.908 0 0-11.996 10.438-24.346 4.879-9.433-4.242-30.542-44.15-25.996-66.904 7.121-4.792 13.463-6.813 18.679-4.883z"/></g><path d="M2495.173 1428.018l-5.329 76.125s-90.521-12.925-134.967-24.254c-12.942-3.296-27.475-7.533-40.775-14.613-24.525-13.042-44.879-35.733-43.375-79.979.475-14.204 3.221-30.638 8.792-49.696 32.35-110.558 86.492-203.371 86.492-203.371 69.717 29.833 63.854 79.488 63.854 79.488l-63.854 166.004c25.517 31.167 129.163 50.296 129.163 50.296z" class="N"/><g class="K"><path d="M2366.01 1380.084a2.35 2.35 0 0 1-1.246-.354c-7.688-4.763-28.671-9.708-28.883-9.758-1.275-.296-2.063-1.571-1.767-2.842a2.37 2.37 0 0 1 2.846-1.767c.738.175 15.438 3.638 25.163 7.771-1.425-3.167-3.733-6.542-6.963-10.217a2.37 2.37 0 0 1 .217-3.342c.979-.863 2.475-.767 3.338.217 5.583 6.346 8.733 12.083 9.633 17.542a2.37 2.37 0 0 1-1.021 2.35 2.36 2.36 0 0 1-1.317.4zm-51.908 85.192c-24.525-13.042-44.879-35.733-43.375-79.979 19.433 10.163 53.3 34.808 43.375 79.979z"/><path d="M2438.231 1416.343l-.588-.075c-44.85-11.567-72.083-35.767-73.217-36.792-.796-.717-1.013-1.879-.525-2.833 31.975-62.871 52.208-112.8 63.671-157.129.325-1.267 1.617-2.029 2.883-1.7s2.029 1.617 1.7 2.883c-11.45 44.279-31.538 94.021-63.192 156.425 6.058 4.988 31.713 24.725 69.858 34.558a2.36 2.36 0 0 1 1.7 2.883 2.37 2.37 0 0 1-2.292 1.779z"/><path d="M2420.281 1254.772a2.37 2.37 0 0 1-1.475-.513c-1.021-.817-1.192-2.304-.379-3.329l16.617-20.883c.813-1.021 2.304-1.192 3.329-.379a2.37 2.37 0 0 1 .375 3.329l-16.613 20.883a2.36 2.36 0 0 1-1.854.892z"/></g><g class="B"><path d="M2497.777 1062.897l80.438 11.492c52.233-5.225 68.871-25.988 77.417-69.9 4.296-22.075 1.45-41.596-2.767-56.067-1.104-16.508-4.858-30.767-12.667-40.179-35.296-42.546-66.379-40.888-66.379-40.888-15.792-7.238-67.971-12.196-102.392 29.579l-.013.013c-1.088.929-22.067 23.158-26.913 69.846-4.613 44.496 25.075 101.325 53.275 96.104z"/><path d="M2542.702 879.042s8.354-74.171-57.454-64.767c-43.013 6.142-69.617 64.425-30.3 90.883 39.325 26.458 87.754-26.117 87.754-26.117z"/></g><path d="M2461.56 912.776l-1-.258c-1.008-.554-1.375-1.821-.821-2.829 15.25-27.721 36.992-39.975 52.55-45.375 16.871-5.85 29.983-5.142 30.533-5.113 1.146.071 2.021 1.058 1.958 2.204-.071 1.15-1.033 2.029-2.208 1.958-.513-.033-51.288-2.383-79.183 48.333-.379.688-1.092 1.079-1.829 1.079z" class="P"/><path d="M2504.094 1046.151s-51.3-28.696-41.217-88.442 49.417-95.704 109.725-78.379c0 0-5.85 172.713-68.508 166.821zm142.658-109.85s5.233 51.288-4.113 58.708-18.504-12.858-18.504-12.858 12.738-45.292 22.617-45.85z" class="B"/><path d="M2623.135 999.663s15.3-13.438 20.367 3.029-5.221 46.746-24.263 38.704l3.896-41.733z" class="F"/><path d="M2641.96 1037.659c-2.1 1.921-4.421 3.592-6.938 4.95-9.608 5.179-22.175 5.792-37.242-2.138 0 0-19.275-25.079 9.217-69.321 0 0 26.138-6.875 41.071 8.929 1.646 1.733 3.158 3.75 4.479 6.088a35.19 35.19 0 0 1 2.213 4.642c5.3 13.45.379 34.892-12.8 46.85z" class="E"/><path d="M2641.273 974.717c1.188-5.913 2.413-13.233 3.204-21.363a3.26 3.26 0 0 1-1.158.304c-1.621.117-3.225-.521-4.792-1.692-.7 7.583-1.788 14.479-2.867 20.158l5.613 2.592z" class="C"/><path d="M2641.96 1037.659c-2.1 1.921-4.421 3.592-6.938 4.95 13.221-27.363 13.592-52.367 13.046-62.529 1.646 1.733 3.163 3.75 4.479 6.088-.013 11.492-1.733 30.396-10.588 51.492z" class="H"/><path d="M2578.523 1073.672l-6.304 42.4s-25.95 33.279-86.067-21.004c6.846-17.267 17.329-39.438 14.642-56.463 0 0 4.396 4.025 11.942 8.829l4.975 3.1c15.633 9.483 39.463 21.633 60.813 23.138z" class="D"/><path d="M2578.523 1073.672l-2.95 19.85c-17.538-6.742-47.863-21.363-62.838-46.088l4.975 3.1c15.633 9.483 39.463 21.633 60.813 23.138z" class="B"/><path d="M2636.152 1001.547l-1.954 12.417c-4.821 29.242-9.242 45-17.358 51.238-41.113 31.542-113.625-24.204-115.95-26.004l-.063-.054c-.238-3.404-.4-6.771-.517-10.096-.958-28.163 2.517-53.667 8.908-77.438 2.458-25.704 21.183-47.196 46.479-52.375 26.208-5.35 46.879 8.9 59.658 15.017 19.296 9.254 28.133 37.275 22.696 74.529l-1.9 12.767z" class="D"/><path d="M2599.402 1035.622c-22.988 0-32.188-22-32.288-22.246a2.1 2.1 0 0 1 1.15-2.721c1.071-.433 2.288.079 2.725 1.15.396.975 10.038 23.804 35.138 18.975 1.146-.221 2.229.521 2.446 1.654a2.09 2.09 0 0 1-1.654 2.446c-2.654.508-5.158.742-7.517.742zm-17.679-79.405c5.908-2.046 4.708-10.758-1.533-11.158-10.646-.688-27.708-.421-29.133 8.15-2.088 12.538 17.758 7.313 30.296 3.133l.371-.125zm31.35 3.688c-4.579-4.254.029-11.742 5.9-9.596 10.025 3.663 25.525 10.783 23.379 19.204-3.142 12.317-19.204-.467-28.988-9.342l-.292-.267z" class="B"/><path d="M2582.46 1045.888c4.2 1.054 7.763.238 7.988.179.742-.175 1.204-.925 1.025-1.667s-.925-1.204-1.675-1.029c-.063.017-6.958 1.563-12.15-3.033a1.38 1.38 0 0 0-1.954.121c-.508.571-.458 1.446.117 1.958 2.142 1.896 4.479 2.933 6.65 3.471z" class="F"/><path d="M2596.885 1017.309a1.53 1.53 0 0 1-.775-.888c-.263-.804.171-1.667.971-1.929l10.042-3.3-5.963-6.033a1.54 1.54 0 0 1-.433-1.242l1.854-16.608c.092-.838.85-1.442 1.688-1.346s1.446.846 1.35 1.683l-1.771 15.883 7.179 7.267a1.54 1.54 0 0 1-.608 2.525l-12.375 4.071a1.52 1.52 0 0 1-1.158-.083z" class="B"/><path d="M2570.86 1001.422c-.517 3.446-8.029 5.188-16.796 3.883-8.758-1.304-15.45-5.158-14.938-8.608s8.038-5.183 16.8-3.879 15.45 5.154 14.933 8.604z" class="F"/><path d="M2634.198 1017.984l-.654-.129.654-3.892 1.35-8.458.604.067-1.954 12.413z" fill="#ba744e"/><path d="M2633.544 1017.855c-7.663-1.567-13.208-5.067-12.742-8.221.396-2.663 4.996-4.308 11.117-4.308 1.163 0 2.379.058 3.629.179l-1.35 8.458-.654 3.892z" fill="#ef6a4d"/><path d="M2579.406 989.076c-.704 4.733-3.425 8.254-6.075 7.858s-4.225-4.55-3.517-9.288c.7-4.738 3.421-8.254 6.075-7.863 2.646.396 4.221 4.554 3.517 9.292zm46.863 6.975c-.704 4.738-3.425 8.258-6.075 7.863s-4.225-4.554-3.521-9.292 3.425-8.258 6.075-7.863 4.225 4.554 3.521 9.292zm-107.109 26.225c-.308.492-8.688 14.013-18.271 16.921l-.017.004-.042-.054a273.88 273.88 0 0 1-.521-10.1c.346-.008 9.621-.238 18.85-6.771z" class="B"/><path d="M2515.377 988.088s-15.154-28.258-32.004-10.333c-13.883 14.771 1.117 61.833 26.654 49.258l5.35-38.925z" class="D"/><g class="B"><path d="M2508.09 1019.288c-.983-.146-1.717-1.013-1.679-2.025.758-19.567-14.371-28.679-15.013-29.058-.938-.55-1.254-1.758-.708-2.696a1.97 1.97 0 0 1 2.692-.708c.733.425 17.821 10.625 16.967 32.617a1.97 1.97 0 0 1-2.042 1.892l-.217-.021z"/><path d="M2491.664 1004.767a1.95 1.95 0 0 1-1.408-.946c-.554-.933-.25-2.142.688-2.696.875-.521 8.675-4.983 14.308-2.617a1.97 1.97 0 0 1 1.05 2.583c-.417 1.004-1.579 1.471-2.579 1.05-3.229-1.358-9.004 1.325-10.771 2.371-.4.242-.858.317-1.288.254z"/></g><g class="C"><path d="M2581.385 964.08c-12.667-4.838-26.913 1.533-31.75 14.2s1.529 26.913 14.2 31.754 26.913-1.529 31.754-14.2-1.533-26.917-14.204-31.754zm-19.05 49.883c-14.838-5.667-22.296-22.346-16.629-37.179s22.346-22.3 37.179-16.629 22.296 22.346 16.629 37.179-22.346 22.296-37.179 16.629z"/><path d="M2546.606 980.63l-.763-.192c-15.588-7.138-30.208-1.692-30.358-1.638a2.101 2.101 0 1 1-1.5-3.925c.663-.254 16.438-6.125 33.608 1.742a2.11 2.11 0 0 1 1.038 2.788c-.371.808-1.192 1.271-2.025 1.225zm98.5-9.346c-12.667-4.838-26.913 1.529-31.754 14.2s1.533 26.913 14.204 31.754 26.913-1.533 31.75-14.204-1.529-26.913-14.2-31.75zm-19.05 49.879c-14.838-5.663-22.296-22.342-16.633-37.179 5.671-14.833 22.35-22.296 37.183-16.629s22.296 22.35 16.625 37.183c-5.663 14.833-22.342 22.292-37.175 16.625z"/><path d="M2598.156 985.13l-.796-.738a2.1 2.1 0 0 1 .663-2.9c.292-.183 7.3-4.458 14.579 1.125.921.708 1.096 2.029.388 2.95a2.1 2.1 0 0 1-2.946.388c-4.988-3.833-9.742-.929-9.788-.9-.658.413-1.454.417-2.1.075z"/></g><g class="B"><path d="M2613.581 888.392c17.488 7.879 31.233 22.438 37.354 40.617 3.842 11.388 7.063 26.408-8.946 24.467-43.675-5.304-67.038-50.613-67.038-50.613s-8.504 41.758-42.804 36.654-33.2-30.971-13.713-45.6c15.892-11.921 56.346-23.013 95.146-5.525z"/><path d="M2533.502 934.722s-19.521 20.942-12.517 43.496 7.475 40.625.175 52.738c0 0-1.888-23.746-10.575-41.746-7.133-14.771-13.796-26.025-8.646-43.071 3.538-11.704 12.096-22.946 31.563-11.417z"/></g><path d="M2501.794 1036.976c-15.121 3.65-26.829 1.533-35.492-3.896a38.4 38.4 0 0 1-3.925-2.854c-18.175-15.204-19.517-46.75-8.383-62.217 3.925-5.475 8.475-9.138 13.229-11.467a31.22 31.22 0 0 1 4.383-1.8c18.783-6.158 39.163 5.108 39.163 5.108 21.333 58.658-8.975 77.125-8.975 77.125z" class="E"/><path d="M2555.002 1062.618c-44.208-9.038-62.996-40.888-63.867-42.4-.704-1.225-.283-2.788.946-3.492a2.56 2.56 0 0 1 3.492.946c.283.488 23.242 39.088 76.838 42.017a2.56 2.56 0 0 1 2.413 2.692 2.56 2.56 0 0 1-2.696 2.417c-6.088-.333-11.792-1.092-17.125-2.179z" class="C"/><path d="M2586.51 1064.109c-.9 4.438-5.229 7.292-9.658 6.383s-7.292-5.233-6.383-9.663 5.233-7.292 9.663-6.383 7.288 5.233 6.379 9.663z" fill="#1f3137"/><path d="M2466.302 1033.08a38.4 38.4 0 0 1-3.925-2.854c13.983-31.675 9.254-59.329 4.846-73.683a31.22 31.22 0 0 1 4.383-1.8c4.704 15.204 9.85 44.742-5.304 78.338z" class="H"/><path d="M2645.765 917.138c-3.713-6.954-7.846-11.592-9.871-13.892-1.7-4.942-3.554-9.613-6.313-13.979-9.246-14.667-23.888-23.65-43.529-26.7-21.229-3.279-39.633.9-54.708 12.463-4.713 3.604-8.888 7.771-12.604 12.275-5.175 6.288-9.446 13.233-12.958 20.221-12.15 24.333-15.063 49.329-15.104 49.683l-5.796-.625c.258-2.379 6.8-58.529 42.913-86.192 16.392-12.558 36.3-17.133 59.146-13.592 21.408 3.313 37.396 13.204 47.596 29.375 5.9 9.363 9.371 20.046 11.229 30.963z" class="C"/><g class="B"><path d="M2425.91 1558.368l-20.154-38.325c-5.025-9.558 1.983-21.017 12.783-20.9l316.771 3.417-9.342 49.067-300.059 6.742z"/><path d="M2720.502 1547.576h-283.496c-6.838 0-11.775-5.546-11.017-12.383l19.329-175.15c.75-6.838 6.913-12.383 13.75-12.383h283.492c6.842 0 11.775 5.546 11.021 12.383l-19.329 175.15c-.754 6.838-6.913 12.383-13.75 12.383z"/></g><path d="M2432.785 1555.13l-.3-.017c-1.313-.167-2.246-1.363-2.079-2.675l23.533-187.6c.163-1.313 1.354-2.238 2.671-2.075a2.39 2.39 0 0 1 2.075 2.667l-23.533 187.608c-.15 1.208-1.179 2.092-2.367 2.092z" fill="#594957"/><path d="M2570.698 1450.734c-1.079 14.071 9.283 26.192 23.146 27.075s25.988-9.8 27.071-23.871-9.279-26.192-23.146-27.075-25.988 9.8-27.071 23.871z" class="J"/><path d="M2721.865 1562.83h-287.4c-6.317 0-11.183-5.571-10.329-11.833l2.733-20.025h308.442l-3.117 22.846c-.708 5.167-5.117 9.013-10.329 9.013z" class="B"/><path d="M2501.069 1506.297l-7.75-.004-2.063 9.992 7.75.004 2.063-9.992zm12.529.004l-2.063 9.992 9.475.004-1.058 11.896-10.963-.004-2.3 10.863-12.529-.008 2.3-10.858-7.75-.004-2.3 10.863-12.529-.008 2.3-10.863-9.475-.004 1.058-11.892 10.963.004 2.063-9.996-9.471-.004 1.058-11.892 10.963.004 2.296-10.867 12.529.004-2.3 10.867 7.754.004 2.296-10.867 12.525.008-2.292 10.867 9.471.004-1.058 11.892-10.963-.004z" class="P"/><g class="I"><path d="M2799.99 1229.451c0 43.183 35.008 78.188 78.192 78.188s78.192-35.004 78.192-78.188-35.008-78.192-78.192-78.192-78.192 35.004-78.192 78.192z"/><path d="M2838.194 1293.401l-42.017 8.892 18.192-36.208 23.825 27.317z"/></g><path d="M2866.169 1257.093c0-7.917 6.383-13.942 15.6-13.942s15.596 6.025 15.596 13.942c0 7.8-6.379 14.179-15.596 14.179s-15.6-6.379-15.6-14.179zm18.671-44.429c0-3.663-3.546-5.554-7.917-5.554-5.079 0-9.808 3.075-12.292 8.038l-21.029-10.517c6.025-11.342 17.958-19.142 36.867-19.142 18.55 0 32.375 7.8 32.375 22.567 0 18.079-18.904 21.267-18.904 30.367h-24.342c0-14.296 15.242-18.55 15.242-25.758z" class="C"/><path d="M2022.764 1673.851s-31.942-50.196-109.517-95.825c-54.779-32.221-86.696-123.2-86.696-123.2s104.95 4.558 150.579 68.442 45.633 150.583 45.633 150.583z" class="E"/><path d="M2023.11 1675.193a1.56 1.56 0 0 1-1.513-1.158c-14.758-55.696-47.058-96.092-71.558-120.167-26.542-26.092-49.842-39.138-50.075-39.271-.754-.413-1.025-1.367-.608-2.125.421-.75 1.371-1.025 2.125-.604.238.129 23.904 13.388 50.754 39.771 24.775 24.354 57.446 65.213 72.383 121.596a1.57 1.57 0 0 1-1.113 1.913l-.396.046z" class="B"/><path d="M2009.002 1672.706s-9.129-18.25-50.196-13.692c-41.071 4.567-63.883 27.383-136.892-13.688 0 0 54.758-45.629 114.075-36.5 59.325 9.121 63.883 31.942 73.013 63.879z" class="E"/><path d="M2009.202 1674.268a1.57 1.57 0 0 1-1.325-.733c-.183-.292-18.558-29.154-48.096-34.521-51.621-9.383-86.775 7.117-87.125 7.288a1.57 1.57 0 0 1-2.083-.733c-.375-.779-.05-1.708.729-2.083.358-.175 36.363-17.125 89.038-7.55 30.921 5.625 49.413 34.704 50.188 35.942a1.57 1.57 0 0 1-.496 2.154l-.829.238z" class="B"/><path d="M2026.935 1668.293s-3.583-20.088 32.083-40.954 67.588-16.192 101.617-92.733c0 0-71.167-3.9-113.296 38.846s-32.163 63.775-20.404 94.842z" class="E"/><path d="M2026.768 1669.976a1.56 1.56 0 0 1-1.554-1.433c-.117-1.454-2.654-35.825 18.788-58.804 36.538-39.138 75.533-47.042 75.925-47.117.838-.163 1.663.388 1.829 1.238a1.56 1.56 0 0 1-1.238 1.829c-.379.075-38.429 7.829-74.229 46.183-20.513 21.975-17.988 56.071-17.963 56.413.071.863-.567 1.617-1.425 1.683l-.133.008z" class="B"/><g class="I"><path d="M2068.939 1693.101h-100.004c-5.9 0-10.729-4.825-10.729-10.725v-4.504c0-5.9 4.829-10.729 10.729-10.729h100.004c5.9 0 10.725 4.829 10.725 10.729v4.504c0 5.9-4.825 10.725-10.725 10.725z"/><path d="M2019.402 1916.547c-81.596 0-133.517-12.983-125.167-70.458 5.292-36.479 33.742-72.217 53.817-93.454 2.821-2.988 5.483-5.692 7.888-8.063 7.45-7.354 12.463-11.596 12.463-11.596l.229-1.325 8.121-45.963 42.65-1.863 44.5 1.863 2.613 19.05 3.875 28.238s5.021 4.242 12.458 11.596c2.417 2.371 5.071 5.075 7.9 8.063 20.075 21.238 48.521 56.975 53.817 93.454 8.346 57.475-43.579 70.458-125.163 70.458z"/></g><path d="M2070.21 1731.651h-101.579l1.421-8.067h99.054l1.104 8.067zm20.538 20.984h-142.696c2.821-2.988 5.483-5.692 7.888-8.063h126.908c2.417 2.371 5.071 5.075 7.9 8.063zm-24.234-47.896l-94.821 9.571 3.746-21.208h89.475l1.6 11.638z" class="L"/><g class="C"><path d="M1183.847 1157.259h-38.496a6.93 6.93 0 0 1-6.925-6.929v-26.533c0-3.825 3.1-6.925 6.925-6.925h38.496c3.825 0 6.925 3.1 6.925 6.925v26.533a6.93 6.93 0 0 1-6.925 6.929z"/><path d="M1205.934 1116.872v40.388l-16.313-13.733v-12.925l16.313-13.729z"/></g><path d="M1242.572 1137.063c0 18.571 15.054 33.625 33.625 33.625s33.625-15.054 33.625-33.625-15.054-33.621-33.625-33.621-33.625 15.054-33.625 33.621z" class="I"/><g class="C"><path d="M1260.343 1156.451c.9 0 1.804-.346 2.496-1.033l31.713-31.713a3.53 3.53 0 0 0 0-4.992 3.52 3.52 0 0 0-4.992 0l-31.717 31.713a3.53 3.53 0 0 0 0 4.992c.692.688 1.596 1.033 2.5 1.033z"/><path d="M1292.055 1156.451a3.53 3.53 0 0 0 2.496-6.025l-31.713-31.713c-1.379-1.383-3.617-1.383-4.996 0a3.53 3.53 0 0 0 0 4.992l31.717 31.713a3.52 3.52 0 0 0 2.496 1.033zm-206.237-2.342h3.208a7.67 7.67 0 0 0 7.646-7.646v-32.938c0-4.2-3.438-7.646-7.646-7.646h-3.208a7.68 7.68 0 0 0-7.65 7.646v32.938c0 4.204 3.446 7.646 7.65 7.646z"/><path d="M1087.093 1165.547h.658c.854 0 1.563-.704 1.563-1.567v-19.496a1.57 1.57 0 0 0-1.563-1.563h-.658a1.57 1.57 0 0 0-1.563 1.563v19.496a1.57 1.57 0 0 0 1.563 1.567z"/><path d="M1072.13 1167.284h30.583a3.3 3.3 0 0 0 3.292-3.288v-1.379a3.3 3.3 0 0 0-3.292-3.288h-30.583a3.3 3.3 0 0 0-3.288 3.288v1.379a3.3 3.3 0 0 0 3.288 3.288z"/></g><path d="M869.834 1017.688c-2.458 1.75-4.792 3.208-7 4.333l.667 3.25c2.583-1.292 5.333-2.958 8.208-5 13.5-9.75 22.375-1.667 31.833 6.917.417.375.833.792 1.25 1.167l3.625-1-2.75-2.5c-9.458-8.625-20.25-18.417-35.833-7.167zm71.375-1.208c-1.958-17.5-16.333-31.667-34.25-33.625-13.917-1.542-30.042-2.125-42.5.792-3.375.792-6.5 1.833-9.25 3.25l.708 3.208c9.708-5.208 27.125-6.667 50.667-4.083 7.542.833 14.417 4 19.833 8.75 5.375 4.75 9.292 11.042 10.958 18.167.292 1.292.542 2.583.667 3.917.083.792.167 1.583.167 2.333l3.167-.875c-.042-.625-.125-1.208-.167-1.833z" class="L"/></g><defs ><path id="B" d="M2117.368 814.826h-276.184a6.65 6.65 0 0 1-6.646-6.65v-.608a6.65 6.65 0 0 1 6.646-6.65h276.184c3.671 0 6.646 2.975 6.646 6.65v.608c0 3.675-2.975 6.65-6.646 6.65z"/><path id="C" d="M1634.855 751.584c0 3.083-2.5 5.583-5.583 5.583s-5.583-2.5-5.583-5.583 2.5-5.583 5.583-5.583 5.583 2.5 5.583 5.583z"/><path id="D" d="M401.425 744.505h-30.363a4.96 4.96 0 0 1-4.963-4.958v-161.9a4.96 4.96 0 0 1 4.963-4.963h30.363a4.96 4.96 0 0 1 4.963 4.963v161.9a4.96 4.96 0 0 1-4.963 4.958z"/></defs></svg>