<svg width="100" height="101" viewBox="0 0 100 101" fill="none" xmlns="http://www.w3.org/2000/svg">
<circle cx="50" cy="50" r="44" fill="#DEF0E2" stroke="#C8E1CC" stroke-width="12"/>
<path d="M66.9079 36.4378V44.5716H35.2739L28.3165 67.0768L28.4604 32.21H39.5504L42.2964 36.4378H66.9079Z" fill="#409979"/>
<path d="M28.3165 67.3924C28.3004 67.3923 28.2844 67.391 28.2685 67.3886C28.1933 67.377 28.1248 67.3387 28.0757 67.2807C28.0265 67.2227 27.9999 67.1489 28.0008 67.0729L28.1453 32.2061C28.1453 32.1224 28.1786 32.0421 28.2378 31.9828C28.297 31.9236 28.3773 31.8904 28.461 31.8904H39.5504C39.603 31.8904 39.6548 31.9036 39.701 31.9288C39.7472 31.9539 39.7864 31.9902 39.815 32.0343L42.4669 36.1183H66.9086C66.9923 36.1183 67.0726 36.1515 67.1318 36.2107C67.191 36.2699 67.2243 36.3502 67.2243 36.434V44.5715C67.2243 44.6552 67.191 44.7355 67.1318 44.7948C67.0726 44.854 66.9923 44.8872 66.9086 44.8872H35.5056L28.6176 67.1701C28.5977 67.2345 28.5577 67.2907 28.5035 67.3307C28.4494 67.3707 28.3838 67.3923 28.3165 67.3924V67.3924ZM28.7749 32.5256L28.6404 64.9583L34.9721 44.48C34.9919 44.4154 35.032 44.3589 35.0863 44.3188C35.1406 44.2787 35.2064 44.2571 35.2739 44.2571H66.5916V36.7535H42.2964C42.2438 36.7534 42.192 36.7402 42.1458 36.7151C42.0996 36.6899 42.0604 36.6536 42.0318 36.6095L39.3799 32.5256H28.7749Z" fill="#323C6B"/>
<path d="M32.2665 54.2965L31.4419 56.9636L31.5019 38.9976H64.1159V44.5716L32.2665 54.2965Z" fill="#F2BF31"/>
<path d="M63.9334 44.6272L64.1159 44.5716V38.9976H62.5897V44.5716L62.4073 44.6272H63.9334Z" fill="#D5D6DB"/>
<path d="M33.5956 30.6314H32.8853C32.8016 30.6314 32.7213 30.5981 32.6621 30.5389C32.6029 30.4797 32.5696 30.3994 32.5696 30.3157C32.5696 30.232 32.6029 30.1517 32.6621 30.0925C32.7213 30.0333 32.8016 30 32.8853 30H33.5956C33.6794 30 33.7597 30.0333 33.8189 30.0925C33.8781 30.1517 33.9113 30.232 33.9113 30.3157C33.9113 30.3994 33.8781 30.4797 33.8189 30.5389C33.7597 30.5981 33.6794 30.6314 33.5956 30.6314Z" fill="#323C6B"/>
<path d="M41.7919 32.4991C41.7393 32.499 41.6875 32.4858 41.6413 32.4607C41.5951 32.4356 41.5559 32.3993 41.5273 32.3551L40.4072 30.6314H35.3718C35.288 30.6314 35.2077 30.5981 35.1485 30.5389C35.0893 30.4797 35.0561 30.3994 35.0561 30.3157C35.0561 30.232 35.0893 30.1517 35.1485 30.0925C35.2077 30.0333 35.288 30 35.3718 30H40.579C40.6316 30.0001 40.6833 30.0133 40.7295 30.0384C40.7757 30.0635 40.8149 30.0998 40.8435 30.144L42.0571 32.0117C42.088 32.0593 42.1054 32.1144 42.1076 32.1711C42.1099 32.2278 42.0967 32.2841 42.0696 32.334C42.0426 32.3839 42.0025 32.4256 41.9538 32.4546C41.905 32.4837 41.8493 32.499 41.7925 32.4991H41.7919Z" fill="#323C6B"/>
<path d="M62.377 69.3063H56.1949C56.1111 69.3063 56.0308 69.2731 55.9716 69.2139C55.9124 69.1547 55.8792 69.0744 55.8792 68.9906C55.8792 68.9069 55.9124 68.8266 55.9716 68.7674C56.0308 68.7082 56.1111 68.6749 56.1949 68.6749H62.377C62.4607 68.6749 62.541 68.7082 62.6002 68.7674C62.6594 68.8266 62.6927 68.9069 62.6927 68.9906C62.6927 69.0744 62.6594 69.1547 62.6002 69.2139C62.541 69.2731 62.4607 69.3063 62.377 69.3063Z" fill="#323C6B"/>
<path d="M54.5633 69.3063H53.9319C53.8482 69.3063 53.7679 69.2731 53.7087 69.2139C53.6495 69.1547 53.6162 69.0744 53.6162 68.9906C53.6162 68.9069 53.6495 68.8266 53.7087 68.7674C53.7679 68.7082 53.8482 68.6749 53.9319 68.6749H54.5633C54.6471 68.6749 54.7274 68.7082 54.7866 68.7674C54.8458 68.8266 54.879 68.9069 54.879 68.9906C54.879 69.0744 54.8458 69.1547 54.7866 69.2139C54.7274 69.2731 54.6471 69.3063 54.5633 69.3063Z" fill="#323C6B"/>
<path d="M31.4419 57.2793C31.3582 57.2793 31.2779 57.246 31.2187 57.1868C31.1595 57.1276 31.1262 57.0473 31.1262 56.9636L31.1862 38.9976C31.1862 38.9139 31.2195 38.8336 31.2787 38.7744C31.3379 38.7151 31.4182 38.6819 31.5019 38.6819H64.1158C64.1996 38.6819 64.2799 38.7151 64.3391 38.7744C64.3983 38.8336 64.4316 38.9139 64.4316 38.9976V44.5723C64.4315 44.6399 64.4098 44.7057 64.3696 44.76C64.3293 44.8144 64.2727 44.8543 64.208 44.8741L32.5191 54.5491L31.7431 57.0564C31.7233 57.1208 31.6833 57.1772 31.6291 57.2174C31.5749 57.2575 31.5093 57.2792 31.4419 57.2793V57.2793ZM31.8163 39.3133L31.7646 54.8522L31.9653 54.2037C31.9806 54.1546 32.0076 54.1099 32.044 54.0736C32.0804 54.0373 32.1252 54.0104 32.1743 53.9953L63.8001 44.338V39.3133H31.8163Z" fill="#323C6B"/>
<path d="M71.2501 44.5715L64.9417 67.0963H28.3165L28.3146 67.0767L35.2739 44.5715H71.2501Z" fill="#409979"/>
<path d="M69.52 44.5715L63.7275 65.2551H28.8784L28.3146 67.0767L28.3165 67.0963H64.9417L71.2501 44.5715H69.52Z" fill="#409979"/>
<path d="M64.9424 67.4121H28.3165C28.236 67.4122 28.1585 67.3817 28.0999 67.3266C28.0412 67.2716 28.0057 67.1962 28.0008 67.116C27.9981 67.0714 28.0024 67.0266 28.0134 66.9834L34.9721 44.4801C34.992 44.4155 35.032 44.3591 35.0863 44.3189C35.1406 44.2788 35.2064 44.2572 35.2739 44.2572H71.2507C71.2994 44.2572 71.3475 44.2686 71.3911 44.2903C71.4347 44.312 71.4727 44.3435 71.5021 44.3823C71.5315 44.4211 71.5516 44.4662 71.5606 44.5141C71.5697 44.5619 71.5676 44.6112 71.5544 44.6581L65.2448 67.1816C65.2263 67.2477 65.1867 67.3059 65.1322 67.3475C65.0776 67.3891 65.011 67.4117 64.9424 67.4121ZM28.737 66.7807H64.7031L70.8346 44.8873H35.5056L28.737 66.7807Z" fill="#323C6B"/>
<path d="M53.0587 46.6002C53.0587 46.6923 53.0221 46.7806 52.957 46.8458C52.8918 46.9109 52.8035 46.9475 52.7114 46.9475H47.1929C47.1008 46.9475 47.0125 46.9109 46.9474 46.8458C46.8823 46.7806 46.8457 46.6923 46.8457 46.6002C46.8457 46.5081 46.8823 46.4198 46.9474 46.3547C47.0125 46.2895 47.1008 46.2529 47.1929 46.2529H52.7089C52.7547 46.2526 52.8001 46.2613 52.8426 46.2786C52.885 46.2959 52.9236 46.3215 52.9561 46.3538C52.9886 46.386 53.0144 46.4244 53.032 46.4667C53.0496 46.509 53.0587 46.5544 53.0587 46.6002V46.6002Z" fill="white"/>
<path d="M46.0564 46.6002C46.0564 46.6923 46.0198 46.7806 45.9547 46.8458C45.8896 46.9109 45.8012 46.9475 45.7091 46.9475H45.5867C45.4945 46.9475 45.4062 46.9109 45.3411 46.8458C45.276 46.7806 45.2394 46.6923 45.2394 46.6002C45.2394 46.5081 45.276 46.4198 45.3411 46.3546C45.4062 46.2895 45.4945 46.2529 45.5867 46.2529H45.7091C45.8012 46.2529 45.8896 46.2895 45.9547 46.3546C46.0198 46.4198 46.0564 46.5081 46.0564 46.6002V46.6002Z" fill="white"/>
</svg>
