<svg xmlns="http://www.w3.org/2000/svg" width="100" height="101" fill="none"  xmlns:v="https://vecta.io/nano"><circle cx="50" cy="50" r="44" fill="#def0e2" stroke="#c8e1cc" stroke-width="12"/><path d="M52.027 58.11l1.486 5.077a1.94 1.94 0 0 1-1.859 2.48h-2.833l-4.432-4.432-.864-7.86" fill="#76ffd9"/><path d="M46.531 57.843l4.001 13.672c.363 1.239-.567 2.48-1.858 2.48H43.35c-.86 0-1.617-.567-1.858-1.392L36.189 53.97" fill="#ffa816"/><path d="M68.782 66.138c-5.598-5.325-13.029-8.294-20.755-8.294H36.029a7.02 7.02 0 0 1-7.018-7.018v-8.509a7.02 7.02 0 0 1 7.018-7.018h11.999c7.726 0 15.157-2.97 20.754-8.294v39.133z" fill="#fff"/><path d="M33.993 50.825v-8.509a7.02 7.02 0 0 1 7.018-7.018h-4.981a7.02 7.02 0 0 0-7.018 7.018v8.509a7.02 7.02 0 0 0 7.018 7.018h4.981a7.02 7.02 0 0 1-7.017-7.018z" fill="#ffc843"/><path d="M26.815 50.826h2.196v-7.657h-2.196c-1.019 0-1.845.826-1.845 1.845v3.968c0 1.019.826 1.845 1.845 1.845z" fill="#e1eaf8"/><path d="M68.782 40.11c3.113.972 5.373 3.877 5.373 7.311s-2.26 6.34-5.373 7.311" fill="#ffc843"/><path d="M68.782 27.005v39.134c-1.491-1.418-3.112-2.67-4.834-3.742V30.747a30.06 30.06 0 0 0 4.834-3.742z" fill="#76ffd9"/><path d="M64.792 31.25a31.14 31.14 0 0 0 3.02-2.222v35.086c-.966-.805-1.975-1.546-3.02-2.222l-1.815-1.089c-4.552-2.522-9.693-3.867-15.012-3.867H35.966a6.12 6.12 0 0 1-6.11-6.11v-8.509a6.1 6.1 0 0 1 3.732-5.63.91.91 0 0 0 .482-1.19.91.91 0 0 0-1.189-.482c-2.923 1.236-4.817 4.076-4.839 7.246h-1.29c-1.518 0-2.752 1.235-2.752 2.752v3.968c0 1.518 1.235 2.752 2.752 2.752h1.342c.452 3.944 3.809 7.018 7.872 7.018h9.822l3.81 13.02a1.02 1.02 0 0 1-.987 1.318h-5.324c-.454 0-.86-.304-.987-.74l-3.414-11.666a.91.91 0 0 0-1.126-.616.91.91 0 0 0-.616 1.126l3.414 11.666a2.86 2.86 0 0 0 2.729 2.045h5.324a2.82 2.82 0 0 0 2.729-3.642l-1.371-4.686h1.622a2.82 2.82 0 0 0 2.73-3.642l-1.084-3.705c5.549 1.011 10.697 3.61 14.858 7.568.172.164.397.25.626.25.121 0 .242-.024.357-.073a.91.91 0 0 0 .55-.834V55.372C72.867 54.078 75 50.963 75 47.421s-2.133-6.657-5.373-7.951V27.004c0-.363-.216-.691-.55-.834s-.72-.074-.983.176c-5.454 5.188-12.602 8.044-20.129 8.044H36.985a.91.91 0 0 0-.907.907.91.91 0 0 0 .907.908h10.98c5.319 0 10.461-1.345 15.012-3.867l1.815-1.089zM25.815 48.981v-3.968a.94.94 0 0 1 .937-.937h1.288v5.842h-1.289a.94.94 0 0 1-.937-.937zm26.764 14.461a1.02 1.02 0 0 1-.988 1.318h-2.153l-1.759-6.009h.286a29.53 29.53 0 0 1 3.295.186l1.319 4.506zm17.048-10.069V41.47c2.169 1.156 3.558 3.415 3.558 5.951s-1.388 4.795-3.558 5.952z" fill="#434c54"/></svg>