<svg xmlns="http://www.w3.org/2000/svg" xmlns:xlink="http://www.w3.org/1999/xlink" width="100" height="101" fill="none" xmlns:v="https://vecta.io/nano"><circle cx="50" cy="50" r="44" fill="#def0e2" stroke="#c8e1cc" stroke-width="12"/><g clip-path="url(#A)"><path d="M33.448 27.655h34.759V74H33.448V27.655z" fill="#ff5050"/><path d="M64.897 71.517H31.793V26h27.31l5.793 5.793v39.724z" fill="#f77"/><path d="M59.104 26l5.793 5.793h-5.793V26z" fill="#ffb655"/><g fill="#ffda44"><path d="M35.104 35.931h7.448v7.448h-7.448v-7.448zm0 12.414h7.448v7.448h-7.448v-7.448zm0 12.414h7.448v7.448h-7.448v-7.448z"/></g><g fill="#006df0"><use xlink:href="#B"/><path d="M39.282 53.693l-2.281-2.281 1.17-1.17 1.03 1.03 5.211-5.956 1.245 1.091-6.375 7.286zm0 12.414l-2.281-2.281 1.17-1.17 1.03 1.03 5.211-5.956 1.245 1.091-6.375 7.286z"/></g><g fill="#fff"><path d="M48.345 36.759h9.931v1.655h-9.931v-1.655zm0 3.31h6.621v1.655h-6.621v-1.655zm8.276 0h4.965v1.655h-4.965v-1.655zm-4.138 9.103h9.103v1.655h-9.103v-1.655zm-4.138 3.311h7.448v1.655h-7.448v-1.655zm9.103 0h4.138v1.655h-4.138v-1.655zm-9.103 9.103h13.241v1.655H48.345v-1.655zm0 3.311h3.31v1.655h-3.31v-1.655zm4.965 0h8.276v1.655H53.31v-1.655zm-4.965-15.725h2.483v1.655h-2.483v-1.655zm11.586-12.413h1.655v1.655h-1.655v-1.655z"/></g></g><defs><clipPath id="A"><path fill="#fff" transform="translate(26 26)" d="M0 0h48v48H0z"/></clipPath><path id="B" d="M39.282 41.28l-2.281-2.281 1.17-1.17 1.03 1.03 5.211-5.956 1.245 1.091-6.375 7.286z"/></defs></svg>