<svg xmlns="http://www.w3.org/2000/svg" width="100" height="101" fill="none"  xmlns:v="https://vecta.io/nano"><circle cx="50" cy="50" r="44" fill="#def0e2" stroke="#c8e1cc" stroke-width="12"/><path d="M29.083 29.898H39.7v1.633H29.083v-1.633zm0 3.267H39.7v1.633H29.083v-1.633zm0 3.267h7.35v1.633h-7.35v-1.633zm0 3.266h7.35v1.633h-7.35v-1.633zM25 72.365h49v1.633H25v-1.633z" fill="#29485a"/><path d="M28.336 61.748l-.139-1.633c17.066-1.479 31.683-12.818 37.358-28.98l1.96-5.589 1.542.539-1.96 5.589a45.22 45.22 0 0 1-38.761 30.075zm.747 3.267H34.8v4.9h-5.717v-4.9z" fill="#ed1c24"/><path d="M38.067 62.565h5.717v7.35h-5.717v-7.35z" fill="#fbb03b"/><path d="M47.05 58.482h5.717v11.433H47.05V58.482z" fill="#f8cf26"/><path d="M56.033 52.765h5.717v17.15h-5.717v-17.15z" fill="#39b54a"/><path d="M65.017 41.332h5.717v28.583h-5.717V41.332z" fill="#0071bc"/><path d="M71.55 33.165c-.311.002-.596-.173-.735-.452l-2.901-5.798-5.799 2.902c-.403.202-.894.038-1.096-.366s-.038-.894.366-1.096l6.533-3.267c.403-.202.894-.038 1.096.365v.001l3.267 6.533c.199.404.033.894-.372 1.093a.82.82 0 0 1-.359.084z" fill="#ed1c24"/></svg>