<svg xmlns="http://www.w3.org/2000/svg" xmlns:xlink="http://www.w3.org/1999/xlink" width="100" height="101" fill="none" xmlns:v="https://vecta.io/nano"><circle cx="50" cy="50" r="44" fill="#def0e2" stroke="#c8e1cc" stroke-width="12"/><path d="M57.665 75H42.335a.88.88 0 0 1-.602-1.519 8.74 8.74 0 0 0 2.071-9.753l-.668-1.59h13.728l-.668 1.59a8.74 8.74 0 0 0 2.071 9.753.88.88 0 0 1-.602 1.519z" fill="#1d384d"/><path d="M58.267 73.482a8.74 8.74 0 0 1-2.071-9.753l.668-1.59h-3.018l-.668 1.59a8.74 8.74 0 0 0 2.071 9.753.88.88 0 0 1-.602 1.519h3.018a.88.88 0 0 0 .602-1.519h0z" fill="#d8ecfe"/><path d="M25 55.967V28.018A3.02 3.02 0 0 1 28.018 25h21.227l.752 1.509.757-1.509h21.227A3.02 3.02 0 0 1 75 28.018v27.949H25z" fill="#a2c1dc"/><path d="M71.982 25h-3.018a3.02 3.02 0 0 1 3.018 3.018v27.949H75V28.018A3.02 3.02 0 0 0 71.982 25h0z" fill="#46a4ff"/><path d="M28.018 62.139h43.964A3.02 3.02 0 0 0 75 59.121v-3.153H25v3.153a3.02 3.02 0 0 0 3.018 3.018h0z" fill="#3f6e90"/><path d="M71.982 55.967v3.153a3.02 3.02 0 0 1-3.018 3.018h3.018A3.02 3.02 0 0 0 75 59.121v-3.153h-3.018z" fill="#355f7f"/><path d="M37.001 46.57v-3.405h-1.812v3.405c0 .767-.537 1.43-1.288 1.589l-2.088.122-2.948.624C26.612 49.382 25 51.371 25 53.673v2.294h22.189v-2.294c0-2.303-1.612-4.291-3.864-4.767l-2.948-.624-2.088-.123c-.751-.159-1.288-.822-1.288-1.589h0z" fill="#f58a97"/><path d="M38.439 50.02l1.868.395c2.253.477 3.864 2.465 3.864 4.767v.785h3.018v-2.294c0-2.303-1.612-4.291-3.864-4.767l-2.947-.624-1.939 1.737z" fill="#f07281"/><path d="M31.812 48.282c.918 1.389 2.493 2.306 4.283 2.306s3.365-.917 4.283-2.306l-2.088-.123c-.751-.159-1.288-.822-1.288-1.589v-3.405h-3.322v3.405c0 .767-.537 1.43-1.288 1.589l-.579.123z" fill="#ffcebf"/><path d="M38.51 46.57v-3.405h-3.018v4.914c0 .767.537 1.43 1.288 1.589l1.659.351c.785-.405 1.454-1.004 1.939-1.737l-.579-.123c-.751-.159-1.288-.822-1.288-1.589z" fill="#ffb09e"/><path d="M42.266 37.89H29.923v-7.435c0-1.346 1.091-2.436 2.437-2.436h7.469c1.346 0 2.436 1.091 2.436 2.436v7.435z" fill="#e19974"/><path d="M39.829 28.018h-3.018c1.346 0 2.436 1.091 2.436 2.436v7.435h3.018v-7.435c0-1.346-1.091-2.437-2.437-2.437h0z" fill="#dc8758"/><path d="M42.266 35.746a6.47 6.47 0 0 1-2.274-1.185 6.51 6.51 0 0 1-1.543-1.809.28.28 0 0 0-.426-.071c-.584.512-1.317 1.058-2.213 1.547-2.344 1.279-4.581 1.5-5.887 1.518v3.955c0 2.564 1.548 4.765 3.756 5.709.742.317 2.415.051 2.415.051.852 0 1.664.269 2.402-.045 2.215-.942 3.769-3.146 3.769-5.715v-3.955z" fill="#ffcebf"/><path d="M39.992 34.562a6.51 6.51 0 0 1-1.545-1.812c-.088-.152-.292-.185-.424-.069-.471.413-1.042.849-1.716 1.259a6.44 6.44 0 0 0 .666.622c.584.472 1.164.773 1.642.967.381.154.632.522.632.934v3.239c.018.408.055 2.255-1.327 3.842-1.628 1.87-3.913 1.873-4.242 1.867a6.2 6.2 0 0 0 1.587.437c.299.041.577.056.828.056 3.408 0 6.171-2.777 6.171-6.202v-3.955c-.528-.152-1.397-.476-2.274-1.185h0z" fill="#ffb09e"/><g fill="#3f6e90"><use xlink:href="#B"/><path d="M39.072 39.501c-.417 0-.755-.338-.755-.755v-1.197c0-.417.338-.755.755-.755s.754.338.754.755v1.197c0 .417-.338.755-.754.755z"/></g><path d="M36.061 43.921c-.53-.006-1.056-.144-1.521-.401-.365-.201-.498-.66-.297-1.025s.66-.498 1.025-.297a1.72 1.72 0 0 0 .809.213c.373.008.664-.114.845-.213.365-.201.824-.068 1.025.297s.069.824-.296 1.025c-.338.186-.914.408-1.589.401z" fill="#ffb09e"/><path d="M43.02 38.674h-.754v-2.928h.754a1.46 1.46 0 0 1 1.46 1.46v.007a1.46 1.46 0 0 1-1.46 1.46z" fill="#ffcebf"/><path d="M29.169 38.674h.754v-2.928h-.754a1.46 1.46 0 0 0-1.46 1.46v.007a1.46 1.46 0 0 0 1.46 1.46z" fill="#ffb09e"/><path d="M72.291 49.962H55.52V36.404a8.39 8.39 0 0 1 8.386-8.386 8.39 8.39 0 0 1 8.386 8.386v13.559z" fill="#3f6e90"/><path d="M63.905 28.018c-.515 0-1.019.049-1.509.138 3.911.711 6.877 4.132 6.877 8.248v13.559h3.018V36.404a8.39 8.39 0 0 0-8.386-8.386h0z" fill="#355f7f"/><path d="M64.811 46.57v-3.405h-1.812v3.405c0 .767-.537 1.43-1.288 1.589l-2.089.123-2.948.624c-2.253.477-3.864 2.465-3.864 4.767v2.294H75v-2.294c0-2.303-1.612-4.291-3.864-4.767l-2.948-.624-2.089-.123c-.751-.159-1.288-.822-1.288-1.589h0z" fill="#fddf80"/><path d="M66.249 50.02l1.868.395c2.253.477 3.864 2.465 3.864 4.767v.785H75v-2.294c0-2.303-1.612-4.291-3.864-4.767l-2.947-.624-1.939 1.737z" fill="#f9d070"/><path d="M59.623 48.282c.918 1.389 2.493 2.306 4.283 2.306s3.365-.917 4.283-2.306L66.1 48.16c-.751-.159-1.288-.822-1.288-1.589v-3.405H61.49v3.405c0 .767-.537 1.43-1.288 1.589l-.58.123z" fill="#ebc3bd"/><path d="M66.919 47.828c-.368-.301-.598-.756-.598-1.257v-3.405h-3.018v4.914c0 .767.537 1.43 1.288 1.589l1.659.351c.785-.405 1.454-1.004 1.939-1.737-.472-.104-.906-.158-1.27-.454z" fill="#d9b1ab"/><path d="M70.077 35.746a6.47 6.47 0 0 1-2.274-1.185c-.77-.622-1.253-1.306-1.543-1.809a.28.28 0 0 0-.426-.071 12.3 12.3 0 0 1-2.213 1.547c-2.344 1.279-4.58 1.5-5.886 1.518v3.955c0 2.564 1.548 4.765 3.756 5.709.742.317 1.558.098 2.415.098 0 0 1.664.221 2.402-.093 2.215-.942 3.769-3.146 3.769-5.715v-3.955z" fill="#ebc3bd"/><path d="M67.803 34.562a6.51 6.51 0 0 1-1.545-1.812c-.088-.152-.292-.185-.424-.069-.471.413-1.042.849-1.716 1.259a6.44 6.44 0 0 0 .666.622 6.46 6.46 0 0 0 1.642.967c.381.154.631.522.631.933v3.239c.018.408.055 2.255-1.327 3.842-1.628 1.87-3.913 1.873-4.242 1.867.37.158.914.347 1.594.438 0 0 .414.055.821.055 3.408 0 6.171-2.777 6.171-6.202v-3.955a6.47 6.47 0 0 1-2.274-1.185z" fill="#d9b1ab"/><g fill="#3f6e90"><use xlink:href="#B" x="27.811"/><path d="M66.883 39.501c-.417 0-.754-.338-.754-.755v-1.197c0-.417.338-.755.754-.755s.755.338.755.755v1.197c0 .417-.338.755-.755.755z"/></g><path d="M63.871 43.921a3.23 3.23 0 0 1-1.521-.401c-.365-.201-.498-.66-.297-1.025s.66-.498 1.025-.297a1.72 1.72 0 0 0 .809.213c.372.008.664-.114.845-.213.365-.201.824-.068 1.025.296s.068.824-.297 1.025c-.338.187-.915.408-1.589.401h0z" fill="#d9b1ab"/><path d="M70.831 38.674h-.754v-2.928h.754a1.46 1.46 0 0 1 1.46 1.46v.007a1.46 1.46 0 0 1-1.46 1.46z" fill="#ebc3bd"/><path d="M56.98 38.674h.754v-2.928h-.754a1.46 1.46 0 0 0-1.46 1.46v.007a1.46 1.46 0 0 0 1.46 1.46z" fill="#d9b1ab"/><path d="M50.755 25v30.967c0 .417-.338.755-.755.755s-.755-.338-.755-.755V25h1.509z" fill="#3f6e90"/><path d="M50 58.674a7.63 7.63 0 0 0 7.627-7.627A7.63 7.63 0 0 0 50 43.42a7.63 7.63 0 0 0-7.627 7.627A7.63 7.63 0 0 0 50 58.674z" fill="#aee49e"/><path d="M50 43.42c-.517 0-1.021.052-1.509.15a7.63 7.63 0 0 1 0 14.955c.488.098.992.15 1.509.15a7.63 7.63 0 0 0 7.627-7.627A7.63 7.63 0 0 0 50 43.42h0z" fill="#8bd8a5"/><path d="M51.059 53.39H46.03a.64.64 0 0 1-.641-.641v-3.405a.64.64 0 0 1 .641-.641h5.029a.64.64 0 0 1 .641.641v3.405a.64.64 0 0 1-.641.641z" fill="#f9f7f8"/><path d="M51.7 52.189v-2.284l2.247-.927a.48.48 0 0 1 .664.444v3.25a.48.48 0 0 1-.664.444l-2.247-.927z" fill="#fff"/><defs ><path id="B" d="M33.117 39.501c-.417 0-.755-.338-.755-.755v-1.197c0-.417.338-.755.755-.755s.755.338.755.755v1.197c0 .417-.338.755-.755.755z"/></defs></svg>