<svg width="208" height="66" viewBox="0 0 208 66" fill="none" xmlns="http://www.w3.org/2000/svg">
<path d="M23.4885 41.0794H17.6353C16.9101 41.0794 16.3221 40.68 16.3221 40.1873C16.3221 39.6946 16.9101 39.2953 17.6353 39.2953H23.4885C24.2138 39.2953 24.8017 39.6947 24.8017 40.1873C24.8017 40.6801 24.2138 41.0794 23.4885 41.0794Z" fill="white"/>
<path d="M14.9922 41.0794H9.12656C8.39205 41.0794 7.79663 40.68 7.79663 40.1873C7.79663 39.6946 8.39205 39.2953 9.12656 39.2953H14.9922C15.7267 39.2953 16.3221 39.6947 16.3221 40.1873C16.3221 40.6801 15.7267 41.0794 14.9922 41.0794Z" fill="white"/>
<path d="M1.75248 60C1.67423 60 1.59469 59.9914 1.51529 59.9735C0.989349 59.8548 0.668759 59.3709 0.799341 58.8928L1.97626 54.5828C2.10684 54.1044 2.63871 53.8132 3.16516 53.9318C3.6911 54.0505 4.01169 54.5344 3.88111 55.0125L2.70419 59.3225C2.5932 59.7287 2.19269 60 1.75248 60Z" fill="white"/>
<path d="M30.8917 60C30.4514 60 30.051 59.7287 29.9402 59.3225L28.7632 55.0125C28.6327 54.5344 28.9532 54.0505 29.4792 53.9318C30.0051 53.8132 30.5374 54.1044 30.6681 54.5828L31.845 58.8928C31.9756 59.3709 31.655 59.8548 31.129 59.9735C31.0496 59.9914 30.9701 60 30.8917 60Z" fill="white"/>
<path d="M31.663 41.0791H27.537C26.995 41.0791 26.5557 40.6798 26.5557 40.1871C26.5557 39.6944 26.995 39.2951 27.537 39.2951H31.663C32.2049 39.2951 32.6442 39.6944 32.6442 40.1871C32.6442 40.6798 32.2049 41.0791 31.663 41.0791Z" fill="white"/>
<path d="M5.08574 41.0791H0.981234C0.439312 41.0791 0 40.6798 0 40.1871C0 39.6944 0.439312 39.2951 0.981234 39.2951H5.08574C5.62766 39.2951 6.06697 39.6944 6.06697 40.1871C6.06697 40.6798 5.62766 41.0791 5.08574 41.0791Z" fill="white"/>
<path d="M19.0619 0.820312V8.58082L18.9689 8.69262C18.1617 8.36191 17.2654 8.17758 16.3221 8.17758C15.3788 8.17758 14.4825 8.36191 13.6753 8.69262L13.5823 8.58082V0.820312C13.5823 0.367266 13.9863 0 14.4847 0H18.1595C18.6579 0 19.0619 0.367266 19.0619 0.820312V0.820312Z" fill="white"/>
<path d="M14.4852 0H17.0633C16.5645 0 16.161 0.366797 16.161 0.820312V8.17969C15.2767 8.19844 14.4362 8.38125 13.6757 8.69297L13.5829 8.58047V0.820312C13.5829 0.366797 13.9863 0 14.4852 0Z" fill="white"/>
<path d="M19.0614 8.17968V8.58046L18.9686 8.69296C18.5393 8.51718 18.0843 8.38242 17.6112 8.2957C18.0275 8.21835 18.4581 8.17734 18.9002 8.17734C18.9544 8.17734 19.0072 8.17851 19.0614 8.17968V8.17968Z" fill="white"/>
<path d="M16.3221 8.17734C16.7643 8.17734 17.1948 8.21835 17.6112 8.2957C17.1381 8.38242 16.6831 8.51718 16.2538 8.69296L16.161 8.58046V8.17968C16.2151 8.17851 16.268 8.17734 16.3221 8.17734V8.17734Z" fill="white"/>
<path d="M16.3528 42.9704H16.2916C15.1622 42.9704 14.2467 42.1382 14.2467 41.1115V39.2627C14.2467 38.236 15.1622 37.4038 16.2916 37.4038H16.3528C17.4821 37.4038 18.3976 38.236 18.3976 39.2627V41.1115C18.3976 42.1382 17.4821 42.9704 16.3528 42.9704Z" fill="white"/>
<path d="M2.96549 54.806L2.89163 54.7894C1.53038 54.4821 0.700741 53.2298 1.03873 51.9923L11.2519 14.592C11.5898 13.3545 12.9673 12.6002 14.3286 12.9075L14.4025 12.9241C15.7637 13.2314 16.5933 14.4837 16.2553 15.7212L6.04223 53.1216C5.70437 54.3591 4.32687 55.1132 2.96549 54.806Z" fill="white"/>
<path d="M15.0266 13.1484C14.4491 13.4508 14.0031 13.9582 13.8303 14.5922L3.61711 51.9926C3.33481 53.0262 3.86719 54.0703 4.8443 54.566C4.29645 54.8531 3.62871 54.9562 2.96613 54.8062L2.89137 54.7898C1.53012 54.4816 0.701252 53.2301 1.03899 51.9926L11.2522 14.5922C11.59 13.3547 12.9667 12.6 14.3279 12.907L14.4027 12.9246C14.6257 12.975 14.8345 13.05 15.0266 13.1484V13.1484Z" fill="white"/>
<path d="M29.6787 54.806L29.7526 54.7894C31.1138 54.4821 31.9435 53.2298 31.6055 51.9923L21.3924 14.592C21.0544 13.3545 19.6769 12.6002 18.3156 12.9075L18.2418 12.9241C16.8805 13.2314 16.0509 14.4837 16.3889 15.7212L26.602 53.1216C26.9399 54.3591 28.3174 55.1132 29.6787 54.806Z" fill="white"/>
<path d="M30.3781 54.566C30.186 54.6633 29.9772 54.7395 29.7529 54.7898L29.6781 54.8062C28.3168 55.1133 26.9401 54.3586 26.6024 53.1211L16.3891 15.7207C16.0514 14.4832 16.8803 13.2316 18.2415 12.9246L18.3163 12.907C18.9802 12.757 19.6466 12.8602 20.1957 13.1484C19.2173 13.6418 18.685 14.6859 18.9673 15.7207L29.1805 53.1211C29.3533 53.7562 29.8006 54.2637 30.3781 54.566Z" fill="white"/>
<path d="M16.3221 18.7229C19.8813 18.7229 22.7666 16.0999 22.7666 12.8643C22.7666 9.6286 19.8813 7.00558 16.3221 7.00558C12.7629 7.00558 9.87756 9.6286 9.87756 12.8643C9.87756 16.0999 12.7629 18.7229 16.3221 18.7229Z" fill="white"/>
<path d="M17.6112 18.6059C17.1948 18.6832 16.7643 18.723 16.3221 18.723C12.763 18.723 9.87808 16.1004 9.87808 12.8637C9.87808 9.62812 12.763 7.00546 16.3221 7.00546C16.7643 7.00546 17.1948 7.04531 17.6112 7.12382C14.6695 7.6664 12.4562 10.0301 12.4562 12.8637C12.4562 15.6984 14.6695 18.0621 17.6112 18.6059Z" fill="#DBECFF"/>
<path d="M16.3221 15.0013C17.6204 15.0013 18.6728 14.0445 18.6728 12.8643C18.6728 11.684 17.6204 10.7272 16.3221 10.7272C15.0238 10.7272 13.9714 11.684 13.9714 12.8643C13.9714 14.0445 15.0238 15.0013 16.3221 15.0013Z" fill="white"/>
<path d="M53.9541 46.756C54.4101 46.756 54.6381 47.332 54.6381 48.484C54.6381 49.636 54.4221 50.668 53.9901 51.58C53.5581 52.492 53.0301 53.2 52.4061 53.704C51.8061 54.208 51.1221 54.616 50.3541 54.928C47.7861 56.056 45.3861 56.032 43.1541 54.856C42.0261 54.256 41.1621 53.548 40.5621 52.732C39.9621 51.892 39.4821 50.896 39.1221 49.744C38.5701 48.016 38.2941 46.204 38.2941 44.308C38.2941 42.412 38.4741 40.636 38.8341 38.98C39.1941 37.324 39.7461 35.752 40.4901 34.264C41.2341 32.752 42.2901 31.54 43.6581 30.628C45.0261 29.716 46.6101 29.26 48.4101 29.26C49.1781 29.26 49.9701 29.392 50.7861 29.656C51.6261 29.896 52.3101 30.208 52.8381 30.592C53.3661 30.952 53.8341 31.516 54.2421 32.284C54.6501 33.052 54.8541 33.952 54.8541 34.984C54.8541 36.088 54.5901 37.084 54.0621 37.972C53.8221 38.38 53.4381 38.752 52.9101 39.088C52.3821 39.4 51.7581 39.556 51.0381 39.556C49.9341 39.556 49.1541 39.064 48.6981 38.08C48.5061 37.696 48.4101 37.276 48.4101 36.82C48.4101 36.364 48.5661 36.1 48.8781 36.028C49.2141 35.932 49.5261 35.668 49.8141 35.236C50.1021 34.804 50.2461 34.3 50.2461 33.724C50.2461 33.268 50.1261 32.872 49.8861 32.536C49.4301 31.936 48.7701 31.636 47.9061 31.636C47.0421 31.636 46.2501 32.032 45.5301 32.824C44.8341 33.616 44.3061 34.612 43.9461 35.812C43.2261 38.212 42.8661 40.42 42.8661 42.436C42.8661 44.452 43.1421 46.072 43.6941 47.296C44.3661 48.808 45.2181 49.816 46.2501 50.32C46.8981 50.632 47.6421 50.788 48.4821 50.788C49.8981 50.788 51.1701 50.152 52.2981 48.88C52.7781 48.376 53.1741 47.776 53.4861 47.08C53.6061 46.864 53.7621 46.756 53.9541 46.756ZM65.9731 34.372C64.0771 36.748 62.7091 39.124 61.8691 41.5H61.9051C65.2411 41.5 67.1491 41.512 67.6291 41.536C68.1331 41.536 68.4091 41.512 68.4571 41.464C68.5051 41.416 68.5411 41.356 68.5651 41.284C68.1571 38.332 67.8331 36.328 67.5931 35.272C67.3531 34.192 67.1131 33.652 66.8731 33.652C66.6331 33.652 66.3331 33.892 65.9731 34.372ZM62.7691 51.328L63.5611 51.184C63.8011 51.184 63.9211 51.316 63.9211 51.58C63.9211 52.42 63.7531 53.128 63.4171 53.704C63.0811 54.28 62.6611 54.688 62.1571 54.928C61.3411 55.336 60.6451 55.54 60.0691 55.54C58.9651 55.54 58.1371 55.132 57.5851 54.316C57.0331 53.476 56.7571 52.228 56.7571 50.572C56.7571 48.892 57.2131 46.72 58.1251 44.056H56.0371C55.7731 44.056 55.6411 43.924 55.6411 43.66C55.6411 43.396 55.8451 42.976 56.2531 42.4C56.6611 41.8 57.0931 41.5 57.5491 41.5H59.1691C60.8731 37.708 62.8771 34.432 65.1811 31.672C65.7811 30.952 66.5131 30.28 67.3771 29.656C68.2651 29.032 68.9491 28.72 69.4291 28.72C69.9091 28.72 70.2691 28.936 70.5091 29.368C71.1331 30.376 71.8651 34.06 72.7051 40.42C72.9931 43.156 73.4851 45.988 74.1811 48.916C74.9011 51.82 75.5611 53.512 76.1611 53.992C76.3051 54.088 76.3771 54.208 76.3771 54.352C76.3771 54.712 75.8611 55.048 74.8291 55.36C73.8211 55.672 73.0411 55.828 72.4891 55.828C71.9611 55.828 71.5531 55.756 71.2651 55.612C70.9771 55.492 70.7971 55.36 70.7251 55.216C70.2931 54.28 69.8611 52.048 69.4291 48.52L69.2131 46.828C69.1171 45.7 69.0211 44.848 68.9251 44.272L68.6731 44.092L61.1491 44.056C60.8611 45.28 60.7171 46.348 60.7171 47.26C60.7171 48.172 60.7411 48.844 60.7891 49.276C60.8611 49.684 61.0651 50.128 61.4011 50.608C61.7371 51.088 62.1931 51.328 62.7691 51.328ZM84.8098 31.672C84.3778 31.672 84.0058 31.744 83.6938 31.888C83.3818 32.032 83.2258 32.212 83.2258 32.428C82.9378 33.436 82.7938 36.448 82.7938 41.464C82.7938 46.456 82.7818 49.252 82.7578 49.852C83.2138 50.572 83.9218 50.932 84.8818 50.932C86.5858 50.932 87.8698 49.996 88.7338 48.124C89.5978 46.228 90.0298 43.864 90.0298 41.032C90.0298 38.176 89.6098 35.908 88.7698 34.228C87.9298 32.524 86.6098 31.672 84.8098 31.672ZM77.9338 55.396C77.5738 55.348 77.3938 55.24 77.3938 55.072L77.5018 54.64C78.1018 53.344 78.4018 48.676 78.4018 40.636C78.4018 36.796 78.2938 34.396 78.0778 33.436C77.8858 32.476 77.7298 31.864 77.6098 31.6L77.4298 31.24C77.3338 31.144 77.2858 31.012 77.2858 30.844C77.2858 30.652 77.4298 30.496 77.7178 30.376C79.5898 29.632 82.0498 29.26 85.0978 29.26C91.5058 29.26 94.7098 33.34 94.7098 41.5C94.7098 44.692 94.1458 47.608 93.0178 50.248C92.5618 51.256 92.0338 52.132 91.4338 52.876C90.8338 53.596 90.0418 54.208 89.0578 54.712C88.0978 55.192 87.0298 55.432 85.8538 55.432C85.6138 55.408 85.3018 55.372 84.9178 55.324C84.5578 55.276 84.0058 55.096 83.2618 54.784C82.5418 54.472 82.0498 54.064 81.7858 53.56C80.8978 54.784 79.6138 55.396 77.9338 55.396ZM105.524 34.372C103.628 36.748 102.26 39.124 101.42 41.5H101.456C104.792 41.5 106.7 41.512 107.18 41.536C107.684 41.536 107.96 41.512 108.008 41.464C108.056 41.416 108.092 41.356 108.116 41.284C107.708 38.332 107.384 36.328 107.144 35.272C106.904 34.192 106.664 33.652 106.424 33.652C106.184 33.652 105.884 33.892 105.524 34.372ZM102.32 51.328L103.112 51.184C103.352 51.184 103.472 51.316 103.472 51.58C103.472 52.42 103.304 53.128 102.968 53.704C102.632 54.28 102.212 54.688 101.708 54.928C100.892 55.336 100.196 55.54 99.6198 55.54C98.5158 55.54 97.6878 55.132 97.1358 54.316C96.5838 53.476 96.3078 52.228 96.3078 50.572C96.3078 48.892 96.7638 46.72 97.6758 44.056H95.5878C95.3238 44.056 95.1918 43.924 95.1918 43.66C95.1918 43.396 95.3958 42.976 95.8038 42.4C96.2118 41.8 96.6438 41.5 97.0998 41.5H98.7198C100.424 37.708 102.428 34.432 104.732 31.672C105.332 30.952 106.064 30.28 106.928 29.656C107.816 29.032 108.5 28.72 108.98 28.72C109.46 28.72 109.82 28.936 110.06 29.368C110.684 30.376 111.416 34.06 112.256 40.42C112.544 43.156 113.036 45.988 113.732 48.916C114.452 51.82 115.112 53.512 115.712 53.992C115.856 54.088 115.928 54.208 115.928 54.352C115.928 54.712 115.412 55.048 114.38 55.36C113.372 55.672 112.592 55.828 112.04 55.828C111.512 55.828 111.104 55.756 110.816 55.612C110.528 55.492 110.348 55.36 110.276 55.216C109.844 54.28 109.412 52.048 108.98 48.52L108.764 46.828C108.668 45.7 108.572 44.848 108.476 44.272L108.224 44.092L100.7 44.056C100.412 45.28 100.268 46.348 100.268 47.26C100.268 48.172 100.292 48.844 100.34 49.276C100.412 49.684 100.616 50.128 100.952 50.608C101.288 51.088 101.744 51.328 102.32 51.328ZM117.665 40.996L117.485 34.192C117.485 33.112 117.365 32.26 117.125 31.636C116.885 31.012 116.765 30.676 116.765 30.628C116.765 30.1 117.569 29.692 119.177 29.404C120.809 29.116 122.045 28.972 122.885 28.972C123.749 28.972 124.217 29.176 124.289 29.584C125.801 36.328 127.073 41.008 128.105 43.624C128.225 43.912 128.345 44.056 128.465 44.056C128.609 44.056 128.729 43.948 128.825 43.732C130.433 39.196 131.849 34.708 133.073 30.268C133.169 29.98 133.409 29.764 133.793 29.62C134.177 29.452 134.837 29.296 135.773 29.152C136.733 29.008 137.681 28.936 138.617 28.936C139.553 28.936 140.021 29.128 140.021 29.512C140.021 29.536 139.985 29.728 139.913 30.088C139.841 30.424 139.769 30.844 139.697 31.348C139.625 31.852 139.541 32.464 139.445 33.184C139.229 34.84 139.085 36.748 139.013 38.908C138.965 41.044 138.941 43.192 138.941 45.352L139.013 49.132C139.013 50.86 139.121 52.096 139.337 52.84C139.577 53.56 139.697 53.98 139.697 54.1C139.697 54.196 139.613 54.316 139.445 54.46C138.701 55.06 137.573 55.36 136.061 55.36C135.101 55.36 134.561 55.036 134.441 54.388C134.369 54.052 134.333 53.524 134.333 52.804C134.333 52.06 134.405 49.804 134.549 46.036C134.693 42.268 134.765 39.532 134.765 37.828C134.765 36.1 134.669 35.236 134.477 35.236C134.453 35.236 134.441 35.248 134.441 35.272C134.441 35.272 134.405 35.284 134.333 35.308C134.261 35.332 134.069 35.704 133.757 36.424C133.469 37.144 132.881 38.92 131.993 41.752C131.105 44.584 130.301 47.236 129.581 49.708C128.861 52.156 128.465 53.476 128.393 53.668C128.129 54.316 127.625 54.64 126.881 54.64C126.521 54.64 126.233 54.508 126.017 54.244C125.249 50.692 123.881 45.616 121.913 39.016L120.905 35.74C120.857 35.62 120.809 35.56 120.761 35.56C120.641 35.56 120.557 35.644 120.509 35.812C120.413 37.372 120.365 40.444 120.365 45.028C120.365 49.588 120.533 52.468 120.869 53.668C120.893 53.716 120.905 53.788 120.905 53.884C120.905 54.388 120.509 54.76 119.717 55C118.925 55.216 118.205 55.324 117.557 55.324C116.933 55.324 116.621 55.18 116.621 54.892C116.621 54.868 116.681 54.676 116.801 54.316C117.161 53.092 117.389 51.316 117.485 48.988C117.605 46.66 117.665 43.996 117.665 40.996ZM157.456 50.536C157.456 52.216 156.916 53.464 155.836 54.28C154.78 55.096 153.292 55.504 151.372 55.504C148.3 55.504 146.032 54.484 144.568 52.444C143.128 50.404 142.408 47.74 142.408 44.452C142.408 43.924 142.432 43.156 142.48 42.148H140.464C140.272 42.148 140.176 42.076 140.176 41.932C140.176 41.524 140.38 41.032 140.788 40.456C141.196 39.88 141.64 39.592 142.12 39.592H142.804C143.116 37.864 143.62 36.34 144.316 35.02C145.036 33.7 145.78 32.68 146.548 31.96C147.34 31.24 148.204 30.664 149.14 30.232C150.628 29.512 152.188 29.152 153.82 29.152C155.452 29.152 156.472 29.416 156.88 29.944C157.072 30.208 157.168 30.7 157.168 31.42C157.168 32.116 157.084 32.464 156.916 32.464C156.892 32.464 156.784 32.416 156.592 32.32C155.968 32.032 155.188 31.888 154.252 31.888C152.212 31.888 150.616 32.608 149.464 34.048C148.336 35.488 147.58 37.336 147.196 39.592C149.02 39.568 151.492 39.556 154.612 39.556C154.852 39.556 154.972 39.64 154.972 39.808C154.972 40.192 154.78 40.684 154.396 41.284C154.012 41.86 153.58 42.148 153.1 42.148H146.908C146.884 42.436 146.872 43.072 146.872 44.056C146.872 45.016 147.04 46.036 147.376 47.116C147.736 48.172 148.384 49.072 149.32 49.816C150.28 50.56 151.516 50.932 153.028 50.932C154.54 50.932 155.812 50.596 156.844 49.924C156.964 49.828 157.072 49.78 157.168 49.78C157.36 49.78 157.456 50.032 157.456 50.536ZM174.647 50.536C174.647 52.216 174.107 53.464 173.027 54.28C171.971 55.096 170.483 55.504 168.563 55.504C165.491 55.504 163.223 54.484 161.759 52.444C160.319 50.404 159.599 47.74 159.599 44.452C159.599 43.924 159.623 43.156 159.671 42.148H157.655C157.463 42.148 157.367 42.076 157.367 41.932C157.367 41.524 157.571 41.032 157.979 40.456C158.387 39.88 158.831 39.592 159.311 39.592H159.995C160.307 37.864 160.811 36.34 161.507 35.02C162.227 33.7 162.971 32.68 163.739 31.96C164.531 31.24 165.395 30.664 166.331 30.232C167.819 29.512 169.379 29.152 171.011 29.152C172.643 29.152 173.663 29.416 174.071 29.944C174.263 30.208 174.359 30.7 174.359 31.42C174.359 32.116 174.275 32.464 174.107 32.464C174.083 32.464 173.975 32.416 173.783 32.32C173.159 32.032 172.379 31.888 171.443 31.888C169.403 31.888 167.807 32.608 166.655 34.048C165.527 35.488 164.771 37.336 164.387 39.592C166.211 39.568 168.683 39.556 171.803 39.556C172.043 39.556 172.163 39.64 172.163 39.808C172.163 40.192 171.971 40.684 171.587 41.284C171.203 41.86 170.771 42.148 170.291 42.148H164.099C164.075 42.436 164.063 43.072 164.063 44.056C164.063 45.016 164.231 46.036 164.567 47.116C164.927 48.172 165.575 49.072 166.511 49.816C167.471 50.56 168.707 50.932 170.219 50.932C171.731 50.932 173.003 50.596 174.035 49.924C174.155 49.828 174.263 49.78 174.359 49.78C174.551 49.78 174.647 50.032 174.647 50.536ZM179.023 29.368L184.207 29.656C186.511 29.656 188.167 29.38 189.175 28.828C189.319 28.732 189.439 28.684 189.535 28.684C189.655 28.684 189.715 28.852 189.715 29.188C189.715 29.524 189.511 30.076 189.103 30.844C188.503 32.02 187.639 32.608 186.511 32.608L184.531 32.572C184.339 32.572 184.219 32.68 184.171 32.896C184.003 36.424 183.919 40.24 183.919 44.344C183.919 48.424 184.087 51.496 184.423 53.56V53.74C184.423 54.34 183.847 54.82 182.695 55.18C181.567 55.54 180.499 55.72 179.491 55.72C179.011 55.72 178.771 55.588 178.771 55.324C178.771 55.252 178.807 55.084 178.879 54.82C179.143 54.292 179.371 51.736 179.563 47.152C179.779 42.568 179.887 39.112 179.887 36.784L179.815 32.86C179.815 32.716 179.743 32.632 179.599 32.608C179.095 32.512 178.519 32.464 177.871 32.464C176.575 32.464 175.615 32.728 174.991 33.256C174.823 33.376 174.667 33.436 174.523 33.436C174.355 33.436 174.271 33.34 174.271 33.148C174.271 32.86 174.427 32.464 174.739 31.96C175.027 31.456 175.339 31.024 175.675 30.664C176.491 29.8 177.607 29.368 179.023 29.368ZM200.987 35.056L201.131 33.94C201.131 32.836 200.699 32.128 199.835 31.816C199.163 31.6 198.647 31.492 198.287 31.492H198.251C197.531 31.492 196.907 31.612 196.379 31.852C195.851 32.068 195.467 32.344 195.227 32.68C194.723 33.376 194.435 34.108 194.363 34.876C194.363 35.788 194.771 36.58 195.587 37.252C196.403 37.9 197.387 38.476 198.539 38.98C199.715 39.46 200.879 39.988 202.031 40.564C203.207 41.14 204.203 41.968 205.019 43.048C205.835 44.128 206.243 45.424 206.243 46.936C206.243 49.888 205.307 52.096 203.435 53.56C201.587 55.024 199.475 55.756 197.099 55.756C194.747 55.756 192.791 55.228 191.231 54.172C189.695 53.092 188.927 51.652 188.927 49.852V49.816C188.927 48.928 189.059 48.16 189.323 47.512C189.611 46.84 189.947 46.348 190.331 46.036C191.123 45.388 191.843 45.04 192.491 44.992L192.923 44.956C193.595 44.956 194.207 45.124 194.759 45.46C195.311 45.772 195.587 46.216 195.587 46.792C195.587 47.08 195.431 47.32 195.119 47.512C194.807 47.704 194.531 47.992 194.291 48.376C194.075 48.76 193.955 49.084 193.931 49.348L193.859 49.744C193.859 51.208 194.531 52.18 195.875 52.66C196.355 52.828 196.739 52.912 197.027 52.912C198.347 52.912 199.403 52.516 200.195 51.724C201.011 50.932 201.419 49.924 201.419 48.7C201.419 47.236 200.795 46.048 199.547 45.136C198.611 44.464 197.591 43.9 196.487 43.444C195.407 42.988 194.675 42.664 194.291 42.472C193.907 42.28 193.499 42.052 193.067 41.788C192.635 41.524 192.155 41.152 191.627 40.672C190.475 39.664 189.899 38.308 189.899 36.604C189.899 34.876 190.367 33.424 191.303 32.248C192.983 30.112 195.503 29.044 198.863 29.044C200.639 29.044 202.139 29.392 203.363 30.088C204.587 30.76 205.199 31.696 205.199 32.896C205.199 33.76 204.947 34.48 204.443 35.056C203.963 35.632 203.339 35.92 202.571 35.92C202.211 35.92 201.851 35.848 201.491 35.704C201.155 35.56 200.987 35.344 200.987 35.056Z" fill="white"/>
</svg>
